<svg width="32" height="32" xmlns="http://www.w3.org/2000/svg" xml:space="preserve" version="1.1">

 <g>
  <title>Layer 1</title>
  <ellipse ry="16" rx="16" id="svg_6" cy="16" cx="16" stroke="null" fill="#030017"/>
  <path stroke="null" id="svg_4" fill="#009C32" d="m28.8647,15.75271c-0.36963,-0.93709 -1.29111,-1.45249 -2.28547,-1.27028l-2.04078,0.36443c-0.33839,0.06247 -0.56226,0.38525 -0.50499,0.72364c0.06247,0.33839 0.38525,0.56226 0.72364,0.50499l2.04078,-0.36443c0.48416,-0.0885 0.78612,0.20304 0.90586,0.50499c0.11974,0.30195 0.09892,0.71844 -0.31757,0.98395l-2.9987,1.94187c-0.27592,0.18221 -0.61952,0.19262 -0.90586,0.03644c-0.29154,-0.15618 -0.46334,-0.44772 -0.46334,-0.78091l0,-6.29935c0,-0.3436 -0.27592,-0.62473 -0.62473,-0.62473c-0.3436,0 -0.62473,0.28113 -0.62473,0.62473l0,6.28894c0,0.79653 0.41649,1.49414 1.1141,1.87419c0.32278,0.17701 0.67158,0.26551 1.02039,0.26551c0.40087,0 0.80174,-0.11453 1.16095,-0.34881l2.9987,-1.94187c0.84859,-0.54664 1.17137,-1.5462 0.80174,-2.4833m-10.5423,-1.27549l-2.04078,0.36443c-0.33839,0.06247 -0.56226,0.38525 -0.50499,0.72364c0.06247,0.33839 0.38525,0.56226 0.72364,0.50499l2.04078,-0.36443c0.48416,-0.0885 0.78612,0.20304 0.90586,0.50499c0.11974,0.30195 0.09892,0.71844 -0.31757,0.98395l-2.9987,1.94187c-0.27592,0.18221 -0.61952,0.19262 -0.90586,0.03644c-0.29154,-0.15618 -0.46334,-0.44772 -0.46334,-0.78091l0,-4.77918c0,-0.79653 -0.41649,-1.49414 -1.1141,-1.87419c-0.69761,-0.38004 -1.51497,-0.34881 -2.18135,0.0833l-7.53319,4.8833c-0.84859,0.55184 -1.16616,1.55141 -0.79653,2.4885c0.36963,0.93709 1.29111,1.45249 2.28547,1.27028l6.58048,-1.18178c0.33839,-0.06247 0.56226,-0.38525 0.50499,-0.72364c-0.06247,-0.33839 -0.38525,-0.56226 -0.72364,-0.50499l-6.58048,1.18178c-0.48416,0.0885 -0.78612,-0.20304 -0.90586,-0.50499c-0.11974,-0.30195 -0.09892,-0.71844 0.31757,-0.98395l7.53319,-4.8833c0.27592,-0.18221 0.61952,-0.19262 0.90586,-0.03644c0.29154,0.15618 0.46334,0.44772 0.46334,0.78091l0,4.77918c0,0.79653 0.41649,1.49414 1.1141,1.87419c0.32278,0.17701 0.67158,0.26551 1.02039,0.26551c0.40087,0 0.80174,-0.11453 1.15575,-0.34881l2.9987,-1.94187c0.84859,-0.55184 1.16616,-1.55141 0.79653,-2.4885c-0.36443,-0.93709 -1.2859,-1.44729 -2.28026,-1.27028" class="st2"/>
 </g>
</svg>