<svg width="32" height="32" xmlns="http://www.w3.org/2000/svg">
 <!-- Created with SVG Editor - http://github.com/mzalive/SVG Editor/ -->

 <g>
  <title>background</title>
  <rect fill="none" id="canvas_background" height="34" width="34" y="-1" x="-1"/>
  <g display="none" overflow="visible" y="0" x="0" height="100%" width="100%" id="canvasGrid">
   <rect fill="url(#gridpattern)" stroke-width="0" y="0" x="0" height="100%" width="100%"/>
  </g>
 </g>
 <g>
  <title>Layer 1</title>
  <defs>
   <clipPath clipPathUnits="userSpaceOnUse" id="svg_23">
    <path d="m1539.766468,-397.551672l85.115,0l0,34.842l-85.115,0l0,-34.842z" id="svg_26"/>
   </clipPath>
   <clipPath clipPathUnits="userSpaceOnUse" id="svg_17">
    <path d="m1484.304413,-356.186623l85.115,0l0,34.842l-85.115,0l0,-34.842z" id="svg_25"/>
   </clipPath>
  </defs>
  <ellipse ry="16" rx="16" id="svg_29" cy="15.700004" cx="16" stroke-width="0" stroke="#000" fill="#fff"/>
  <g stroke="null" id="svg_28">
   <g stroke="null" id="svg_20" transform="matrix(0.2865941958386963,0,0,0.2865941958386963,-1149.1484857799076,-742.926349536913) ">
    <g stroke="null" transform="matrix(2.864053,0,0,-2.864053,-363.82891,1555.0879) " id="svg_21">
     <g stroke="null" id="svg_22" clip-path="url(#svg_23)">
      <g stroke="null" id="svg_24"/>
     </g>
    </g>
   </g>
   <g stroke="null" transform="matrix(0.8564363136854759,0,0,-0.8620868048506319,-1262.3988567626038,-279.79572424006557) " id="svg_15">
    <g stroke="null" id="svg_16" clip-path="url(#svg_17)">
     <g stroke="null" id="svg_18">
      <path fill="#ee2a23" fill-rule="nonzero" d="m1492.697711,-330.044935c1.779,0 2.338,-1.276 2.807,-2.55c0.197,-0.541 4.82,-13.201 4.959,-13.581c0.037,-0.106 0.012,-0.28 -0.151,-0.343c-0.164,-0.062 -2.566,-0.996 -2.699,-1.046c-0.133,-0.051 -0.282,0.023 -0.33,0.156c-0.05,0.131 -1.047,2.891 -1.159,3.199l-6.852,0c-0.108,-0.308 -1.117,-3.074 -1.162,-3.199c-0.046,-0.127 -0.189,-0.213 -0.331,-0.156c-0.142,0.056 -2.553,0.99 -2.697,1.046c-0.138,0.054 -0.201,0.211 -0.153,0.343c0.17,0.474 4.723,12.931 4.955,13.581c0.452,1.255 1.03,2.55 2.813,2.55m-8.393,-22.919l0,-2.959c0,-0.146 0.115,-0.264 0.259,-0.264l16.261,0c0.147,0 0.262,0.118 0.262,0.264l0,2.959c0,0.146 -0.115,0.266 -0.262,0.266l-16.261,0m8.118,18.519l-2.316,-6.955l4.67,0l-2.324,6.955l-0.03,0z" id="svg_19"/>
     </g>
    </g>
   </g>
  </g>
 </g>
</svg>