<svg width="32" height="32" xmlns="http://www.w3.org/2000/svg" xml:space="preserve" version="1.1">

 <g>
  <title>Layer 1</title>
  <g stroke="null" id="svg_3">
   <path stroke="null" id="svg_1" d="m32.05943,16c0,8.87992 -7.17951,16.05943 -16.05943,16.05943c-8.87992,0 -16.05943,-7.17951 -16.05943,-16.05943c0,-8.87992 7.17951,-16.05943 16.05943,-16.05943s16.05943,7.17951 16.05943,16.05943l0,0z"/>
   <polygon stroke="null" id="svg_2" fill="#FFFFFF" points="8.8204927444458,23.7463096678257 11.560042381286621,19.02294769883156 14.299592018127441,14.299588590860367 17.039140701293945,9.576228529214859 17.511476516723633,8.820490270853043 17.700408935546875,9.576228529214859 18.550617218017578,12.69364681839943 17.605945587158203,14.299588590860367 14.86639404296875,19.02294769883156 12.126845359802246,23.7463096678257 15.433197975158691,23.7463096678257 18.172746658325195,19.02294769883156 19.58975601196289,16.566803365945816 20.25102424621582,19.02294769883156 21.47909927368164,23.7463096678257 24.407581329345703,23.7463096678257 23.17951011657715,19.02294769883156 21.85696792602539,14.299588590860367 21.57356834411621,13.07151547074318 23.557376861572266,9.576228529214859 20.628894805908203,9.576228529214859 20.534427642822266,9.292827039957047 19.495288848876953,5.419670969247818 19.400821685791016,4.852867990732193 16.47233772277832,4.852867990732193 16.47233772277832,4.9473351538181305 13.732789039611816,9.576228529214859 11.087706565856934,14.299588590860367 8.348156929016113,19.02294769883156 5.608608245849609,23.7463096678257 " class="st0"/>
  </g>
 </g>
</svg>