<svg width="32" height="32" xmlns="http://www.w3.org/2000/svg">
 <!-- Created with SVG Editor - http://github.com/mzalive/SVG Editor/ -->

 <g>
  <title>background</title>
  <rect fill="none" id="canvas_background" height="34" width="34" y="-1" x="-1"/>
  <g display="none" overflow="visible" y="0" x="0" height="100%" width="100%" id="canvasGrid">
   <rect fill="url(#gridpattern)" stroke-width="0" y="0" x="0" height="100%" width="100%"/>
  </g>
 </g>
 <g>
  <title>Layer 1</title>
  <style transform="matrix(0.1619707723254038,0,0,0.1619707723254038,0,0) " type="text/css">.st0{fill:#FF007A;}
	.st1{fill-rule:evenodd;clip-rule:evenodd;fill:#FF007A;}</style>
  <style transform="matrix(0.011147959669575214,0,0,0.011147959669575214,0,0) " type="text/css">.st0{fill:#0AC18E;}
	.st1{fill:#FFFFFF;}</style>
  <defs>
   <style>.cls-1{fill:#2a5ada;}</style>
  </defs>
  <g stroke="null" id="svg_75">
   <circle stroke="null" transform="matrix(0.0126972871493862,0,0,0.0126972871493862,-151.3710204952546,-151.3710204952546) " id="svg_66" fill="#2e3148" r="1250" cy="13181.634413" cx="13181.634306"/>
   <circle stroke="null" transform="matrix(0.0126972871493862,0,0,0.0126972871493862,-151.3710204952546,-151.3710204952546) " id="svg_67" fill="#1b1e36" r="725.309998" cy="13181.634413" cx="13181.634306"/>
   <path stroke="null" id="svg_68" fill="#6f7390" d="m16.032607,2.153204c-1.713245,0 -3.102455,6.214052 -3.102455,13.879532s1.38921,13.879532 3.102455,13.879532s3.102455,-6.214052 3.102455,-13.879532s-1.38921,-13.879532 -3.102455,-13.879532zm0.214203,26.975767c-0.195919,0.26131 -0.391838,0.065264 -0.391838,0.065264c-0.789009,-0.914205 -1.183514,-2.612594 -1.183514,-2.612594c-1.380068,-4.441384 -1.051589,-13.977428 -1.051589,-13.977428c0.648577,-7.57063 1.828409,-9.359043 2.229898,-9.756088a0.244931,0.244931 0 0 1 0.314131,-0.025395c0.582552,0.412789 1.071143,2.139112 1.071143,2.139112c1.442793,5.355843 1.312138,10.385111 1.312138,10.385111c0.130655,4.37612 -0.722984,9.274733 -0.722984,9.274733c-0.657085,3.722845 -1.577384,4.507283 -1.577384,4.507283z"/>
   <path stroke="null" id="svg_69" fill="#6f7390" d="m28.07154,9.125539c-0.853004,-1.486598 -6.933862,0.40098 -13.586097,4.215499s-11.344645,8.11217 -10.492276,9.598133s6.933862,-0.40098 13.586097,-4.215499s11.344645,-8.11217 10.492276,-9.598133l0,0zm-23.291396,13.609714c-0.326574,-0.041139 -0.252803,-0.30956 -0.252803,-0.30956c0.400599,-1.139074 1.675407,-2.326524 1.675407,-2.326524c3.167084,-3.407444 11.602654,-7.867874 11.602654,-7.867874c6.888786,-3.205049 9.028533,-3.069823 9.571342,-2.920376a0.244931,0.244931 0 0 1 0.177762,0.26131c-0.065264,0.711048 -1.322676,1.993474 -1.322676,1.993474c-3.924985,3.918256 -8.352656,6.308139 -8.352656,6.308139c-3.730844,2.29186 -8.404715,3.988091 -8.404715,3.988091c-3.556383,1.281537 -4.694187,0.873319 -4.694187,0.873319l0,0l-0.000127,0z"/>
   <path stroke="null" id="svg_70" fill="#6f7390" d="m28.041448,22.988691c0.859606,-1.482662 -3.820995,-5.799994 -10.449867,-9.643209s-12.708969,-5.754157 -13.567813,-4.268955s3.820995,5.799994 10.453677,9.643209s12.705159,5.754284 13.564004,4.268955zm-23.44808,-13.339262c-0.126973,-0.301053 0.141067,-0.373554 0.141067,-0.373554c1.186688,-0.224107 2.853588,0.286578 2.853588,0.286578c4.534836,1.03267 12.621103,6.097872 12.621103,6.097872c6.225861,4.356566 7.180697,6.275507 7.323795,6.820221a0.244931,0.244931 0 0 1 -0.135861,0.2848c-0.649212,0.297243 -2.387979,-0.145638 -2.387979,-0.145638c-5.359144,-1.436952 -9.645113,-4.069734 -9.645113,-4.069734c-3.85096,-2.077022 -7.658877,-5.272929 -7.658877,-5.272929c-2.893458,-2.436228 -3.110835,-3.624314 -3.110835,-3.624314l-0.000889,-0.003301z"/>
   <circle stroke="null" transform="matrix(0.0126972871493862,0,0,0.0126972871493862,-151.3710204952546,-151.3710204952546) " id="svg_71" fill="#b7b9c8" r="128.600006" cy="13181.634413" cx="13181.634306"/>
   <ellipse stroke="null" transform="matrix(0.0126972871493862,0,0,0.0126972871493862,-151.3710204952546,-151.3710204952546) " id="svg_72" fill="#b7b9c8" ry="77.16" rx="74.59" cy="12687.804413" cx="13708.894306"/>
   <ellipse stroke="null" transform="matrix(0.0126972871493862,0,0,0.0126972871493862,-151.3710204952546,-151.3710204952546) " id="svg_73" fill="#b7b9c8" ry="77.16" rx="74.59" cy="12950.154413" cx="12484.614306"/>
   <ellipse stroke="null" transform="matrix(0.0126972871493862,0,0,0.0126972871493862,-151.3710204952546,-151.3710204952546) " id="svg_74" fill="#b7b9c8" ry="77.16" rx="74.59" cy="13896.654413" cx="13029.884306"/>
  </g>
 </g>
</svg>