<svg width="32" height="32" xmlns="http://www.w3.org/2000/svg" fill="none">
 <g id="Layer_1">
  <title>Layer 1</title>
  <path id="svg_4" d="m16,32c-8.83978,0 -16,-7.16022 -16,-16c0,-8.83978 7.16022,-16 16,-16c8.83978,0 16,7.16022 16,16c0,8.83978 -7.16022,16 -16,16z" opacity="undefined" stroke="null" fill="#ffffff"/>
  <g stroke="null">
   <path stroke="null" fill="#CCCCCC" d="m27.4859,7.74032l-16.82817,0c-0.61896,0 -1.12077,0.50176 -1.12077,1.12077l0,10.16249c0,0.61896 0.50176,1.12077 1.12077,1.12077l16.82822,0c0.61896,0 1.12077,-0.50181 1.12077,-1.12077l0,-10.16249c-0.00005,-0.61901 -0.50181,-1.12077 -1.12082,-1.12077z"/>
   <rect stroke="null" fill="#4D4D4D" height="2.89813" width="19.06971" y="10.23282" x="9.53716"/>
   <path stroke="null" fill="#FFCA6C" d="m21.34207,11.85565l-16.82817,0c-0.61901,0 -1.12077,0.50181 -1.12077,1.12077l0,10.16249c0,0.61896 0.50176,1.12077 1.12077,1.12077l16.82822,0c0.61896,0 1.12077,-0.50176 1.12077,-1.12077l0,-10.16249c-0.00005,-0.61896 -0.50181,-1.12077 -1.12082,-1.12077z"/>
   <rect stroke="null" x="3.39313" fill="#4D4D4D" height="2.89813" width="19.06971" y="14.34819"/>
   <circle stroke="null" fill="#47A7DD" r="1.7389" cy="20.89795" cx="8.89958"/>
   <circle stroke="null" fill="#FC583D" r="1.7389" cy="20.89795" cx="7.16068"/>
   <g stroke="null">
    <rect stroke="null" fill="#4D4D4D" height="0.86942" width="7.30331" y="18.68148" x="13.48731"/>
    <rect stroke="null" fill="#4D4D4D" height="0.86942" width="4.58719" y="20.39196" x="16.20289"/>
   </g>
   <g stroke="null"/>
   <g stroke="null"/>
   <g stroke="null"/>
   <g stroke="null"/>
   <g stroke="null"/>
   <g stroke="null"/>
   <g stroke="null"/>
   <g stroke="null"/>
   <g stroke="null"/>
   <g stroke="null"/>
   <g stroke="null"/>
   <g stroke="null"/>
   <g stroke="null"/>
   <g stroke="null"/>
   <g stroke="null"/>
  </g>
 </g>

</svg>