<svg width="32" height="32" xmlns="http://www.w3.org/2000/svg">
 <!-- Created with SVG Editor - http://github.com/mzalive/SVG Editor/ -->

 <g>
  <title>background</title>
  <rect fill="none" id="canvas_background" height="34" width="34" y="-1" x="-1"/>
  <g display="none" overflow="visible" y="0" x="0" height="100%" width="100%" id="canvasGrid">
   <rect fill="url(#gridpattern)" stroke-width="0" y="0" x="0" height="100%" width="100%"/>
  </g>
 </g>
 <g>
  <title>Layer 1</title>
  <style transform="matrix(0.1619707723254038,0,0,0.1619707723254038,0,0) " type="text/css">.st0{fill:#FF007A;}
	.st1{fill-rule:evenodd;clip-rule:evenodd;fill:#FF007A;}</style>
  <style transform="matrix(0.011147959669575214,0,0,0.011147959669575214,0,0) " type="text/css">.st0{fill:#0AC18E;}
	.st1{fill:#FFFFFF;}</style>
  <g stroke="null" id="svg_51">
   <circle stroke="null" transform="matrix(0.04043335308079966,0,0,0.04043335308079966,0.000002681158168944234,0.000002681158168944234) " id="svg_50" r="394" cy="395.71285" cx="395.71285" class="st0"/>
   <path stroke="null" d="m20.969259,10.650667c-0.80058,-1.815458 -2.640298,-2.203618 -4.892436,-1.827588l-0.723757,-2.806075l-1.706288,0.440724l0.711627,2.797988c-0.44881,0.113213 -0.90975,0.210253 -1.366647,0.33964l-0.711627,-2.781815l-1.706288,0.440724l0.723757,2.806075c-0.367944,0.105127 -3.444922,0.893577 -3.444922,0.893577l0.469027,1.827588c0,0 1.253434,-0.35177 1.241304,-0.323467c0.695454,-0.18195 1.022964,0.165777 1.176611,0.493287l1.989321,7.690424c0.02426,0.222383 -0.016173,0.602457 -0.493287,0.731844c0.028303,0.016173 -1.241304,0.319423 -1.241304,0.319423l0.185993,2.130838c0,0 3.048675,-0.780364 3.448965,-0.881447l0.731844,2.838421l1.706288,-0.440724l-0.731844,-2.858638c0.469027,-0.10917 0.925924,-0.222383 1.370691,-0.33964l0.7278,2.842465l1.706288,-0.440724l-0.731844,-2.834378c2.628168,-0.638847 4.484059,-2.296614 4.103985,-4.831786c-0.2426,-1.528381 -1.912498,-2.781815 -3.299362,-2.923331c0.853144,-0.756104 1.285781,-1.859934 0.756104,-3.303405l0,0zm-0.820797,6.69172c0.33964,2.510911 -3.149758,2.818205 -4.302109,3.121455l-1.002747,-3.756259c1.156394,-0.30325 4.730702,-1.576901 5.304856,0.634804zm-2.102534,-5.114819c0.359857,2.231921 -2.624125,2.490695 -3.586438,2.737338l-0.913794,-3.408532c0.966357,-0.238557 3.768389,-1.394951 4.500232,0.671194z" class="st1" id="svg_48"/>
  </g>
 </g>
</svg>