<svg width="32" height="32" xmlns="http://www.w3.org/2000/svg">
 <title>Asset 1</title>

 <g>
  <title>Layer 1</title>
  <g stroke="null">
   <path stroke="null" fill="#eab300" d="m31.82441,16.00063c0,8.739 -7.08541,15.82441 -15.82821,15.82568c-8.73647,0 -15.82188,-7.08667 -15.82061,-15.82694c-0.00253,-8.74027 7.08287,-15.82568 15.82314,-15.82568s15.82568,7.08667 15.82568,15.82694z"/>
   <g stroke="null" fill="#fff">
    <path stroke="null" d="m22.22569,12.12367c-0.20385,-2.11954 -2.03345,-2.82986 -4.34544,-3.03244l0,-2.94128l-1.78908,0l0,2.86278c-0.46974,0 -0.95088,0.00886 -1.42822,0.01899l0,-2.88177l-1.78908,0l-0.00127,2.93875c-0.38744,0.0076 -0.76856,0.01519 -1.13954,0.01519l0,-0.00886l-2.46774,-0.00127l0,1.91189s1.32187,-0.02532 1.29908,-0.00127c0.72551,0 0.96101,0.42036 1.02938,0.78375l0,3.35025c0.05065,0 0.11522,0.00253 0.18866,0.01266l-0.18866,0l-0.00127,4.69364c-0.03165,0.22791 -0.16587,0.59129 -0.67233,0.59256c0.02279,0.02026 -1.30034,0 -1.30034,0l-0.35579,2.13727l2.32973,0c0.43303,0 0.85972,0.0076 1.27755,0.01013l0.00127,2.9742l1.78781,0l0,-2.94254c0.49,0.01013 0.96481,0.01393 1.42949,0.01393l-0.00127,2.92862l1.78908,0l0,-2.96787c3.00838,-0.1722 5.11653,-0.93062 5.37736,-3.75668c0.21145,-2.27528 -0.85845,-3.292 -2.5665,-3.70224c1.03951,-0.52672 1.68905,-1.45734 1.53711,-3.00838zm-2.50446,6.35863c0,2.2221 -3.8048,1.97014 -5.01904,1.97014l0,-3.94154c1.21424,0.00253 5.01904,-0.34566 5.01904,1.9714zm-0.83313,-5.55969c0,2.02205 -3.17552,1.78528 -4.18591,1.78655l0,-3.57309c1.01166,0 4.18718,-0.3216 4.18591,1.78655z"/>
    <path stroke="null" d="m11.59631,15.05988l0.26589,0l0,0.19625l-0.26589,0l0,-0.19625z"/>
   </g>
  </g>
 </g>
</svg>