<svg width="32" height="32" xmlns="http://www.w3.org/2000/svg">
 <title>Asset 1</title>

 <g>
  <title>Layer 1</title>
  <ellipse stroke-width="0" ry="16" rx="16" id="svg_7" cy="16" cx="16" stroke="#000" fill="#fff"/>
  <g stroke="null">
   <path stroke="null" fill="#00206b" d="m15.15355,0.00876l1.6663,0c1.73826,0.11514 3.46692,0.46215 5.08204,1.1146c3.99783,1.57195 7.29684,4.83258 8.90717,8.81762c2.2164,5.30592 1.26491,11.77761 -2.43548,16.19282c-2.50424,3.07353 -6.18704,5.1668 -10.11771,5.69931c-3.6892,0.52611 -7.5607,-0.26865 -10.71739,-2.26277c-2.43388,-1.51598 -4.44879,-3.6972 -5.75368,-6.25261c-1.67429,-3.20946 -2.18282,-7.0026 -1.44722,-10.54308c0.78677,-3.92427 3.1295,-7.50473 6.39653,-9.81228c2.44667,-1.77024 5.41306,-2.7665 8.41943,-2.9536m-0.99146,0.72441c-4.86456,0.5581 -9.33574,3.62204 -11.65448,7.9301c-1.56875,2.86405 -2.19561,6.24142 -1.72227,9.47646c0.53571,3.89549 2.65456,7.53991 5.75688,9.9514c2.36192,1.86299 5.28353,3.00637 8.28351,3.23025c3.39816,0.27025 6.87787,-0.63645 9.69874,-2.55062c3.45892,-2.28996 5.91359,-6.03513 6.61881,-10.12411c0.40618,-2.40989 0.26865,-4.92053 -0.47654,-7.25047c-1.06342,-3.38856 -3.34219,-6.38374 -6.33257,-8.3027c-2.97279,-1.95094 -6.6428,-2.79688 -10.17208,-2.36032z" class="st0"/>
   <path stroke="null" fill="#00206b" d="m14.54748,7.03055c2.78089,-0.46535 5.76327,0.44616 7.76379,2.44188c1.77504,1.67589 2.81128,4.11137 2.7601,6.55325c0.03518,2.42908 -1.00585,4.84537 -2.7729,6.50687c-1.92376,1.91256 -4.75262,2.82567 -7.43437,2.47226c-2.52663,-0.30384 -4.89175,-1.73986 -6.32777,-3.84272c-1.58954,-2.25158 -2.0277,-5.24835 -1.20255,-7.87253c0.96588,-3.23025 3.88269,-5.75528 7.21369,-6.25901m0.5549,0.5533c0.0016,0.79477 0.0032,1.58954 0.0016,2.38431c0.39658,0 0.79317,0 1.18975,0.0016c0.0016,-0.81556 0.0032,-1.63112 0,-2.44507c-0.39658,0.01279 -0.79477,0.03198 -1.19135,0.05917m2.86085,2.42269c1.04423,0.14072 2.16682,0.30064 2.99997,1.00585c1.27131,1.14178 1.1066,3.53888 -0.44936,4.36723c0.93229,0.21748 1.85499,0.83954 2.08527,1.81821c0.29904,1.2841 0.06077,2.82567 -0.97067,3.73078c-1.02185,0.84114 -2.4051,0.95148 -3.66841,1.07142c0.0064,0.7436 0.0032,1.48719 0.0016,2.23239c2.65936,-0.65085 4.95411,-2.63057 5.92958,-5.19238c0.9259,-2.36352 0.70682,-5.14441 -0.59967,-7.32083c-1.15457,-1.96374 -3.11831,-3.40615 -5.32351,-3.95945c-0.0064,0.74839 -0.0064,1.49679 -0.0048,2.24678m-7.9365,-0.03198c1.15138,0.05597 2.30435,0.04318 3.45733,0.04158c0,-0.70202 0.0016,-1.40244 -0.0032,-2.10446c-1.2905,0.41897 -2.44028,1.17057 -3.45413,2.06288m-0.13753,0.09275c-0.30543,0.3758 -0.87153,1.08581 -1.20735,1.71427c-1.35447,2.30755 -1.50798,5.26914 -0.3774,7.69663c0.97547,2.17642 2.91042,3.8699 5.17639,4.59911c0.0032,-0.70042 0.0016,-1.40084 0.0016,-2.09966c-1.15617,-0.01119 -2.31554,0.03038 -3.47012,-0.03198c0.01279,-0.64445 0.16471,-1.27451 0.38379,-1.88218c0.56609,-0.01119 1.15617,0.08795 1.70308,-0.09755c0.31983,-0.26865 0.22868,-0.71321 0.24627,-1.08101c-0.01759,-2.10286 0.008,-4.20572 -0.01119,-6.30698c0.02079,-0.33902 -0.1919,-0.70522 -0.54371,-0.77238c-0.58049,-0.11674 -1.17856,-0.07036 -1.76544,-0.07516c-0.06876,-0.47334 -0.07676,-0.95148 -0.08315,-1.42962c0,0 0.008,-0.15032 -0.04318,-0.24787l-0.00959,0.01439zm5.26275,1.80702l0,3.09912c1.03464,-0.01919 2.18282,0.09595 3.08793,-0.50533c0.75159,-0.49253 0.70362,-1.73826 -0.07196,-2.18122c-0.90671,-0.53571 -2.01171,-0.38379 -3.01596,-0.41258m0,4.76701l0,3.43814c1.27771,-0.10234 2.71053,0.11194 3.82193,-0.65884c0.79477,-0.52771 0.69882,-1.83421 -0.11993,-2.29156c-1.113,-0.66524 -2.46586,-0.45415 -3.70199,-0.48774m-0.04637,5.38268c0,0.79477 -0.0016,1.59114 -0.0032,2.38591c0.41418,0.02719 0.82675,0.04318 1.24093,0.05597c0.0032,-0.81396 0.0016,-1.62792 0.0016,-2.44188l-1.23933,0z" class="st0"/>
   <path stroke="null" fill="#eba809" d="m14.25484,1.56312c2.80168,-0.30064 5.70251,0.12633 8.21954,1.41843c3.23824,1.58794 5.82724,4.44239 7.10335,7.81496c1.30169,3.37737 1.27291,7.24087 -0.07516,10.60225c-2.05009,5.29793 -7.46315,9.10706 -13.16246,9.11506c-3.34699,0.12153 -6.71476,-1.00426 -9.33574,-3.08633c-2.79528,-2.17322 -4.72864,-5.42106 -5.32511,-8.91197c-0.60927,-3.45733 0.07356,-7.13053 1.92216,-10.11931c2.25957,-3.74837 6.30698,-6.33896 10.65342,-6.83309m-0.48774,4.69186c-2.27717,0.51332 -4.35924,1.85819 -5.75528,3.73078c-1.54156,2.0277 -2.24838,4.66467 -1.93335,7.1897c0.29584,2.70253 1.77184,5.25155 3.96745,6.85228c2.05489,1.54476 4.72544,2.22279 7.26806,1.87418c3.1423,-0.38379 6.03193,-2.38431 7.49833,-5.19079c1.0986,-2.00211 1.39924,-4.38162 0.99626,-6.61561c-0.51332,-2.70893 -2.2052,-5.17 -4.55913,-6.60602c-2.20361,-1.37206 -4.95411,-1.81182 -7.48234,-1.23453z" class="st1"/>
  </g>
 </g>
</svg>