<svg width="32" height="32" xmlns="http://www.w3.org/2000/svg">
 <!-- Created with SVG Editor - http://github.com/mzalive/SVG Editor/ -->

 <g>
  <title>background</title>
  <rect fill="none" id="canvas_background" height="34" width="34" y="-1" x="-1"/>
  <g display="none" overflow="visible" y="0" x="0" height="100%" width="100%" id="canvasGrid">
   <rect fill="url(#gridpattern)" stroke-width="0" y="0" x="0" height="100%" width="100%"/>
  </g>
 </g>
 <g>
  <title>Layer 1</title>
  <defs>
   <style>.cls-1{fill:#f0b90b;stroke:#f0b90b;}</style>
  </defs>
  <ellipse ry="16" rx="16" id="svg_13" cy="16" cx="16" stroke-width="0" stroke="#000" fill="#fff"/>
  <g stroke="null" id="svg_12">
   <g stroke="null" transform="matrix(0.060076620743183436,0,0,0.060076620743183436,-53.822856973213966,-53.798307303355536) " id="svg_5">
    <g stroke="null" id="svg_6">
     <path stroke="null" id="svg_8" d="m1162.230117,993.821454l41.5,42.5l-104.5,104.5l-41.5,-41.5l104.5,-105.5z" class="cls-1"/>
     <path stroke="null" id="svg_9" d="m1225.230117,1056.821454l41.5,42.5l-167.5,167.5l-41.5,-41.5l167.5,-168.5z" class="cls-1"/>
     <path stroke="null" id="svg_10" d="m1036.230117,1119.821454l41.5,42.5l-41.5,41.5l-41.5,-41.5l41.5,-42.5z" class="cls-1"/>
     <path stroke="null" id="svg_11" d="m1288.230117,1119.821454l41.5,42.5l-167.5,167.5l-41.5,-41.5l167.5,-168.5z" class="cls-1"/>
    </g>
   </g>
  </g>
 </g>
</svg>