<svg width="32" height="32" xmlns="http://www.w3.org/2000/svg" clip-rule="evenodd" fill-rule="evenodd" image-rendering="optimizeQuality" text-rendering="geometricPrecision" shape-rendering="geometricPrecision" version="1.1" xml:space="preserve">

 <g>
  <title>Layer 1</title>
  <g stroke="null" id="Layer_x0020_1">
   <metadata stroke="null" id="CorelCorpID_0Corel-Layer"/>
   <path stroke="null" id="svg_1" d="m16,0.07011c8.79864,0 15.92989,7.13268 15.92989,15.92989c0,8.79864 -7.13125,15.92989 -15.92989,15.92989c-8.79721,0 -15.92989,-7.13196 -15.92989,-15.92989c0,-8.79721 7.13268,-15.92989 15.92989,-15.92989z" fill-rule="nonzero" fill="#F5AC37"/>
   <path stroke="null" id="svg_2" d="m16.5871,17.12474l6.0531,0c0.12903,0 0.18997,0 0.19928,-0.16918c0.04946,-0.61578 0.04946,-1.23514 0,-1.85163c0,-0.11971 -0.0595,-0.16918 -0.18925,-0.16918l-12.0467,0c-0.14911,0 -0.18925,0.04946 -0.18925,0.18925l0,1.77206c0,0.22868 0,0.22868 0.23871,0.22868l5.9341,0zm5.57639,-4.26097c0.0172,-0.04516 0.0172,-0.09462 0,-0.13907c-0.10108,-0.22007 -0.22079,-0.43011 -0.35986,-0.62725c-0.20932,-0.33692 -0.45592,-0.64732 -0.73692,-0.92617c-0.13262,-0.16846 -0.28602,-0.31972 -0.45807,-0.44803c-0.86166,-0.73334 -1.88604,-1.25234 -2.98712,-1.51328c-0.55556,-0.12473 -1.12331,-0.18423 -1.69249,-0.17921l-5.34628,0c-0.14911,0 -0.16918,0.0595 -0.16918,0.18925l0,3.53408c0,0.14911 0,0.18925 0.18925,0.18925l11.48899,0c0,0 0.09964,-0.02007 0.11971,-0.07957l-0.04875,0l0.00072,0zm0,6.33196c-0.16918,-0.01864 -0.33979,-0.01864 -0.50897,0l-11.04096,0c-0.14911,0 -0.19928,0 -0.19928,0.19928l0,3.45523c0,0.15914 0,0.19928 0.19928,0.19928l5.09754,0c0.24373,0.01864 0.48746,0.00143 0.72617,-0.04946c0.73979,-0.05305 1.4674,-0.21362 2.16131,-0.47814c0.25233,-0.08746 0.49606,-0.20144 0.72617,-0.33835l0.06953,0c1.19499,-0.62151 2.16561,-1.59786 2.7778,-2.79644c0,0 0.06953,-0.15054 -0.0086,-0.18997l0,-0.00143zm-13.74994,5.64521l0,-0.0595l0,-2.31973l0,-0.78639l0,-2.33981c0,-0.12975 0,-0.14911 -0.15914,-0.14911l-2.16059,0c-0.11971,0 -0.16918,0 -0.16918,-0.15914l0,-1.89177l2.3097,0c0.12903,0 0.17921,0 0.17921,-0.16918l0,-1.8717c0,-0.11971 0,-0.14911 -0.15914,-0.14911l-2.16059,0c-0.11971,0 -0.16918,0 -0.16918,-0.15914l0,-1.75199c0,-0.10968 0,-0.13907 0.15914,-0.13907l2.14052,0c0.14911,0 0.18925,0 0.18925,-0.18925l0,-5.36636c0,-0.15914 0,-0.19928 0.19928,-0.19928l7.46673,0c0.54194,0.02151 1.0803,0.081 1.61292,0.17921c1.0975,0.20287 2.15199,0.59499 3.11616,1.15485c0.63943,0.37635 1.22797,0.83083 1.75199,1.35413c0.39427,0.40932 0.74983,0.85234 1.06524,1.32403c0.31326,0.47814 0.57348,0.98926 0.77778,1.52331c0.02509,0.13907 0.15842,0.23298 0.29749,0.20932l1.78209,0c0.22868,0 0.22868,0 0.23871,0.21936l0,1.63299c0,0.15914 -0.0595,0.19928 -0.21936,0.19928l-1.37421,0c-0.13907,0 -0.17921,0 -0.16918,0.17921c0.05448,0.60646 0.05448,1.21506 0,1.82152c0,0.16918 0,0.18925 0.18997,0.18925l1.57206,0c0.06953,0.08961 0,0.17921 0,0.26954c0.01004,0.11541 0.01004,0.23226 0,0.34767l0,1.20503c0,0.16918 -0.04946,0.21936 -0.19928,0.21936l-1.88174,0c-0.13118,-0.02509 -0.25878,0.05878 -0.28889,0.18925c-0.44803,1.16488 -1.16488,2.20934 -2.09106,3.04662c-0.33835,0.30466 -0.69391,0.5914 -1.06524,0.85592c-0.39857,0.22939 -0.78639,0.4681 -1.19499,0.65735c-0.75198,0.33835 -1.54052,0.58782 -2.34984,0.74624c-0.76847,0.13764 -1.54768,0.2 -2.32977,0.18925l-6.90974,0l0,-0.01004l0.00287,-0.00215z" fill-rule="nonzero" fill="#FEFEFD"/>
  </g>
 </g>
</svg>