<svg width="32" height="32" xmlns="http://www.w3.org/2000/svg" clip-rule="evenodd" xml:space="preserve">

 <g>
  <title>Layer 1</title>
  <g stroke="null" id="Слой_x0020_1">
   <metadata stroke="null" id="CorelCorpID_0Corel-Layer"/>
   <g stroke="null" id="_237266624">
    <path stroke="null" fill="white" d="m31.68273,16.00925c0,8.65631 -7.02143,15.68125 -15.67144,15.68125c-8.65103,0 -15.67227,-7.02494 -15.67227,-15.68125c0,-8.65631 7.02124,-15.68014 15.67227,-15.68014c8.65011,0 15.67144,7.02383 15.67144,15.68014z" class="fil0" id="_237266672"/>
    <path stroke="null" fill="#1E3262" d="m0.05674,16.00925c0,8.7868 7.15359,15.94205 15.95446,15.94205c8.77986,0 15.93206,-7.15525 15.93206,-15.94205c0,-8.80633 -7.15229,-15.96056 -15.93206,-15.96056c-8.80087,0 -15.95446,7.15414 -15.95446,15.96056zm0.54456,0c0,-8.50397 6.90916,-15.41915 15.4099,-15.41915c8.48176,0 15.39111,6.91518 15.39111,15.41915c0,8.48685 -6.90935,15.39824 -15.39111,15.39824c-8.50073,0 -15.4099,-6.91148 -15.4099,-15.39824z" class="fil1" id="_236015560"/>
    <path stroke="null" fill="#1E3262" d="m5.01849,11.62372c4.08225,-2.65912 8.59578,-4.23181 16.2346,-2.90049c0.41184,-0.24498 0.6546,-0.48884 0.76927,-0.97547c-1.9117,-0.69236 -3.9885,-0.93623 -6.6653,-0.89967c-2.39869,0.07571 -6.72444,0.97297 -9.044,2.34325l0.70893,-0.88014c1.61063,-0.95825 5.82301,-2.21165 8.98921,-2.26894c2.22673,-0.05479 3.36907,0.07441 6.02884,0.78639c-0.24498,-0.44627 -0.78685,-0.6732 -1.59231,-1.04738c-2.56398,-1.14354 -7.33943,-1.25691 -11.25194,0.48533c0.48533,-0.33669 0.97241,-0.63766 1.61063,-0.91448c1.2893,-0.60101 3.40701,-1.1825 6.04596,-1.1266c2.11771,0.03785 4.6269,0.76825 6.16118,2.28624c0.2608,0.31689 0.41184,0.63498 0.46821,0.88014c1.21739,0.61823 1.92743,1.19842 2.32067,1.87273c0.17001,0.35604 0.2261,0.73021 0.14984,1.16066c0.5055,0.29866 0.75067,0.56214 1.01388,0.90226c0.16594,0.28033 0.29681,0.59611 0.33595,0.88144c0.05479,0.37186 0.09209,0.80333 -0.30125,1.30948c0.41212,0.20713 0.74807,0.785 0.78843,1.03118c0.20463,0.91457 -0.39509,1.81415 -1.16149,2.50901c-0.90032,0.78519 -2.88522,1.72299 -4.49567,2.13613c-3.18091,0.8037 -6.00996,1.14261 -8.25464,1.55483c1.01008,0.24257 2.37685,0.56288 4.60562,0.56288c4.7723,0 8.98587,-2.25043 8.98587,-2.25043c0,0 -0.09172,0.28394 -0.18704,0.54623c-3.03339,1.83469 -7.84373,2.60165 -9.90554,2.5079c-2.07847,-0.09514 -3.83727,-0.41203 -5.55989,-0.93762c-0.52485,0.15104 -1.04904,0.3205 -1.55334,0.52559c2.62192,1.19842 4.60543,1.46163 6.8342,1.62868c2.28282,0.17075 6.06724,-0.37529 9.24816,-1.53372c-0.14974,0.15113 -0.22434,0.37455 -0.37307,0.50597c-1.63072,0.86071 -5.07354,1.7228 -6.81541,1.79721c-1.72428,0.07534 -3.81997,0 -5.65559,-0.3379c-1.57297,-0.31707 -2.86643,-0.80684 -4.21376,-1.40323c-0.24174,0.18417 -0.354,0.41221 -0.41203,0.67413c5.2641,2.75324 10.16745,2.80896 15.76862,1.067l-0.50856,0.48746c-6.15998,2.51058 -10.97133,1.53511 -14.69903,-0.26191c-0.12975,-0.05738 -0.27987,-0.11467 -0.39074,-0.18908c0.35604,0.60111 3.19952,2.67985 6.38302,2.94177c2.19286,0.18769 4.86938,-0.18778 6.46113,-0.82276l-0.93512,0.48533c-0.76936,0.37529 -2.80914,1.23868 -5.65707,1.05071c-3.80025,-0.26321 -5.9362,-1.94955 -6.89019,-2.8283c-0.45062,-0.4149 -0.65414,-0.88153 -0.78658,-1.46191c-0.86145,-0.44997 -1.40434,-0.91948 -1.85256,-1.63146c-0.2621,-0.39241 -0.20713,-0.85941 -0.15104,-1.2558l0.11504,-0.33392c-0.41332,-0.30217 -0.84414,-0.62063 -1.01249,-0.93641c-0.37603,-0.67524 -0.14873,-1.25811 0.11226,-1.70679c-0.22619,-0.26219 -0.43239,-0.52429 -0.52318,-0.78639c-0.11198,-0.29995 -0.13105,-0.6024 -0.09616,-0.93762c0.07496,-0.56076 0.37603,-1.08495 0.76936,-1.53595c0.82221,-0.95474 2.13585,-1.70457 4.36156,-2.43488c2.19267,-0.73151 3.073,-0.84488 4.72075,-1.22035c1.92743,-0.44766 4.23107,-0.59639 6.16007,-1.27051c-5.37618,-0.93632 -10.95384,-0.07534 -15.50467,3.05033l0.29829,-0.88014l0.00009,0zm18.31187,-3.31252c-0.07487,0.2621 -0.35261,0.58038 -0.54169,0.78769c0.58093,0.14993 1.18009,0.37196 1.74048,0.57908c-0.07395,-0.52448 -0.6732,-1.03026 -1.1987,-1.36677l-0.00009,0zm-16.55038,10.75079c-0.35705,-0.18528 -0.58139,-0.3354 -0.88135,-0.5242c-0.14984,0.33891 0.15234,0.71059 0.45044,0.88125c0.12994,-0.13142 0.29995,-0.24368 0.43091,-0.35705zm18.1065,-7.02494c0.39185,0.18769 0.75039,0.31939 1.08616,0.56316c0.24192,-0.46941 0.09199,-0.76936 -0.41073,-1.19971c-0.20731,0.24507 -0.4335,0.45007 -0.67542,0.63655zm-1.14381,0.69486c-0.78389,0.37436 -1.90735,0.74733 -3.51779,1.14261c-1.32984,0.33614 -4.55083,0.80425 -8.01374,1.55316c-1.08653,0.24387 -4.06559,0.93604 -5.52611,2.17231c0.41203,0.3403 0.67413,0.41332 1.12364,0.67561c0.59926,-0.39389 1.42322,-0.76807 2.642,-1.08875c2.11336,-0.55964 3.70678,-0.80222 5.61792,-1.1191c1.89041,-0.28533 5.46558,-1.03285 7.43207,-1.74603c0.65664,-0.22314 1.25469,-0.52309 1.68449,-0.88144c-0.1317,-0.14743 -1.40462,-0.76566 -1.44247,-0.70837zm-14.95872,8.28074c0.2981,-0.18889 0.65284,-0.35835 1.04608,-0.50726c-0.54215,-0.24498 -1.12234,-0.48533 -1.68449,-0.74854c-0.26191,0.16853 -0.50402,0.33669 -0.69125,0.50356c0.44822,0.26339 0.88033,0.50615 1.32965,0.75224zm-1.81794,0.16594c-0.01879,0.35724 0.20731,0.67524 0.67552,1.06922c0.05479,-0.18926 0.14984,-0.33669 0.28089,-0.52429c-0.31911,-0.17075 -0.63813,-0.3378 -0.9564,-0.54493zm2.67791,-6.55572c3.8953,-1.14363 7.97801,-1.49837 12.11644,-2.60294c-1.61054,-0.43054 -2.51215,-0.61934 -4.21219,-0.41203c-2.47328,0.29977 -5.20728,0.82156 -7.54683,1.5166c-0.91929,0.28172 -5.73074,1.64839 -4.34342,3.55879c0,0.01944 0.82119,-1.14113 3.986,-2.06042zm14.58834,-3.99155c-0.63951,-0.27931 -1.42581,-0.56214 -2.26588,-0.78509c-0.37732,0.29986 -0.80518,0.56066 -1.44488,0.80694c1.05173,0.18417 1.83803,0.48412 2.73399,0.7291c0.15011,0.07552 0.86154,-0.57788 0.97676,-0.75094zm1.92734,3.74787c-0.13086,0.11208 -0.26191,0.2049 -0.39167,0.31939c-0.88144,0.67163 -2.28606,1.21665 -4.21358,1.72391c-4.00618,1.08505 -6.91157,1.23248 -10.20771,2.042c-0.65414,0.16724 -1.32808,0.37307 -1.94446,0.63535c0.61638,0.3192 1.29032,0.59972 1.96463,0.86302c1.34715,-0.39241 1.98666,-0.56196 3.9313,-0.88033c0.74909,-0.13392 3.03395,-0.54474 4.68151,-0.87885c2.97916,-0.64007 7.34146,-2.02636 6.17997,-3.8245z" class="fil1" id="_234762200"/>
   </g>
  </g>
 </g>
</svg>