<svg width="32" height="32" xmlns="http://www.w3.org/2000/svg">
 <!-- Created with SVG Editor - http://github.com/mzalive/SVG Editor/ -->

 <g>
  <title>background</title>
  <rect fill="none" id="canvas_background" height="34" width="34" y="-1" x="-1"/>
  <g display="none" overflow="visible" y="0" x="0" height="100%" width="100%" id="canvasGrid">
   <rect fill="url(#gridpattern)" stroke-width="0" y="0" x="0" height="100%" width="100%"/>
  </g>
 </g>
 <g>
  <title>Layer 1</title>
  <defs>
   <style>.cls-1 {
        fill: #db0020;
        fill-rule: evenodd;
      }</style>
  </defs>
  <ellipse ry="16" rx="16" id="svg_7" cy="16" cx="16" stroke-width="0" stroke="#000" fill="#fff"/>
  <g stroke="null" id="svg_6">
   <path stroke="null" d="m15.043514,4.803724c5.951643,-0.110724 10.17034,2.686519 11.919658,6.749686c1.122746,2.607964 1.272818,6.52192 0.14361,9.191061c-0.224894,0.531358 -0.39895,1.761955 -0.861662,2.010545l-5.600803,0l0,-0.287221c1.447305,-0.75338 3.315819,-4.293949 2.584986,-7.180517c-0.717046,-2.832427 -3.908068,-6.998993 -8.329399,-5.888024c-3.481115,0.874731 -7.459839,4.861353 -5.600803,9.909113c0.507088,1.37708 1.831319,2.207147 2.297765,3.446648l-5.600803,0c-0.356584,-1.308003 -1.218103,-2.467944 -1.579714,-3.877479c-1.511068,-5.889316 3.015817,-11.407256 6.462465,-12.92493a18.291648,18.291648 0 0 1 2.441376,-0.861662c0.593685,-0.16429 1.275547,-0.006032 1.723324,-0.287221zm-2.728596,13.642982l7.754958,0l0,0.14361c-0.845578,0.952137 -1.151755,2.059516 -2.441376,2.584986c-2.335535,0.951706 -5.031101,-0.68933 -5.313582,-2.728596z" class="cls-1" id="svg_4"/>
  </g>
 </g>
</svg>