<svg width="16" height="16" viewBox="0 0 16 16" fill="none" xmlns="http://www.w3.org/2000/svg">
<path d="M13.4739 5.05273H1.68439C1.21931 5.05273 0.842285 5.42976 0.842285 5.89484V14.3159C0.842285 14.781 1.21931 15.158 1.68439 15.158H13.4739C13.9389 15.158 14.316 14.781 14.316 14.3159V5.89484C14.316 5.42976 13.9389 5.05273 13.4739 5.05273Z" stroke="#848587" stroke-width="1.68421"/>
<path d="M10.0934 1.37595L4.21045 5.05258H12.6315L11.3212 1.77679C11.2754 1.66249 11.205 1.55962 11.1151 1.47545C11.0252 1.39128 10.918 1.32785 10.8009 1.28963C10.6838 1.25141 10.5598 1.23933 10.4376 1.25425C10.3153 1.26916 10.1978 1.3107 10.0934 1.37595ZM10.9473 10.1052C10.9473 9.65853 11.1247 9.23015 11.4406 8.9143C11.7564 8.59845 12.1848 8.421 12.6315 8.421H15.1578V11.7894H12.6315C12.1848 11.7894 11.7564 11.612 11.4406 11.2961C11.1247 10.9803 10.9473 10.5519 10.9473 10.1052Z" fill="white" stroke="#848587" stroke-width="1.68421"/>
</svg>
