<svg width="16" height="12" viewBox="0 0 16 12" fill="none" xmlns="http://www.w3.org/2000/svg">
<g clip-path="url(#clip0)">
<path fill-rule="evenodd" clip-rule="evenodd" d="M14 0H2C1.46957 0 0.960859 0.210714 0.585786 0.585786C0.210714 0.960859 0 1.46957 0 2L0 10C0 10.5304 0.210714 11.0391 0.585786 11.4142C0.960859 11.7893 1.46957 12 2 12H14C14.5304 12 15.0391 11.7893 15.4142 11.4142C15.7893 11.0391 16 10.5304 16 10V2C16 1.46957 15.7893 0.960859 15.4142 0.585786C15.0391 0.210714 14.5304 0 14 0V0ZM1.6 2C1.6 1.78 1.78 1.6 2 1.6H14C14.22 1.6 14.4 1.78 14.4 2V3.5H1.6V2ZM1.6 5.1H14.4V10C14.4 10.1061 14.3579 10.2078 14.2828 10.2828C14.2078 10.3579 14.1061 10.4 14 10.4H2C1.89391 10.4 1.79217 10.3579 1.71716 10.2828C1.64214 10.2078 1.6 10.1061 1.6 10V5.1ZM3.8 7C3.58783 7 3.38434 7.08429 3.23431 7.23431C3.08429 7.38434 3 7.58783 3 7.8C3 8.01217 3.08429 8.21566 3.23431 8.36569C3.38434 8.51571 3.58783 8.6 3.8 8.6H5.2C5.41217 8.6 5.61566 8.51571 5.76569 8.36569C5.91571 8.21566 6 8.01217 6 7.8C6 7.58783 5.91571 7.38434 5.76569 7.23431C5.61566 7.08429 5.41217 7 5.2 7H3.8Z" fill="#848587"/>
</g>
<defs>
<clipPath id="clip0">
<rect width="16" height="12" fill="white"/>
</clipPath>
</defs>
</svg>
