<svg width="32" height="32" xmlns="http://www.w3.org/2000/svg" xml:space="preserve" version="1.1">
 <g>
  <title>Layer 1</title>
  <g id="фон"/>
  <g id="примеры"/>
  <g stroke="null" id="svg_6">
   <ellipse stroke="#000" stroke-width="0" ry="15.92243" rx="15.92243" id="svg_5" cy="16" cx="16" fill="#d6eabf"/>
   <g stroke="null" id="лого">
    <g stroke="null" id="svg_2">
     <path stroke="null" id="svg_3" fill="#FFFFFF" d="m11.62133,6.34703c1.09467,0 1.89079,0.89564 1.89079,1.89079l0,5.47333l0.39806,-0.39806l0.69661,-0.69661l0.09952,-0.09952l1.09467,-1.09467l0.99515,-0.99515l2.68691,-2.68691c0.39806,-0.39806 0.89564,-0.59709 1.39321,-0.59709c0.49758,0 0.99515,0.19903 1.39321,0.59709l0,0c0.69661,0.69661 0.69661,1.9903 0,2.68691l-3.38352,3.38352l4.87624,8.16024c0.49758,0.89564 0.29855,2.08982 -0.69661,2.58739c-0.29855,0.19903 -0.69661,0.29855 -0.99515,0.29855c-0.59709,0 -1.2937,-0.29855 -1.59224,-0.89564l-4.47818,-7.36412l-2.38836,2.08982l0,4.27915c0,1.09467 -0.89564,1.89079 -1.89079,1.89079l-0.29855,0c-1.09467,0 -1.89079,-0.89564 -1.89079,-1.89079l0,-14.72824c0,-1.09467 0.89564,-1.89079 1.89079,-1.89079l0.19903,0m0,-2.48788l-0.29855,0c-2.38836,0 -4.37867,1.9903 -4.37867,4.37867l0,14.72824c0,2.38836 1.9903,4.37867 4.37867,4.37867l0.29855,0c2.38836,0 4.37867,-1.9903 4.37867,-4.37867l0,-1.69176l2.38836,3.88109c0.79612,1.2937 2.18933,2.08982 3.68206,2.08982c0.79612,0 1.59224,-0.19903 2.28885,-0.59709c1.9903,-1.19418 2.68691,-3.88109 1.49273,-5.97091l-3.88109,-6.46849l2.08982,-2.08982c0.79612,-0.79612 1.2937,-1.89079 1.2937,-3.08497c0,-1.19418 -0.49758,-2.28885 -1.2937,-3.08497c-0.79612,-0.79612 -1.89079,-1.2937 -3.08497,-1.2937c-1.19418,0 -2.28885,0.49758 -3.08497,1.2937l-1.79127,1.79127c-0.39806,-2.08982 -2.28885,-3.88109 -4.47818,-3.88109l0,0z" class="st35"/>
     <path stroke="null" id="svg_4" fill="#76B729" d="m22.96606,24.65782c-0.89564,0.59709 -2.08982,0.29855 -2.58739,-0.69661l-4.47818,-7.36412l-2.38836,2.08982l0,4.27915c0,1.09467 -0.89564,1.89079 -1.89079,1.89079l-0.29855,0c-1.09467,0 -1.89079,-0.89564 -1.89079,-1.89079l0,-14.72824c0,-1.09467 0.89564,-1.89079 1.89079,-1.89079l0.29855,0c1.09467,0 1.89079,0.89564 1.89079,1.89079l0,5.47333l0.39806,-0.39806l0.69661,-0.69661l0.09952,-0.09952l1.09467,-1.09467l0.99515,-0.99515l2.68691,-2.68691c0.69661,-0.69661 1.9903,-0.69661 2.68691,0l0,0c0.69661,0.69661 0.69661,1.9903 0,2.68691l-3.38352,3.38352l4.87624,8.16024c0.49758,0.89564 0.19903,2.08982 -0.69661,2.68691z" class="st99"/>
    </g>
   </g>
  </g>
 </g>

</svg>