<svg width="32" height="32" xmlns="http://www.w3.org/2000/svg" fill="none">
 <defs>
  <linearGradient y2="1.017" x2="0.63772" y1="0.18502" x1="0.4229" id="paint0_linear_9619_13608">
   <stop stop-color="#F7D45C"/>
   <stop stop-color="#DE3633" offset="1"/>
  </linearGradient>
  <linearGradient y2="0.7624" x2="0.60333" y1="0.2287" x1="0.16807" id="paint1_linear_9619_13608">
   <stop stop-color="#F7D45C"/>
   <stop stop-color="#DE3633" offset="1"/>
  </linearGradient>
 </defs>
 <g>
  <title>Layer 1</title>
  <circle stroke="null" id="svg_1" fill="white" r="15.9348" cy="16" cx="16"/>
  <path stroke="null" id="svg_2" fill="#F2E373" d="m15.99996,29.06542c7.20662,0 13.04865,-5.84958 13.04865,-13.06538c0,-7.21588 -5.84203,-13.06546 -13.04865,-13.06546c-7.20653,0 -13.04856,5.84958 -13.04856,13.06546c0,7.2158 5.84203,13.06538 13.04856,13.06538z"/>
  <path stroke="null" id="svg_3" fill="url(#paint0_linear_9619_13608)" d="m21.07967,14.81662l-17.82929,5.31799c0.81343,2.59173 2.47392,4.98252 4.98947,6.74992c6.20864,4.35415 13.95311,2.50164 18.80797,-2.6976c0.1039,-0.11179 0,-0.29685 -0.14053,-0.23354c-0.91244,0.42855 -1.93753,0.55604 -2.92719,0.3642c-0.91973,-0.17537 -1.76577,-0.62271 -2.42863,-1.28411c-0.66278,-0.6614 -1.11192,-1.50641 -1.28917,-2.42589c-0.22993,-1.16348 -0.01622,-2.37098 0.59903,-3.38491c0.61533,-1.01394 1.58766,-1.76105 2.72591,-2.09437l-2.50756,-0.3117z" clip-rule="evenodd" fill-rule="evenodd"/>
  <path stroke="null" id="svg_4" fill="url(#paint1_linear_9619_13608)" d="m19.0203,13.77934c0.35211,-0.14457 0.69366,-0.31358 1.02226,-0.50568c1.60404,-0.92025 3.47526,-1.26232 5.30109,-0.96907c1.82591,0.29317 3.49594,1.20389 4.73123,2.58015c0.0193,0.02291 0.03097,0.05131 0.03329,0.08116c0.00232,0.02986 -0.00472,0.05971 -0.02025,0.08537c-0.01553,0.02565 -0.03861,0.04582 -0.06615,0.05766c-0.02754,0.01184 -0.05808,0.01476 -0.08743,0.00832c-2.22255,-0.4681 -4.61832,-0.56008 -6.44312,0.03663c-2.19981,0.72137 -3.81381,2.2869 -4.93105,4.22949c-1.63682,2.848 -2.31075,3.65346 -4.9549,4.68464c-4.60742,1.79906 -8.90615,0.16919 -10.35395,-3.92663c-0.92045,-2.95113 -0.77373,-6.13202 0.41449,-8.98586c1.18825,-2.85384 3.34225,-5.1989 6.08506,-6.62483c1.59624,-0.84509 3.5318,-1.55754 5.15274,-2.02662c1.56252,-0.4463 4.2216,-1.09448 4.90737,-2.77676c0.01347,-0.03134 0.03689,-0.05735 0.06666,-0.07403c0.02977,-0.01668 0.06426,-0.0231 0.09798,-0.01826c0.0338,0.00485 0.06503,0.02067 0.08897,0.04504c0.02385,0.02437 0.03904,0.05593 0.04324,0.08979c0.27412,1.98807 -0.18112,2.89357 -1.32212,3.96722c-1.23692,1.16477 -2.76384,1.69516 -4.13349,2.53631c-2.08896,1.38544 -2.75097,3.91574 -1.36562,6.00479c0.82339,1.2419 2.22564,1.90098 3.6991,1.90098c0.45197,-0.00137 0.90223,-0.05714 1.34082,-0.16627c0.23645,-0.06143 0.46828,-0.1395 0.69375,-0.23354l0,0z" clip-rule="evenodd" fill-rule="evenodd"/>
 </g>
</svg>