<svg width="32" height="32" xmlns="http://www.w3.org/2000/svg" xml:space="preserve" version="1.1">

 <g>
  <title>Layer 1</title>
  <g stroke="null" stroke-width="0" id="svg_6">
   <circle stroke="null" id="svg_1" fill="#172852" r="15.95661" cy="15.95661" cx="15.95661" class="st0"/>
   <g stroke="null" id="svg_2">
    <path stroke="null" id="svg_3" fill="#FFD83D" d="m12.85305,7.13101c1.86852,-0.6989 3.9716,-0.70049 5.87522,-0.12606c2.47806,0.76911 4.56997,2.63922 5.663,4.98644c0.30158,0.66858 0.59039,1.36589 0.61912,2.10946c-1.39301,-0.8074 -2.92006,-1.33078 -4.4503,-1.80788c-2.44774,-0.8824 -5.01037,-1.49513 -7.32727,-2.70784c-0.53933,-0.32232 -1.22706,-0.65263 -1.37386,-1.3244c-0.05904,-0.58082 0.55529,-0.90474 0.9941,-1.12973" class="st1"/>
    <path stroke="null" id="svg_4" fill="#FFD83D" d="m7.21239,12.77965c0.54093,-1.46801 1.42812,-2.8307 2.63284,-3.84075c0.30637,2.51955 1.37865,4.95453 3.14983,6.78634c2.12382,2.2068 5.1492,3.56151 8.22723,3.51045c1.22228,0.0383 2.41743,-0.24414 3.60938,-0.47232c-1.17281,4.23807 -5.81778,7.05122 -10.12127,6.37466c-2.59774,-0.3319 -4.99601,-1.87011 -6.44328,-4.04181c-1.63236,-2.39987 -2.04404,-5.58641 -1.05473,-8.31658z" class="st1"/>
   </g>
   <path stroke="null" id="svg_5" fill="#FF6F03" d="m20.56009,12.29297c1.53024,0.4771 3.05729,1.00048 4.4503,1.80788l0.09414,0.04947c0.12925,0.97176 0.22339,1.96266 0.05106,2.93602c-0.70049,-0.29679 -1.26855,-0.81857 -1.86214,-1.27972c-1.14249,-0.95101 -2.30892,-2.03925 -2.73337,-3.51364" class="st2"/>
  </g>
 </g>
</svg>