<svg width="32" height="32" xmlns="http://www.w3.org/2000/svg">
 <!-- Created with SVG Editor - http://github.com/mzalive/SVG Editor/ -->

 <g>
  <title>background</title>
  <rect fill="none" id="canvas_background" height="34" width="34" y="-1" x="-1"/>
  <g display="none" overflow="visible" y="0" x="0" height="100%" width="100%" id="canvasGrid">
   <rect fill="url(#gridpattern)" stroke-width="0" y="0" x="0" height="100%" width="100%"/>
  </g>
 </g>
 <g>
  <title>Layer 1</title>
  <ellipse ry="16" rx="16" id="svg_7" cy="16" cx="16" stroke-width="0" stroke="#000" fill="#fff"/>
  <g stroke="null" id="svg_6">
   <path stroke="null" id="svg_5" d="m21.654097,7.586537l-3.915176,5.810288c-0.27073,0.395683 0.249905,0.874667 0.624762,0.54146l3.8527,-3.35289c0.104127,-0.083302 0.249905,-0.020825 0.249905,0.124952l0,10.475178c0,0.145778 -0.187429,0.208254 -0.27073,0.104127l-11.662226,-13.95302c-0.374857,-0.458159 -0.916318,-0.708064 -1.520254,-0.708064l-0.416508,0c-1.082921,0 -1.978413,0.895492 -1.978413,1.999239l0,14.744386c0,1.103746 0.895492,1.999239 1.999239,1.999239c0.687238,0 1.332826,-0.354032 1.707683,-0.957969l3.915176,-5.810288c0.27073,-0.395683 -0.249905,-0.874667 -0.624762,-0.54146l-3.8527,3.332065c-0.104127,0.083302 -0.249905,0.020825 -0.249905,-0.124952l0,-10.454353c0,-0.145778 0.187429,-0.208254 0.27073,-0.104127l11.662226,13.95302c0.374857,0.458159 0.937143,0.708064 1.520254,0.708064l0.416508,0c1.103746,0 1.999239,-0.895492 1.999239,-1.999239l0,-14.744386c0,-1.103746 -0.895492,-1.999239 -1.999239,-1.999239c-0.708064,0 -1.353651,0.354032 -1.728509,0.957969z"/>
  </g>
 </g>
</svg>