<svg width="32" height="32" xmlns="http://www.w3.org/2000/svg">
 <!-- Created with SVG Editor - http://github.com/mzalive/SVG Editor/ -->

 <g>
  <title>background</title>
  <rect fill="none" id="canvas_background" height="34" width="34" y="-1" x="-1"/>
  <g display="none" overflow="visible" y="0" x="0" height="100%" width="100%" id="canvasGrid">
   <rect fill="url(#gridpattern)" stroke-width="0" y="0" x="0" height="100%" width="100%"/>
  </g>
 </g>
 <g>
  <title>Layer 1</title>
  <ellipse ry="15.9" rx="15.9" id="svg_46" cy="16" cx="16" stroke-width="0" stroke="#000" fill="#fff"/>
  <metadata transform="matrix(0.027163166796997595,0,0,0.027163166796997595,0,0) " id="svg_27">image/svg+xml</metadata>

  <style transform="matrix(0.027163166796997595,0,0,0.027163166796997595,0,0) " type="text/css">.st0{fill-rule:evenodd;clip-rule:evenodd;fill:#4DB45E;}
	.st1{fill-rule:evenodd;clip-rule:evenodd;fill:url(#SVGID_1_);}</style>
  <!-- Generator: Sketch 60.1 (88133) - https://sketch.com -->
  <desc transform="matrix(0.11111111773384952,0,0,0.11111111773384952,0,0) ">Created with Sketch.</desc>

  <style transform="matrix(0.10229572815712018,0,0,0.10229572815712018,0,0) " type="text/css">.st0{fill:#00BEF0;}</style>
  <metadata transform="matrix(0.10229572815712018,0,0,0.10229572815712018,0,0) "/>
  <g stroke="null" id="svg_61">
   <g stroke="null" transform="matrix(0.7341558281731984,0,0,0.7341558281731984,-4.564204669296072,-13.014127307237938) " id="svg_57">
    <g stroke="null" id="svg_58">
     <path stroke="null" id="svg_59" d="m28.01068,17.820392c-12,0 -21.7,9.7 -21.7,21.7c0,12 9.7,21.7 21.7,21.7c12,0 21.7,-9.7 21.7,-21.7c-0.1,-12 -9.8,-21.7 -21.7,-21.7zm-3.1,30.9l-1.6,4.7c-6,-2 -10,-7.7 -10,-14.1c0,-6.4 4,-12 10.1,-14.1l1.6,4.7c-4,1.3 -6.6,5.1 -6.6,9.3c-0.1,4.5 2.5,8.2 6.5,9.5zm7.4,4.9l-1.5,-4.8c4.1,-1.3 6.8,-5.1 6.8,-9.4c0,-4.3 -2.7,-8 -6.7,-9.3l1.6,-4.8c6.1,2 10.2,7.7 10.2,14.1c0,6.5 -4.2,12.2 -10.4,14.2z" class="st0"/>
    </g>
   </g>
  </g>
 </g>
</svg>