<svg width="32" height="32" xmlns="http://www.w3.org/2000/svg">
 <!-- Created with SVG Editor - http://github.com/mzalive/SVG Editor/ -->

 <g>
  <title>background</title>
  <rect fill="none" id="canvas_background" height="34" width="34" y="-1" x="-1"/>
  <g display="none" overflow="visible" y="0" x="0" height="100%" width="100%" id="canvasGrid">
   <rect fill="url(#gridpattern)" stroke-width="0" y="0" x="0" height="100%" width="100%"/>
  </g>
 </g>
 <g>
  <title>Layer 1</title>
  <ellipse ry="16" rx="16" id="svg_19" cy="16" cx="16" stroke-width="0" stroke="#000" fill="#fff"/>
  <g stroke="null" id="svg_29">
   <path stroke="null" id="svg_23" d="m9.403378,25.021266a8.931766,8.931766 0 0 0 6.18894,3.024141a5.626309,5.626309 0 0 0 3.72743,-1.687893a64.843212,64.843212 0 0 1 6.118611,-4.641705l1.195591,-0.492302c0.492302,-0.210987 1.336248,-0.703289 2.109866,-1.617564c0.843946,-1.125262 0.984604,-2.320852 0.984604,-2.742826a7.736175,7.736175 0 0 0 -1.26592,-3.72743a23.349183,23.349183 0 0 1 -19.059122,11.885578z" fill="#0293d6"/>
   <path stroke="null" id="svg_24" d="m12.075875,5.047869a5.626309,5.626309 0 0 1 4.079074,-1.758222a3.657101,3.657101 0 0 1 2.672497,0.914275a12.237222,12.237222 0 0 0 6.892229,2.250524c0.63296,0.070329 1.898879,0.281315 2.742826,1.336248c0.63296,0.843946 0.703289,1.758222 0.703289,2.180195a9.775712,9.775712 0 0 1 -0.703289,3.164799l-16.386625,-8.087819z" fill="#ebe638"/>
   <path stroke="null" id="svg_25" d="m9.403378,25.021266c-0.63296,-0.070329 -1.476906,-0.281315 -2.46151,-0.703289s-2.180195,-0.914275 -2.953812,-2.250524c-0.492302,-0.843946 -0.562631,-1.687893 -0.562631,-2.250524a9.705383,9.705383 0 0 1 1.054933,-4.290061a19.832739,19.832739 0 0 0 1.336248,-5.134007l0.351644,-1.406577c0.210987,-0.703289 0.351644,-1.406577 0.843946,-2.109866l0.773617,-0.843946a6.681242,6.681242 0 0 1 4.290061,-0.984604a21.942605,21.942605 0 0 0 -2.672497,19.973397z" fill="#bad147"/>
   <path stroke="null" id="svg_26" d="m12.075875,5.047869c-0.070329,0 3.797759,0.210987 6.18894,1.054933l1.969208,0.843946c-0.773617,-0.070329 -5.696638,-0.281315 -9.424068,3.446114c-4.712034,4.782363 -3.164799,11.322947 -3.09447,11.674591a7.173544,7.173544 0 0 1 -1.547235,-4.852692a16.878927,16.878927 0 0 1 5.907625,-12.166893z" fill="#78b650"/>
   <path stroke="null" id="svg_27" d="m21.499942,22.419098a14.065773,14.065773 0 0 0 -1.26592,-15.47235a9.635054,9.635054 0 0 1 5.344994,2.813155c0.843946,0.703289 1.898879,1.758222 2.883483,3.375785a20.747015,20.747015 0 0 1 -6.962557,9.28341z" fill="#2f8260"/>
   <path stroke="null" id="svg_28" d="m23.750466,10.041218c-1.125262,-1.898879 -2.742826,-2.742826 -3.446114,-3.09447c-0.562631,-0.140658 -5.837296,-0.984604 -9.846041,2.883483c-3.235128,3.09447 -3.446114,7.103215 -3.446114,7.876833a12.026236,12.026236 0 0 0 2.531839,7.314202a16.738269,16.738269 0 0 0 6.329598,0c1.054933,-0.210987 3.516443,-0.63296 5.626309,-2.46151c0.281315,-0.281315 3.375785,-3.164799 3.586772,-7.736175c0,-0.773617 0,-2.742826 -1.336248,-4.782363zm-2.531839,10.197685a6.962557,6.962557 0 0 1 -5.134007,2.250524c-0.421973,0 -3.235128,-0.070329 -5.204336,-2.391181c-0.281315,-0.351644 -1.687893,-2.039537 -1.617564,-4.571376c0.140658,-3.375785 2.813155,-5.344994 3.375785,-5.766967c0.492302,-0.351644 1.687893,-1.125262 3.446114,-1.195591c0.421973,-0.070329 1.898879,-0.140658 3.375785,0.703289c3.235128,1.758222 3.375785,5.977953 3.375785,6.259269c0,0.773617 0,2.883483 -1.617564,4.712034z" fill="#085229"/>
  </g>
 </g>
</svg>