<svg width="32" height="32" xmlns="http://www.w3.org/2000/svg">

 <g>
  <title>Layer 1</title>
  <g stroke="null" id="svg_3">
   <circle stroke="null" id="svg_1" fill="#2f318f" r="15.98193" cy="16.02918" cx="16" data-name="Эллипс 1"/>
   <path stroke="null" id="svg_2" fill-rule="evenodd" fill="#fff" d="m20.34114,23.4572c0.03561,0.03554 0.17791,0.21339 0.17791,0.21339a0.0709,0.0709 0 0 1 -0.03561,0.07109l-0.03554,0a0.60092,0.60092 0 0 1 -0.35582,-0.1067c-0.10676,-0.07109 -0.21352,-0.24893 -0.10676,-0.28448c0.17791,-0.07115 0.32021,0 0.35582,0.1067zm0.03561,-0.17785a0.45159,0.45159 0 0 1 0.21345,-0.03554a1.58151,1.58151 0 0 1 0.39143,0.28448c0.03561,0.07115 0,0.1067 -0.07115,0.1423a0.21416,0.21416 0 0 1 -0.1423,0.03554a0.27176,0.27176 0 0 1 -0.17797,-0.07115c-0.03554,-0.03554 -0.17791,-0.21333 -0.21345,-0.24893l0,-0.1067zm0.32021,-0.17778l0.39169,0a0.40402,0.40402 0 0 1 0.28467,0.1067a0.32264,0.32264 0 0 1 -0.10676,0.24893a0.15899,0.15899 0 0 1 -0.17791,0a2.65556,2.65556 0 0 1 -0.42697,-0.24893c-0.03586,-0.03554 -0.07166,-0.14224 0.03529,-0.1067zm-2.45527,-0.21339a8.7473,8.7473 0 0 0 1.03192,0.24893a3.65743,3.65743 0 0 0 0.60495,0.03561l0,0.10663a0.1306,0.1306 0 0 0 -0.03561,0.1067a4.52986,4.52986 0 0 1 -1.74363,-0.32002l0.14237,-0.17785zm-0.5338,0a3.68364,3.68364 0 0 1 -1.31691,-1.24461l-0.07115,-0.1067a0.30423,0.30423 0 0 0 0.24932,0l0.03561,0.07109a3.70365,3.70365 0 0 0 1.20983,1.13791l-0.1067,0.1423zm3.94971,-3.27169c0.14237,0.17785 0,0.46233 -0.28467,0.71126s-0.53373,0.39117 -0.71164,0.21339s0,-0.39117 0.28467,-0.67572s0.53386,-0.42672 0.71164,-0.24893zm-4.34127,4.58752l0.14237,0.24893l0.21352,-0.14224l0,0.7112l-0.6761,-0.24893l0.21352,-0.14224l-0.10676,-0.14224l0.21345,-0.28448zm-0.46258,-0.17785l-0.35582,-0.56896c-0.03561,0.1067 -0.17791,0.28448 -0.28467,0.53341l-0.14237,-0.28448l0.42704,-0.7468l0.10676,0.17778l0.39143,0.67572l-0.14237,0.21333zm-0.39143,1.20913l-0.92516,-1.70687l-0.74725,1.13791l0.21345,0.1423l-0.6761,0.24893l0,-0.71139l0.21352,0.14224l0.85401,-1.31576l0.10676,-0.17785l0.99638,1.77809l1.92167,-2.70255l-0.21352,-0.14224l0.64049,-0.24893l0,0.7112l-0.21345,-0.17778l-2.17079,3.0227zm-0.46233,-2.59598a1.0401,1.0401 0 0 0 0.32028,-0.07109a0.97119,0.97119 0 0 1 -0.32028,0.42672a1.22741,1.22741 0 0 1 -0.32028,-0.42672a1.0401,1.0401 0 0 0 0.32028,0.07109zm0,-1.28022a3.80517,3.80517 0 0 0 0.5338,0.78235c0.1423,0.1423 0.49812,0.49787 0.71164,0.67572a1.93982,1.93982 0 0 1 -0.85401,-0.42678a1.27555,1.27555 0 0 1 -0.39143,0.14224c-0.1423,0 -0.24932,-0.07115 -0.39143,-0.1423a1.93982,1.93982 0 0 1 -0.85401,0.42678c0.17791,-0.17785 0.56934,-0.53341 0.71171,-0.67572a1.92506,1.92506 0 0 0 0.53373,-0.78235l0,0.00006zm0.60495,-1.10243a0.69822,0.69822 0 0 1 0.32021,0.32009a1.67574,1.67574 0 0 0 0.5338,0.46233a0.65155,0.65155 0 0 1 0.24932,0.35563c-0.46258,0 -0.71164,-0.46233 -0.85401,-0.64017a0.94229,0.94229 0 0 0 -0.21352,-0.17778c-0.03554,0.42672 0.35589,0.71126 0.64056,0.88904a0.70813,0.70813 0 0 1 0.28467,0.42678c-0.88962,-0.1067 -1.13868,-1.24467 -1.13868,-1.24467c0.10638,-0.10676 0.14166,-0.249 0.17753,-0.3913l0.00013,0.00006zm0.92516,0c0.03561,0.03561 0.10676,0.03561 0.17791,0.03561a0.91954,0.91954 0 0 1 0.39143,0.49787c0.03561,0.14224 0,0.24893 -0.1423,0.32002a0.3424,0.3424 0 0 1 -0.42704,-0.14224c0,-0.03554 -0.03561,-0.03554 -0.03561,-0.07109a0.25283,0.25283 0 1 0 0.32028,-0.39124c-0.03554,0 -0.03554,-0.03554 -0.07115,-0.03554a0.7181,0.7181 0 0 0 -0.39143,-0.1067c0.07102,-0.03561 0.14218,-0.10676 0.17778,-0.10676l0.00013,0.00006zm1.03192,0.24893a1.06663,1.06663 0 0 0 -0.35582,0.1423a0.07671,0.07671 0 0 1 -0.07115,-0.07115a0.72775,0.72775 0 0 0 -0.28467,-0.28448a0.3206,0.3206 0 0 0 0.17791,-0.03561c0.07115,0.03561 0.1423,0.03561 0.21352,0.07115a1.44151,1.44151 0 0 1 0.32009,0.17772l0.00013,0.00006zm-0.35582,0.56896c-0.07115,-0.03554 -0.07115,-0.1067 -0.03561,-0.17778a0.41195,0.41195 0 0 1 0.24932,-0.17785c0.21352,-0.07109 0.46258,-0.14224 0.6761,-0.21339c0.03561,0.03561 0.07115,0.1067 0.10676,0.1423a0.05805,0.05805 0 0 1 -0.07115,0.07109l-0.46265,0a0.15637,0.15637 0 0 0 -0.03554,0.17785a0.50573,0.50573 0 0 0 -0.21352,-0.07115c-0.07147,0 -0.17823,0.10682 -0.21384,0.24893l0.00013,0zm-0.35582,-1.17352c0.17791,0.07109 0.56934,0.14224 0.74725,0.17778a1.35354,1.35354 0 0 1 0.46258,0.32009l-0.39143,0.10663a2.66035,2.66035 0 0 0 -0.42697,-0.24893a1.2682,1.2682 0 0 1 -0.39156,-0.35557l0.00013,0zm-0.56947,-0.35582a0.60092,0.60092 0 0 0 0.10676,-0.35563l0.42697,0.28448a1.68469,1.68469 0 0 1 0.35582,0.35563s-0.24932,-0.07109 -0.42697,-0.1067a1.20338,1.20338 0 0 1 -0.42704,-0.21333l-0.03554,0.03554zm-0.21352,0.17778c0.03561,-0.03554 0.10676,-0.07109 0.14237,-0.1067a1.665,1.665 0 0 1 0.35582,0.17785a2.04019,2.04019 0 0 1 0.39143,0.39117a0.73178,0.73178 0 0 1 -0.39143,0a0.51781,0.51781 0 0 0 -0.21352,-0.32009c-0.03561,-0.0707 -0.1423,-0.10644 -0.28448,-0.14205l-0.00019,-0.00019zm-0.64049,-0.49742c0.21345,0.28454 0.46258,0.53348 0.81828,0.67572c0.14237,0.03554 0.21352,0.14224 0.24932,0.28448c-0.1067,0.07109 -0.21345,0.14224 -0.32021,0.14224c-0.24932,-0.07115 -0.46258,-0.21339 -0.56934,-0.46233a1.44803,1.44803 0 0 1 -0.17804,-0.64011zm0.53373,-0.49787c0.07115,0.1067 0.14237,0.21339 0.24932,0.35563c0.07115,0.07115 0.07115,0.17785 0.03554,0.28448a0.4778,0.4778 0 0 1 -0.21352,0.24893a0.42991,0.42991 0 0 1 -0.24932,-0.46226c0.03561,-0.07141 0.14237,-0.32034 0.17797,-0.42704l0,0.00026zm-5.30204,4.72976c0.03561,-0.1067 0.21352,-0.17785 0.35582,-0.1067c0.10676,0.03554 0,0.21339 -0.1067,0.28448a0.6013,0.6013 0 0 1 -0.35589,0.1067l-0.03554,0a0.0709,0.0709 0 0 1 -0.03561,-0.07109s0.14237,-0.1781 0.17791,-0.21365l0,0.00026zm-0.03554,-0.17785a0.1308,0.1308 0 0 1 0.03554,0.1067c-0.03554,0.03561 -0.17791,0.21339 -0.21352,0.24893a0.27163,0.27163 0 0 1 -0.17791,0.07115a0.21403,0.21403 0 0 1 -0.1423,-0.03554c-0.07115,-0.03561 -0.10676,-0.07115 -0.07115,-0.1423a1.58119,1.58119 0 0 1 0.39137,-0.28448a0.38753,0.38753 0 0 1 0.17797,0.03529l0,0.00026zm-0.32028,-0.17778c0.10676,-0.03554 0.07115,0.03554 0.03554,0.1067a2.653,2.653 0 0 1 -0.42697,0.24893a0.15899,0.15899 0 0 1 -0.17791,0c-0.07115,-0.07115 -0.10676,-0.14224 -0.07115,-0.21339a0.20233,0.20233 0 0 1 0.24932,-0.14224l0.39143,0l-0.00026,0zm3.02461,-0.21339l-0.1067,-0.14224a3.70493,3.70493 0 0 0 1.20983,-1.13791l0.03561,-0.07109a0.30423,0.30423 0 0 0 0.24932,0l-0.07115,0.1067a3.40159,3.40159 0 0 1 -1.31691,1.24429l0,0.00026zm-0.56934,0l0.14237,0.17785a3.87645,3.87645 0 0 1 -1.10314,0.28448a3.87121,3.87121 0 0 1 -0.64049,0.03554a0.1306,0.1306 0 0 0 -0.03561,-0.1067l0,-0.10663a3.65705,3.65705 0 0 0 0.60495,-0.03561a8.7473,8.7473 0 0 0 1.03192,-0.24919l0,0.00026zm-3.41604,-3.27169c0.17791,-0.17778 0.42697,-0.03554 0.71171,0.24893s0.46258,0.49787 0.28461,0.67572s-0.42697,0.03554 -0.71164,-0.21339s-0.42704,-0.53348 -0.28467,-0.71152l0,0.00026zm4.48357,4.19634l-0.1423,0.21333l-1.31691,-1.84917l-0.21345,0.17778l0,-0.71145l0.64049,0.24893l-0.21352,0.14224l1.2457,1.77834zm0.14237,0.64011l0.17791,-0.21339l0.35582,0.53341l0.28467,-0.53341l0.14237,0.24893l-0.42704,0.7468l-0.53373,-0.78235zm0.42697,-4.19634c0.03561,0.1423 0.07122,0.28454 0.17791,0.39124c0,0 -0.24932,1.13791 -1.13868,1.24467a0.70813,0.70813 0 0 1 0.28467,-0.42678c0.28467,-0.17778 0.6761,-0.46233 0.64056,-0.88904a0.94229,0.94229 0 0 0 -0.21352,0.17778c-0.14237,0.17785 -0.39143,0.64017 -0.85401,0.64017a0.65155,0.65155 0 0 1 0.24932,-0.35563a1.67574,1.67574 0 0 0 0.5338,-0.46233a0.69822,0.69822 0 0 1 0.31996,-0.32034l0,0.00026zm-0.92516,0c0.03561,0 0.10676,0.07115 0.17791,0.1067a0.7181,0.7181 0 0 0 -0.39143,0.1067c-0.03554,0 -0.03554,0.03554 -0.07115,0.03554a0.25283,0.25283 0 1 0 0.32028,0.39124c0,0.03554 -0.03561,0.03554 -0.03561,0.07109a0.3424,0.3424 0 0 1 -0.42704,0.14224c-0.1423,-0.07109 -0.17791,-0.17778 -0.1423,-0.32002a0.91979,0.91979 0 0 1 0.39143,-0.49787c0.07115,-0.00026 0.1423,-0.00026 0.17791,-0.03586l0,0.00026zm-1.03192,0.24893a1.114,1.114 0 0 1 0.35582,-0.17778c0.07115,-0.03554 0.14237,-0.03554 0.21352,-0.07115a0.3206,0.3206 0 0 0 0.17791,0.03561a0.72775,0.72775 0 0 0 -0.28467,0.28448c-0.03561,0.03554 -0.07115,0.03554 -0.10676,0.07115a1.06663,1.06663 0 0 0 -0.35582,-0.14256l0,0.00026zm0.35582,0.56896c-0.03561,-0.14224 -0.1423,-0.24893 -0.21352,-0.24893a0.50573,0.50573 0 0 0 -0.21352,0.07115a0.15637,0.15637 0 0 0 -0.03554,-0.17785l-0.46258,0a0.05805,0.05805 0 0 1 -0.07122,-0.07109c0.03561,-0.03561 0.07122,-0.1067 0.10676,-0.1423c0.21352,0.07115 0.46258,0.1423 0.6761,0.21339a0.41195,0.41195 0 0 1 0.24932,0.17785c0.03535,0.0709 0.03535,0.14205 -0.0358,0.17759l0,0.00019zm0.35582,-1.17352a1.26743,1.26743 0 0 1 -0.39143,0.35557a2.66035,2.66035 0 0 0 -0.42697,0.24893l-0.39143,-0.10663a1.35354,1.35354 0 0 1 0.46258,-0.32009c0.17791,-0.03574 0.56934,-0.10689 0.74725,-0.17797l0,0.00019zm0.56934,-0.35601c-0.1423,0.07109 -0.28467,0.14224 -0.46258,0.21339c-0.17791,0.03554 -0.42697,0.10663 -0.42697,0.10663a1.68437,1.68437 0 0 1 0.35582,-0.35557l0.42704,-0.28409a0.5735,0.5735 0 0 0 0.1067,0.31964zm0.17797,0.17778a0.71631,0.71631 0 0 0 -0.28467,0.14224a0.51781,0.51781 0 0 0 -0.21352,0.32009a0.73178,0.73178 0 0 1 -0.39143,0a2.03834,2.03834 0 0 1 0.39143,-0.39117a1.66353,1.66353 0 0 1 0.35582,-0.17785c0.03561,0.0358 0.10676,0.07134 0.14237,0.10689l0,-0.00019zm0.67604,-0.49742c0,0.21339 -0.07115,0.42678 -0.1423,0.64011c-0.10676,0.24893 -0.32028,0.39117 -0.56934,0.46233c-0.10676,0 -0.21352,-0.07115 -0.32028,-0.14224c0.03561,-0.14224 0.10676,-0.24893 0.24932,-0.28448a1.81344,1.81344 0 0 0 0.7826,-0.67572zm-0.49812,-0.49787c0.03554,0.1067 0.1423,0.35563 0.17791,0.42678a0.42998,0.42998 0 0 1 -0.24932,0.46226a0.47799,0.47799 0 0 1 -0.21345,-0.24893c-0.03561,-0.10663 -0.03561,-0.21333 0.03554,-0.28448a1.27855,1.27855 0 0 1 0.24932,-0.35589l0,0.00026zm1.17422,2.24041c0.03561,0.17785 0.17797,0.39117 0.35589,0.46233a0.44033,0.44033 0 0 1 -0.49819,-0.14224c-0.03561,-0.03561 -0.07115,-0.1067 -0.10676,-0.14224a0.49224,0.49224 0 0 1 -0.10676,0.14224a0.44033,0.44033 0 0 1 -0.49819,0.14224a0.49109,0.49109 0 0 0 0.35589,-0.46233a4.18618,4.18618 0 0 0 -0.24932,-0.71126a0.74297,0.74297 0 0 1 0.14237,-0.6045a7.12858,7.12858 0 0 0 0.35614,0.92433a7.11938,7.11938 0 0 0 0.35582,-0.92459a0.74278,0.74278 0 0 1 0.14237,0.6045a2.41398,2.41398 0 0 0 -0.24925,0.71126l0,0.00026zm0.85407,-3.0941a0.7594,0.7594 0 0 1 0.28467,0.6045a2.17572,2.17572 0 0 1 -0.17791,0.42678a2.26943,2.26943 0 0 1 -0.28473,-0.49787a0.95783,0.95783 0 0 1 0.17797,-0.53341zm-0.6761,0.03554c0.17791,0.17778 0.28467,0.42672 0.35582,0.64011c-0.03561,0.21339 -0.14237,0.42672 -0.21352,0.64011a1.27696,1.27696 0 0 1 -0.24932,-0.35563a0.56563,0.56563 0 0 1 -0.10676,-0.46226a0.57318,0.57318 0 0 1 0.21377,-0.46233zm-0.42691,2.34704a2.99527,2.99527 0 0 1 -0.28467,-0.96013c0.03561,-0.24893 0.10676,-0.49787 0.28467,-0.67565a1.44477,1.44477 0 0 1 0.28467,0.67565a3.28358,3.28358 0 0 1 -0.28467,0.96013zm1.45896,-3.37833c0.03554,0.1067 0.10676,0.28448 0.17791,0.35563a0.86565,0.86565 0 0 1 0,0.42672a1.46951,1.46951 0 0 1 -0.24932,0.39117c-0.03561,-0.07109 -0.10676,-0.17778 -0.17791,-0.32002a0.45299,0.45299 0 0 1 0,-0.42678c0.03567,-0.14224 0.17804,-0.28448 0.24919,-0.42672l0.00013,0zm-0.74725,0.03554c0.07115,0.14224 0.21345,0.24893 0.24932,0.35563a0.59453,0.59453 0 0 1 0.03561,0.42672a0.97106,0.97106 0 0 1 -0.32028,0.42678c-0.07115,-0.14224 -0.17791,-0.32009 -0.21352,-0.39117c-0.03554,-0.1067 -0.07115,-0.21339 -0.03554,-0.32009a2.26649,2.26649 0 0 1 0.28429,-0.49787l0.00013,0zm-0.71171,1.28022c0,-0.1067 -0.17791,-0.21333 -0.24932,-0.42672a0.49288,0.49288 0 0 1 0,-0.32009c0.03554,-0.1067 0.21345,-0.35563 0.24932,-0.42672c0.03561,0.07109 0.21352,0.32002 0.24932,0.42672a0.49288,0.49288 0 0 1 0,0.32009c-0.07154,0.17778 -0.21384,0.32034 -0.24932,0.42672zm1.13868,-2.27583a4.6324,4.6324 0 0 0 0.35582,0.53341a1.48459,1.48459 0 0 1 -0.1423,0.35563a1.67203,1.67203 0 0 1 -0.32028,0.42678s-0.17791,-0.28454 -0.21345,-0.42678c-0.03561,-0.1067 -0.07122,-0.24893 -0.03561,-0.35563c0.07102,-0.17791 0.28473,-0.35569 0.35569,-0.53354l0.00013,0.00013zm0.81828,0.17785c-0.07115,0.07109 -0.14237,0.10663 -0.21352,0.21333c-0.03561,0.03554 -0.10676,0.03554 -0.17791,0.03554q0.1067,-0.21339 0.21352,-0.42672c0.03561,0.07102 0.10682,0.10657 0.17797,0.17772l-0.00006,0.00013zm0.03554,-0.07115a1.54769,1.54769 0 0 1 -0.21345,-0.24893a1.01383,1.01383 0 0 1 0,-0.46233a0.60169,0.60169 0 0 0 0.49812,-0.03554a1.72375,1.72375 0 0 1 -0.28461,0.74668l-0.00006,0.00013zm-0.60482,-1.03135a1.08153,1.08153 0 0 0 0.28467,0.28448l0,0.35563c-0.03561,0.21339 -0.14237,0.39117 -0.21352,0.60456a1.47462,1.47462 0 0 1 -0.24932,-0.46233a2.03789,2.03789 0 0 1 -0.03561,-0.42672c0.03586,-0.03567 0.14256,-0.249 0.21377,-0.35563zm-0.64056,1.20907a1.25394,1.25394 0 0 0 -0.28467,-0.46226a0.69387,0.69387 0 0 1 0.35589,-0.78235a2.83839,2.83839 0 0 1 0.28467,0.56896c0.03554,0.28441 -0.24913,0.42665 -0.35589,0.67559l0,0.00006zm-0.35582,-0.24893c0.21352,0.21339 0.28467,0.49787 0.24932,0.81796a1.17921,1.17921 0 0 1 -0.35582,0.49787a1.49348,1.49348 0 0 1 -0.21352,-0.7468a1.80391,1.80391 0 0 1 0.32002,-0.56908l0,0.00006zm-0.3913,0.39111c-0.03561,-0.17778 -0.35582,-0.49781 -0.35582,-0.64011c0.07115,-0.24887 0.21352,-0.21333 0.35582,-0.32002c0.14237,0.1067 0.32028,0.07115 0.35582,0.32002c-0.00013,0.17785 -0.32034,0.46233 -0.35582,0.64011zm0,-1.06683c-0.10676,-0.03554 -0.17791,-0.07109 -0.21352,-0.17778a0.49173,0.49173 0 0 1 -0.10676,-0.42678a1.44176,1.44176 0 0 1 0.17797,-0.32002c0.03554,0.03554 0.1067,0.07109 0.1423,0.1067a0.49314,0.49314 0 0 0 0.14237,-0.1067a0.9329,0.9329 0 0 1 0.17791,0.32002a0.94677,0.94677 0 0 1 -0.10676,0.42678a0.36439,0.36439 0 0 1 -0.21352,0.17778zm1.24544,-1.77809c0.07115,0.32009 0.39143,0.56896 0.78286,0.64011l-0.03561,0.03554a0.38312,0.38312 0 0 1 -0.49819,0.1067a0.51398,0.51398 0 0 1 -0.24932,-0.35563a0.86718,0.86718 0 0 1 0.00013,-0.42672l0.00013,0zm-0.28467,0.24893c0.39143,0.60456 0.74725,0.92459 1.03192,0.96019a0.55956,0.55956 0 0 0 0.35589,-0.39117a0.63928,0.63928 0 0 1 0.07115,0.56896a0.49128,0.49128 0 0 1 -0.46258,0.35563c-0.24932,-0.07115 -0.46265,-0.21339 -0.56934,-0.42678a2.80457,2.80457 0 0 1 -0.42717,-1.06683l0.00013,0zm-0.10689,0.10682c0.03561,0.17778 0.10676,0.39117 0.14237,0.60456c0.10676,0.14224 0.17791,0.28448 0.28467,0.42672a1.44291,1.44291 0 0 1 -0.17791,0.32009a3.1526,3.1526 0 0 1 -0.28467,-0.60456a1.78269,1.78269 0 0 1 -0.07122,-0.42717a0.57356,0.57356 0 0 1 0.10676,-0.31964zm-0.49819,0.17778a2.28318,2.28318 0 0 1 0.35589,0.46233a0.38357,0.38357 0 0 1 0,0.39117a1.51713,1.51713 0 0 1 -0.42704,0.39117a0.81597,0.81597 0 0 0 0.14237,-0.49787a1.48753,1.48753 0 0 0 -0.14237,-0.35563a1.09815,1.09815 0 0 1 0.07115,-0.3913l0,0.00013zm-0.35569,0.28441c-0.10676,-0.1067 -0.17791,-0.17785 -0.21352,-0.28454s-0.03554,-0.21333 0.03561,-0.28448a1.444,1.444 0 0 0 0.17791,-0.32002a0.68761,0.68761 0 0 0 0.17791,0.32002a0.27841,0.27841 0 0 1 0.03561,0.28448a0.55336,0.55336 0 0 1 -0.21352,0.28454zm0.49819,-1.67145c0.07115,0.32009 0.21352,0.60456 0.24932,0.71126a1.72899,1.72899 0 0 1 0.03561,0.42672a0.71471,0.71471 0 0 1 -0.14237,0.28454q-0.15982,-0.21345 -0.32021,-0.42678a0.49352,0.49352 0 0 1 -0.07122,-0.39117a3.07844,3.07844 0 0 1 0.24874,-0.60456l0.00013,0zm-0.49819,0.6403c0,-0.10663 -0.32028,-0.46226 -0.32028,-0.64011a0.69822,0.69822 0 0 1 0.32028,-0.32002a0.48099,0.48099 0 0 1 0.32028,0.32002c-0.00013,0.17766 -0.32028,0.49768 -0.32028,0.64011zm0.88962,-0.64011a0.51826,0.51826 0 0 1 0.24932,0.46233a3.91353,3.91353 0 0 1 -0.07115,0.64011a2.1224,2.1224 0 0 1 -0.32028,-0.53341a1.12558,1.12558 0 0 1 0.14198,-0.56921l0.00013,0.00019zm0.99625,-0.49781c0.07115,0 0.1423,0.03561 0.21345,0.03561a1.06427,1.06427 0 0 0 -0.28467,0.14224c-0.10676,0.1067 -0.17791,0.21333 -0.17791,0.35563c-0.03561,0.21333 -0.14237,0.39117 -0.21352,0.56896a1.60855,1.60855 0 0 0 -0.10676,-0.56896a0.94268,0.94268 0 0 0 0.21352,-0.17785a0.8574,0.8574 0 0 1 0.35589,-0.35563zm-1.13874,-0.42672a0.97106,0.97106 0 0 1 -0.32021,0.42672c-0.07122,0.07115 -0.21352,0.1067 -0.32028,0.14224a0.86405,0.86405 0 0 1 0.32028,-0.49787a1.03972,1.03972 0 0 1 0.32021,-0.07134l0,0.00026zm0.35589,-0.07115c-0.07122,0.21339 -0.14237,0.42678 -0.28467,0.60456a0.92574,0.92574 0 0 0 -0.14237,0.53341a0.93162,0.93162 0 0 1 -0.07115,-0.53341a0.86347,0.86347 0 0 1 0.49819,-0.60482l0,0.00026zm1.88587,-2.24035a0.45037,0.45037 0 0 0 0.03561,0.21333a1.46989,1.46989 0 0 1 0.24932,0.39124a0.40102,0.40102 0 0 1 0.10676,0.39117a0.56525,0.56525 0 0 1 -0.35582,0.28448c0.03554,-0.07115 0.10676,-0.14224 0.10676,-0.21339c0,-0.14224 -0.07122,-0.24893 -0.14237,-0.35563a1.09412,1.09412 0 0 1 -0.17791,-0.42672c0.03535,-0.10695 0.07096,-0.21365 0.17772,-0.28473l-0.00006,0.00026zm0.78286,0.31977l-0.24932,0a2.15993,2.15993 0 0 1 -0.35582,-0.24893a0.27188,0.27188 0 0 0 -0.17791,-0.07109c0.10676,-0.07115 0.17791,-0.1067 0.28467,-0.07115c0.21352,0.03554 0.35582,0.14224 0.49819,0.28448l0,0.1067l0.00019,0zm0,1.52915c-0.03561,-0.14224 -0.07115,-0.32002 -0.10676,-0.46226a0.97669,0.97669 0 0 1 0.03561,-0.64011c0.07115,-0.14224 0.1423,-0.32009 0.1067,-0.49787a1.72758,1.72758 0 0 1 0.24932,0.1067a1.15626,1.15626 0 0 1 -0.14237,0.49781c-0.03554,0.1423 -0.07115,0.28454 -0.03554,0.42678a0.55681,0.55681 0 0 1 -0.10695,0.56896zm0.24932,-0.46226l0,-0.35531c0.17791,0.07109 0.32028,0.17778 0.39143,0.35563c-0.00019,-0.00032 -0.28486,-0.17817 -0.39143,-0.00032zm-4.27037,-2.41826l0.17791,0l0,-0.21333l0.1423,0l0,0.21333l0.17791,0l0,0.10676l-0.17791,0l0,0.24893l-0.1423,0l0,-0.24893l-0.17791,0l0,-0.10676zm2.09945,1.13791l0.21352,0l0,-0.17772l0.1423,0l0,0.17785l0.17791,0l0,0.14224l-0.17791,0l0,0.21333l-0.1423,0l0,-0.21333l-0.21352,0l0,-0.14224l0,-0.00013zm0.17791,1.10237c-0.07115,0 -0.1423,0 -0.17791,0.03561a3.24753,3.24753 0 0 1 -0.28467,-0.46233l0,-0.03554a0.11354,0.11354 0 0 1 0.10676,-0.1067a0.5065,0.5065 0 0 1 0.21352,0.07109a2.03929,2.03929 0 0 1 0.14243,0.498l-0.00013,-0.00013zm0.17791,0a1.15652,1.15652 0 0 1 0.14237,-0.49787a0.50599,0.50599 0 0 1 0.21345,-0.07109a0.07371,0.07371 0 0 1 0.07122,0.1067l0,0.03561a3.25392,3.25392 0 0 1 -0.28467,0.46233c0.00013,-0.03554 -0.07109,-0.03554 -0.14224,-0.03554l-0.00013,-0.00013zm-0.10676,-0.67565a0.30756,0.30756 0 0 1 0.21352,0.1067a1.31538,1.31538 0 0 1 -0.17753,0.39162c-0.07115,-0.14224 -0.14237,-0.24893 -0.17791,-0.39117c-0.00026,-0.07147 0.0709,-0.10702 0.14205,-0.10702l-0.00013,-0.00013zm0,1.81363a1.4479,1.4479 0 0 1 -0.49819,0.42678a1.08249,1.08249 0 0 0 -0.28467,0.28448a0.61275,0.61275 0 0 1 0.28467,-0.49787a1.50761,1.50761 0 0 1 0.49832,-0.21326l-0.00013,-0.00013zm-0.46265,0.07128a1.11158,1.11158 0 0 0 -0.39143,0.32002a2.96458,2.96458 0 0 0 -0.28467,0.42678a0.50503,0.50503 0 0 1 -0.07115,-0.21339a1.80449,1.80449 0 0 0 0.32028,-0.56896c0.07115,0 0.1067,-0.03554 0.17791,-0.03554l0,0.14205l0.24906,-0.07096zm0.60495,-0.1067a0.62272,0.62272 0 0 1 0.49819,0.24893c0.07115,0.17778 0.07115,0.35563 -0.03561,0.49787a0.74284,0.74284 0 0 0 -0.71171,-0.46233a2.03047,2.03047 0 0 0 0.24932,-0.28448l-0.00019,0zm0.78286,-0.64011a0.44072,0.44072 0 0 1 0.49812,0.1067a0.4932,0.4932 0 0 1 -0.1423,0.6045a0.59012,0.59012 0 0 0 -0.74725,0c-0.10676,-0.03554 -0.21352,-0.10663 -0.32028,-0.10663c0.07115,-0.07115 0.17791,-0.17785 0.28467,-0.21339a0.9056,0.9056 0 0 0 0.42723,-0.39117l-0.00019,0zm-0.35589,-0.17778c0.17791,-0.07115 0.17791,0.03554 0.14237,0.17778a0.63288,0.63288 0 0 1 -0.24932,0.28448a1.09361,1.09361 0 0 0 0.10714,-0.46226l-0.00019,0zm-0.6761,0.78235l0,-0.17785a2.26528,2.26528 0 0 1 -0.49819,0.28448a0.32028,0.32028 0 0 1 0.03561,-0.17778a0.50605,0.50605 0 0 1 -0.21352,0.07115c0.03561,-0.07115 0.03561,-0.17785 0.10676,-0.24893c-0.07115,0.07109 -0.1423,0.14224 -0.24932,0.14224a0.45063,0.45063 0 0 1 0.03561,-0.21339a0.70838,0.70838 0 0 1 -0.42704,0.28448a0.46789,0.46789 0 0 1 -0.42704,-0.10663a0.83988,0.83988 0 0 0 0.56934,-0.24893a0.94389,0.94389 0 0 1 -0.21345,-0.17785a0.27188,0.27188 0 0 1 0.17791,-0.07109a0.32085,0.32085 0 0 1 -0.21352,-0.21339a4.77937,4.77937 0 0 0 1.24544,0.14224a2.29501,2.29501 0 0 0 0.71171,-0.1067c-0.10631,0.7468 -0.64011,0.81796 -0.64011,0.81796l-0.00019,0zm-1.70783,-1.38691a1.16988,1.16988 0 0 1 0.60495,0.14224a0.77896,0.77896 0 0 1 0.32028,0.35563a1.17071,1.17071 0 0 1 -0.60495,-0.14224c-0.17791,-0.07115 -0.28467,-0.17785 -0.32028,-0.35563zm-0.03561,-0.39117l-0.1423,0a5.04793,5.04793 0 0 1 0.17791,-0.78241a0.30979,0.30979 0 0 1 0.21352,-0.28448c-0.03561,0.14224 -0.10676,0.28448 -0.14237,0.42678l-0.10676,0.64011zm0.35589,0.07109a1.18222,1.18222 0 0 1 -0.21352,-0.1067c0,-0.32002 0.10676,-0.64011 0.21352,-0.92459a0.15899,0.15899 0 0 1 0.17791,0c0.07115,0 0.10676,0.07115 0.1423,0.14224a3.7819,3.7819 0 0 1 -0.32021,0.88904zm-0.60482,-0.35563c-0.03561,-0.14224 -0.21352,-0.49787 -0.21352,-0.67565a0.21352,0.21352 0 0 1 0.42704,0c-0.00013,0.17778 -0.17804,0.49787 -0.21352,0.67565zm2.49088,1.13791a1.21399,1.21399 0 0 0 -0.71164,0a1.21137,1.21137 0 0 0 0.71152,0l0.00013,0zm-3.59408,7.11247a0.95828,0.95828 0 0 1 0.17791,0.53341a2.26905,2.26905 0 0 1 -0.28467,0.49787a2.16792,2.16792 0 0 1 -0.17791,-0.42678a0.75921,0.75921 0 0 1 0.28467,-0.6045zm0.67604,0.03554a0.57318,0.57318 0 0 1 0.21352,0.46233c0.03561,0.14224 -0.03554,0.32002 -0.10676,0.46226a1.27696,1.27696 0 0 1 -0.24932,0.35563c-0.07115,-0.21339 -0.17791,-0.42672 -0.21352,-0.64011c0.07141,-0.21339 0.17817,-0.46201 0.35608,-0.64011zm-1.03192,-1.03128c0.07122,0.14224 0.21352,0.28448 0.24932,0.42672a0.45331,0.45331 0 0 1 0,0.42678c-0.07122,0.14224 -0.14237,0.24893 -0.17791,0.32002a1.4681,1.4681 0 0 1 -0.24932,-0.39117a0.86565,0.86565 0 0 1 0,-0.42672c0.07115,-0.07115 0.14237,-0.24893 0.17791,-0.35563zm0.71171,0.03554a2.26649,2.26649 0 0 1 0.28467,0.49787c0.03554,0.1067 0,0.21339 -0.03561,0.32009c-0.03554,0.07109 -0.1423,0.24893 -0.21352,0.39117a0.97093,0.97093 0 0 1 -0.32021,-0.42678a0.59453,0.59453 0 0 1 0.03554,-0.42672c0.07122,-0.1067 0.21352,-0.21339 0.24913,-0.35563zm-0.39143,-0.99574c0.07115,0.17785 0.28467,0.35563 0.35582,0.53341c0.03561,0.1067 0,0.24893 -0.03554,0.35563c-0.03561,0.14224 -0.21352,0.42678 -0.21352,0.42678a1.67203,1.67203 0 0 1 -0.32028,-0.42678a1.48459,1.48459 0 0 1 -0.1423,-0.35563a4.6324,4.6324 0 0 0 0.35582,-0.53341zm-0.81828,0.17785l0.17797,-0.17785c0.03554,-0.03554 0.17791,0.32009 0.21345,0.42672c-0.07115,0 -0.1423,0 -0.17791,-0.03554c-0.07134,-0.1067 -0.1423,-0.14224 -0.21371,-0.21333l0.00019,0zm-0.03554,-0.07115a1.72375,1.72375 0 0 1 -0.28467,-0.7468a0.60182,0.60182 0 0 0 0.49819,0.03554a1.01562,1.01562 0 0 1 0,0.46233a1.55101,1.55101 0 0 1 -0.21371,0.24893l0.00019,0zm0.60476,-1.03122c0.07115,0.1067 0.21345,0.32002 0.21345,0.35563a2.04147,2.04147 0 0 1 -0.03554,0.42672a1.47616,1.47616 0 0 1 -0.24932,0.46233c-0.07115,-0.21339 -0.17791,-0.39117 -0.21352,-0.60456l0,-0.35563a1.08274,1.08274 0 0 0 0.28493,-0.28448zm0.64049,1.20907c-0.10676,-0.24893 -0.39143,-0.39117 -0.35582,-0.67565a1.70943,1.70943 0 0 1 0.28467,-0.56896a0.69387,0.69387 0 0 1 0.35582,0.78235a1.25394,1.25394 0 0 0 -0.28467,0.4622l0,0.00006zm0.35582,-0.24893a1.80276,1.80276 0 0 1 0.32028,0.56896a1.49278,1.49278 0 0 1 -0.21352,0.7468a1.17921,1.17921 0 0 1 -0.35582,-0.49787c-0.03561,-0.32009 0.03554,-0.60456 0.24906,-0.81796l0,0.00006zm-0.85401,-2.45374a0.86565,0.86565 0 0 1 0,0.42672a0.51398,0.51398 0 0 1 -0.24932,0.35563a0.38312,0.38312 0 0 1 -0.49793,-0.10702l-0.03561,-0.03554c0.39143,-0.07083 0.71152,-0.31977 0.78286,-0.63985l0,0.00006zm0.28467,0.24893a2.80553,2.80553 0 0 1 -0.42697,1.06683c-0.10676,0.21339 -0.32028,0.35563 -0.5694,0.42678a0.49135,0.49135 0 0 1 -0.46258,-0.35563a0.63928,0.63928 0 0 1 0.07122,-0.56896a0.55937,0.55937 0 0 0 0.35582,0.39117c0.28467,-0.03567 0.64049,-0.35569 1.03192,-0.96026l0,0.00006zm0.07115,0.10676a0.57305,0.57305 0 0 1 0.10676,0.32002a1.78256,1.78256 0 0 1 -0.07115,0.42678a3.1526,3.1526 0 0 1 -0.28467,0.60456a1.44036,1.44036 0 0 1 -0.17791,-0.32009c0.10676,-0.14224 0.17791,-0.28448 0.28467,-0.42672a4.8438,4.8438 0 0 0 0.1423,-0.60456zm0.5338,0.17778a1.09815,1.09815 0 0 1 0.07115,0.39117a1.48753,1.48753 0 0 0 -0.14237,0.35563a0.81597,0.81597 0 0 0 0.14237,0.49787a1.51713,1.51713 0 0 1 -0.42704,-0.39117a0.38357,0.38357 0 0 1 0,-0.39117a2.28318,2.28318 0 0 1 0.35589,-0.46245l0,0.00013zm-0.14237,-1.38691a3.07844,3.07844 0 0 1 0.24932,0.60456a0.49352,0.49352 0 0 1 -0.07122,0.39117l-0.32021,0.42678a0.71471,0.71471 0 0 1 -0.14237,-0.28454a1.72899,1.72899 0 0 1 0.03561,-0.42672c0.03535,-0.10682 0.17772,-0.3913 0.24887,-0.71139l0,0.00013zm-0.39143,0a1.12558,1.12558 0 0 1 0.14237,0.56896a2.1208,2.1208 0 0 1 -0.32028,0.53341a3.92056,3.92056 0 0 1 -0.07115,-0.64011a0.51826,0.51826 0 0 1 0.24906,-0.46239l0,0.00013zm-0.99612,-0.49774a0.85759,0.85759 0 0 1 0.35582,0.35563a0.94408,0.94408 0 0 0 0.21352,0.17785a1.61002,1.61002 0 0 0 -0.10676,0.56896c-0.07115,-0.17778 -0.17791,-0.35563 -0.21352,-0.56896c0,-0.1423 -0.07115,-0.24893 -0.17791,-0.35563a1.06427,1.06427 0 0 0 -0.28467,-0.14224c0.07096,-0.00026 0.14211,-0.03561 0.21352,-0.03561zm1.13868,-0.42672a1.03934,1.03934 0 0 1 0.32021,0.07109a0.86373,0.86373 0 0 1 0.32028,0.49787c-0.10676,-0.03554 -0.24932,-0.07109 -0.32028,-0.14224a0.97106,0.97106 0 0 1 -0.32041,-0.42697l0.00019,0.00026zm-0.35582,-0.07115a0.98704,0.98704 0 0 1 0.49812,0.56896a0.93168,0.93168 0 0 1 -0.07115,0.53341a1.15709,1.15709 0 0 0 -0.1423,-0.49787c-0.14256,-0.17797 -0.21371,-0.39137 -0.28486,-0.60476l0.00019,0.00026zm-1.88587,-2.24035c0.10676,0.07109 0.14237,0.17778 0.17791,0.28448a1.09412,1.09412 0 0 1 -0.17791,0.42672c-0.07115,0.1067 -0.1423,0.21339 -0.1423,0.35563c0,0.07115 0.07115,0.14224 0.10676,0.21339a0.56519,0.56519 0 0 1 -0.35589,-0.28448a0.40115,0.40115 0 0 1 0.10676,-0.39117a1.46848,1.46848 0 0 1 0.24932,-0.39124a0.45107,0.45107 0 0 0 0.03503,-0.21358l0.00032,0.00026zm-0.78286,0.31977l0,-0.1067c0.14237,-0.14224 0.28467,-0.24893 0.49819,-0.28448c0.10676,-0.03554 0.17791,0 0.28467,0.07115a0.27201,0.27201 0 0 0 -0.17791,0.07109a2.15724,2.15724 0 0 1 -0.35582,0.24893l-0.24913,0zm0,1.52915a0.66651,0.66651 0 0 1 -0.1423,-0.56896c0.03554,-0.14224 0,-0.28448 -0.03561,-0.42678a1.15709,1.15709 0 0 1 -0.1423,-0.49781a1.7265,1.7265 0 0 1 0.24932,-0.1067a1.13555,1.13555 0 0 0 0.10676,0.49787a0.79859,0.79859 0 0 1 0.07115,0.64011c-0.03612,0.14224 -0.07173,0.32002 -0.10702,0.46226zm-0.24932,-0.46226c-0.10676,-0.17785 -0.39143,0 -0.39143,0c0.07115,-0.17785 0.21352,-0.28454 0.39143,-0.35563l0,0.35563zm2.1706,-1.28022l0,0.14224l-0.21345,0l0,0.21333l-0.10676,0l0,-0.21333l-0.21384,0l0,-0.14224l0.21352,0l0,-0.17785l0.10676,0l0,0.17785l0.21345,0l0.00032,0zm-0.17791,1.10237a2.03674,2.03674 0 0 1 0.14237,-0.49787a0.50599,0.50599 0 0 1 0.21345,-0.07109a0.11354,0.11354 0 0 1 0.10676,0.1067l0,0.03548a2.01711,2.01711 0 0 1 -0.28467,0.46233c-0.03542,-0.03554 -0.10682,-0.03554 -0.17797,-0.03554l0.00006,0zm-0.17791,0c-0.07115,0 -0.1423,0 -0.17791,0.03561a3.24753,3.24753 0 0 1 -0.28467,-0.46233l0,-0.03554a0.11354,0.11354 0 0 1 0.10676,-0.1067a0.5065,0.5065 0 0 1 0.21352,0.07109a2.03929,2.03929 0 0 1 0.14224,0.49787l0.00006,0zm0.10676,-0.67565c0.07115,0 0.1423,0.03554 0.1423,0.1067c-0.03554,0.14224 -0.1067,0.24893 -0.17791,0.39117a1.31538,1.31538 0 0 1 -0.17791,-0.39117q0.05332,-0.1067 0.21345,-0.1067l0.00006,0zm0,1.81363a1.50703,1.50703 0 0 1 0.49819,0.21339a0.61275,0.61275 0 0 1 0.28441,0.49768a1.08153,1.08153 0 0 0 -0.28467,-0.28448a1.18266,1.18266 0 0 1 -0.498,-0.42659l0.00006,0zm0.46258,0.07115l0.24932,0.07109l0,-0.14224c0.07115,0 0.1067,0.03554 0.17791,0.03554a1.80276,1.80276 0 0 0 0.32021,0.56896a0.50503,0.50503 0 0 1 -0.07115,0.21339a2.96458,2.96458 0 0 0 -0.28467,-0.42678a1.11158,1.11158 0 0 0 -0.39169,-0.31996l0.00006,0zm-0.60495,-0.1067a2.03463,2.03463 0 0 0 0.24932,0.28448a0.74284,0.74284 0 0 0 -0.71171,0.46233c-0.10676,-0.14224 -0.10676,-0.32009 -0.03554,-0.49787a0.62259,0.62259 0 0 1 0.49787,-0.24893l0.00006,0zm-0.32021,-0.28448c0.10676,0.07109 0.17791,0.14224 0.28467,0.21333l-0.32028,0.1067a0.59012,0.59012 0 0 0 -0.74725,0a0.41617,0.41617 0 0 1 -0.14237,-0.60456a0.4411,0.4411 0 0 1 0.49819,-0.10663a0.76982,0.76982 0 0 0 0.42697,0.39117l0.00006,0zm-0.10676,-0.53341a1.09361,1.09361 0 0 0 0.10676,0.46226a0.63288,0.63288 0 0 1 -0.24932,-0.28448c-0.03542,-0.17778 -0.03542,-0.24893 0.14249,-0.17778l0.00006,0zm0.10676,-0.07115a2.29501,2.29501 0 0 0 0.71164,0.1067a4.96034,4.96034 0 0 0 1.24544,-0.14224a0.32053,0.32053 0 0 1 -0.21326,0.21365a0.27208,0.27208 0 0 1 0.17791,0.07115a0.36439,0.36439 0 0 1 -0.21352,0.17778a0.83988,0.83988 0 0 0 0.56934,0.24893a0.46795,0.46795 0 0 1 -0.42704,0.1067a0.79104,0.79104 0 0 1 -0.46258,-0.28448a0.4505,0.4505 0 0 1 0.03561,0.21339c-0.10676,0 -0.17791,-0.07115 -0.24932,-0.1423a0.51443,0.51443 0 0 1 0.07115,0.24893a0.38197,0.38197 0 0 1 -0.21352,-0.07109a0.32015,0.32015 0 0 1 0.03561,0.17778a1.9498,1.9498 0 0 1 -0.5338,-0.28448l0,0.17778c0.03561,0.03529 -0.49819,-0.03586 -0.53373,-0.81821l0.00006,0zm2.0283,-0.17778a1.17084,1.17084 0 0 1 -0.60495,0.14224a1.00872,1.00872 0 0 1 0.32028,-0.35563a0.90496,0.90496 0 0 1 0.60488,-0.14224c-0.10682,0.14256 -0.21358,0.28448 -0.32028,0.35563l0.00006,0zm0.28467,-0.7468l-0.10676,-0.64011c-0.03561,-0.1423 -0.10676,-0.28454 -0.14237,-0.42678c0.10676,0.03554 0.17791,0.14224 0.21352,0.28448a5.04057,5.04057 0 0 1 0.17791,0.78241l-0.14249,0l0.00019,0zm-0.35589,0.07109a3.7819,3.7819 0 0 1 -0.32021,-0.88904c0.03554,-0.07109 0.07115,-0.14224 0.17791,-0.14224a0.15899,0.15899 0 0 1 0.17791,0c0.10676,0.28448 0.21352,0.60456 0.21352,0.92459c-0.07128,0.03561 -0.17797,0.07115 -0.24919,0.1067l0.00006,0zm0.71171,0.39117a0.10676,0.10676 0 1 1 -0.10676,-0.1067a0.09436,0.09436 0 0 1 0.1067,0.1067l0.00006,0zm-2.5977,0.39111a1.21424,1.21424 0 0 1 0.71171,0a1.21156,1.21156 0 0 1 -0.71171,0zm7.50825,6.50784c0.35582,0.35563 1.13868,1.20907 1.06759,2.09811a2.0035,2.0035 0 0 1 -1.03199,-0.74674a9.2577,9.2577 0 0 0 -0.60488,-0.99574l0.32028,0a2.8662,2.8662 0 0 0 0.88936,1.06689s0.07115,-0.42672 -0.88955,-1.35137a0.18833,0.18833 0 0 0 -0.07122,-0.10663a0.98634,0.98634 0 0 0 0.32041,0.03548zm-3.09583,-1.03128a0.34144,0.34144 0 0 0 0.35582,0.10663l0,0.1067c0,0.1067 0,0.24893 0.07122,0.35563l0.03554,0.07115l0.07122,0a0.50612,0.50612 0 0 0 0.21345,-0.07115a1.19673,1.19673 0 0 0 -0.28467,0.60456c-0.10676,0.60456 -0.21352,0.60456 -0.21352,0.60456a5.66649,5.66649 0 0 0 -0.42697,-0.96019c-0.10676,-0.21339 -0.14237,-0.46233 -0.03561,-0.67565a0.74527,0.74527 0 0 0 0.21352,-0.14218l0,-0.00006zm2.77555,-2.56043c0.10676,-0.17785 0.21352,-0.35563 0.24932,-0.56896a6.62822,6.62822 0 0 1 0.24932,-0.78235a1.40347,1.40347 0 0 1 0.81828,-0.67572a1.61443,1.61443 0 0 1 -0.10676,0.99574a3.12607,3.12607 0 0 1 -1.21015,1.03135l0,-0.00006zm0.46258,0.24887l-0.07115,-0.03554a0.67086,0.67086 0 0 0 -0.28467,-0.07109a4.86209,4.86209 0 0 1 0.74725,-0.53348a2.87867,2.87867 0 0 1 0.96077,-0.39117a2.84274,2.84274 0 0 1 -0.46258,0.78241a0.83592,0.83592 0 0 1 -0.88962,0.24893l0,-0.00006zm-0.17791,0.71126c-0.03554,-0.03554 -0.10676,-0.03554 -0.17791,-0.03554a1.33935,1.33935 0 0 0 0.32028,-0.53341a1.03851,1.03851 0 0 0 0.56934,-0.03561a0.71804,0.71804 0 0 1 0.60495,0.07115a0.65059,0.65059 0 0 1 -0.5338,0.46233c-0.24906,0.1423 -0.49819,0.1423 -0.78286,0.07115l0,-0.00006zm0.10676,0.56896c0.10676,-0.07115 0.14237,-0.17785 0.21352,-0.28454l0.03561,-0.07109c0.24932,-0.14224 0.56934,-0.14224 0.85401,-0.07115c0.17791,0.03554 0.32021,0.17785 0.42697,0.32009a1.44656,1.44656 0 0 1 -0.6761,0.28448a2.15238,2.15238 0 0 1 -0.85375,-0.17766l-0.00026,-0.00013zm-0.1423,0.49781a0.77538,0.77538 0 0 0 -0.17791,-0.28448a2.38802,2.38802 0 0 1 0.71164,0a0.84346,0.84346 0 0 1 0.81828,0.60456a0.82543,0.82543 0 0 1 -0.5694,0.1067a1.08473,1.08473 0 0 1 -0.7826,-0.42665l0,-0.00013zm-0.60495,0.32009a1.34888,1.34888 0 0 0 0.53373,0l0.07122,0l0,-0.07115c0.28467,0.21339 0.56934,0.24893 0.71164,0.46233c-0.10676,0.14224 -0.28467,0.24893 -0.46258,0.21339c-0.32028,-0.03561 -0.60495,-0.17785 -0.78286,-0.42678c-0.03554,-0.07096 -0.07115,-0.1065 -0.07115,-0.17766l0,-0.00013zm0.07115,0.35563c0.17791,0.07109 0.32028,0.14224 0.49819,0.21333a0.41911,0.41911 0 0 1 0.21352,0.53348a0.89895,0.89895 0 0 1 -0.85401,-0.42678a0.52932,0.52932 0 0 0 0.1423,-0.31989l0,-0.00013zm-0.24932,0.39117c0.60495,0.53341 0.53373,0.7468 0.49819,0.7468c-0.24932,0.03554 -0.5338,-0.07115 -0.74732,-0.24893a0.92056,0.92056 0 0 1 -0.24932,-0.39117c-0.03561,-0.1067 0,-0.17785 0.03561,-0.28454c0.14281,0.10682 0.28518,0.14243 0.46309,0.17797l-0.00026,-0.00013zm-0.64056,-0.03554c0.03561,0.10663 0.10676,0.21333 0.10676,0.35557a0.88054,0.88054 0 0 1 0,0.60456a1.46689,1.46689 0 0 1 -0.24932,0.39117a1.03895,1.03895 0 0 1 -0.24932,-0.42672a1.3451,1.3451 0 0 1 0,-0.53341a0.66958,0.66958 0 0 1 0.07115,-0.28454l0.1423,0.03561l0.03561,0l0.03561,-0.03561l0.10721,-0.10663zm-0.49812,-0.03561c0.07115,0.21339 0.07115,0.42678 0.03554,0.71126a1.54584,1.54584 0 0 1 -0.32021,0.7468a0.72456,0.72456 0 0 1 -0.5338,0.21339c0.07115,-0.21339 0.17791,-0.39117 0.21352,-0.60456a5.93614,5.93614 0 0 1 0.17791,-0.64011a2.12112,2.12112 0 0 1 0.32028,-0.53348l0.10676,0.1067zm3.30928,-1.28022a4.69453,4.69453 0 0 0 1.85039,0.17785a5.32563,5.32563 0 0 0 -1.67248,-0.28454c0.03561,-0.03554 0.10676,-0.07109 0.14237,-0.10663c0.49819,0.07109 1.56572,0.07109 1.95715,0.14224a4.68386,4.68386 0 0 1 1.38774,0.53341a4.20792,4.20792 0 0 1 -1.63687,0.1067a11.07133,11.07133 0 0 1 -2.13519,-0.32009a0.94345,0.94345 0 0 0 -0.21345,-0.17778a1.03806,1.03806 0 0 0 0.3206,-0.07102l-0.00026,-0.00013zm0.03561,0.53341c0,-0.03554 -0.03561,-0.03554 -0.03561,-0.07109c0.32028,0.07109 1.13868,0.17778 1.53011,0.28448c0.60495,0.17778 1.13874,0.56896 1.42335,1.13791c0,0 -0.56934,0.17785 -1.67241,-0.32002a9.33869,9.33869 0 0 0 -1.63687,-0.67572a0.60092,0.60092 0 0 0 0.35582,-0.1067a4.12053,4.12053 0 0 0 1.60133,0.42678a2.30396,2.30396 0 0 0 -0.56934,-0.32009a4.22415,4.22415 0 0 0 -0.99612,-0.35544l-0.00026,-0.00013zm-0.60495,0.46233l0,-0.07115l-0.03561,-0.03554c0.28473,0.1067 1.28105,0.49787 1.60133,0.64011a2.13129,2.13129 0 0 1 1.03192,1.31582a1.66071,1.66071 0 0 1 -1.20983,-0.39117c-0.5338,-0.46233 -1.2099,-1.10243 -1.45896,-1.31582l0.07115,-0.07109a6.90042,6.90042 0 0 0 1.53011,0.96013a1.42636,1.42636 0 0 0 -0.49819,-0.53341a3.94166,3.94166 0 0 0 -1.03167,-0.49774l-0.00026,-0.00013zm-0.53373,0.56896c0.81828,0.88904 1.31691,1.03128 1.24544,0.96013c-0.32028,-0.60456 -1.06759,-0.99574 -1.31691,-1.13791a0.27137,0.27137 0 0 0 -0.07115,-0.17778l0.03561,0c0.10676,0.03554 0.24932,0 0.35582,-0.03561a6.42883,6.42883 0 0 1 1.17429,1.03135a2.21305,2.21305 0 0 1 0.56934,1.28022c-0.42704,-0.03554 -0.85401,-0.24893 -1.10307,-0.60456c-0.28473,-0.39117 -0.5694,-0.78235 -0.92523,-1.13791l0,-0.03554a0.21365,0.21365 0 0 0 0.03612,-0.14218l-0.00026,-0.00019zm-0.85401,1.88478c0.1067,-0.39124 -0.14237,-0.92465 -0.28467,-1.42252a0.26926,0.26926 0 0 0 0.1423,0.07115c0.35582,0.60456 0.78286,1.42246 0.42704,2.02702a1.2939,1.2939 0 0 1 -0.56934,-0.49787c-0.17797,-0.35563 -0.24932,-1.03128 -0.28473,-1.67139l0,-0.10657l0.03561,0.03554a0.49224,0.49224 0 0 1 0.14237,0.1067s0.07141,1.1025 0.39169,1.45813l-0.00026,-0.00019zm-0.85407,-0.81828a0.77353,0.77353 0 0 0 0.17797,-0.28448c0.03554,0.42672 0.1423,1.49361 -0.21352,1.81363c0,0 -0.24932,-0.17778 -0.32028,-1.74254c0.07115,0.07115 0.10676,0.17785 0.17791,0.24893a1.77252,1.77252 0 0 0 0.10676,0.8535s0.17817,-0.10618 0.07115,-0.88853l0,-0.00051zm-0.64049,0.07115c0.07115,-0.1067 0.14237,-0.17785 0.17791,-0.28454c-0.07115,0.71126 -0.10676,1.17359 -0.49819,1.63585c0,0 -0.21345,-0.32002 -0.07115,-1.03128l0.21352,-0.1067c-0.03561,0.21339 -0.07115,0.39117 -0.03561,0.60456c-0.03529,0.00051 0.10702,-0.10618 0.21377,-0.81738l-0.00026,-0.00051zm2.0283,-5.83219c0.10676,0.53348 -0.03561,1.10243 -0.42704,1.45806c-0.1067,0.1067 -0.24932,0.21339 -0.32021,0.35563c0.24932,-0.21339 0.60495,-0.28448 0.88955,-0.14224a0.7991,0.7991 0 0 1 -0.56934,0.67565a0.93795,0.93795 0 0 1 0.74732,0.21339a0.85439,0.85439 0 0 1 -0.71171,0.42672c0.42704,0.35563 0.35582,0.60456 0.35582,0.60456c-0.24932,0.1067 -0.53373,0.03554 -0.74725,-0.1067a0.69106,0.69106 0 0 1 0.07115,0.8535a0.92018,0.92018 0 0 1 -0.6761,-0.46233a0.50599,0.50599 0 0 1 -0.17791,0.56896c-0.1423,-0.03561 -0.28467,-0.17785 -0.39143,-0.32009a0.73574,0.73574 0 0 1 -0.49812,0.35563c-0.07122,-0.17785 -0.10676,-0.35563 -0.03561,-0.53341c-0.14237,0.07109 -0.32028,0.03554 -0.39143,-0.07115a3.88323,3.88323 0 0 0 0.28467,-0.53341c0.53373,0.21339 1.20983,0.1067 1.3522,-0.1067s-0.14237,-0.7468 -0.28467,-1.10243c-0.14237,-0.24893 -0.03561,-0.6045 0.21352,-0.74674c0.81866,-0.56845 1.13894,-0.99516 1.31685,-1.3864l-0.00026,-0.00051zm-9.92798,4.97869a0.98634,0.98634 0 0 0 0.32028,-0.03554a0.18814,0.18814 0 0 0 -0.07115,0.10663c-0.96077,0.92465 -0.88962,1.35137 -0.88962,1.35137a2.86697,2.86697 0 0 0 0.88962,-1.06683l0.32021,0a9.2577,9.2577 0 0 0 -0.60488,0.99574a2.0035,2.0035 0 0 1 -1.03199,0.74674c-0.07096,-0.88853 0.71196,-1.74197 1.06779,-2.09766l-0.00026,-0.00045zm11.17399,-5.4049a11.17067,11.17067 0 0 1 0.99638,-1.63585a9.14806,9.14806 0 0 1 1.24544,-1.38691a2.95915,2.95915 0 0 1 -0.10676,1.92033a5.59195,5.59195 0 0 1 -2.13519,2.13372l-0.10676,0.03561c-0.10676,0.03554 -0.21352,0.10663 -0.32028,0.14224a1.58055,1.58055 0 0 0 0.28473,-0.39117a2.46326,2.46326 0 0 0 0.10676,-0.28454l0.03554,-0.1067a9.32763,9.32763 0 0 0 0.88962,-0.78235a2.76168,2.76168 0 0 0 0.74706,-1.17352a2.58965,2.58965 0 0 0 -0.64049,0.60456c-0.35589,0.42672 -0.71171,0.88904 -0.99638,1.24467l0,-0.32009l0.00032,0zm0.32028,1.45806a5.40189,5.40189 0 0 0 0.74725,-0.42678a5.09108,5.09108 0 0 0 0.85401,-0.56896a4.58049,4.58049 0 0 0 0.56934,-0.60456a3.92874,3.92874 0 0 0 -0.92516,0.53341c-0.28467,0.24893 -0.78286,0.60456 -1.17429,0.92465l0.14237,-0.42678a10.35866,10.35866 0 0 0 1.38774,-1.24467c0.21352,-0.24893 1.10314,-0.99574 1.49457,-1.06683a2.20007,2.20007 0 0 1 -0.28473,1.42246c-0.7828,0.88904 -1.81478,1.45806 -2.95346,1.70687c0.03529,-0.07102 0.10644,-0.17772 0.14205,-0.24881l0.00032,0zm-0.07122,0.81789c0.39143,-0.07109 0.78286,-0.14224 1.17429,-0.24893a4.55626,4.55626 0 0 0 0.85401,-0.39117c-0.32021,0 -0.60488,0.07115 -0.88955,0.14224c-0.39143,0.14224 -0.81828,0.24893 -1.2099,0.42678a0.68403,0.68403 0 0 0 -0.42697,-0.1423a22.23298,22.23298 0 0 1 2.13519,-0.78235a7.34447,7.34447 0 0 1 2.31303,-0.39117s-0.17797,0.56896 -1.28105,1.03128c-0.81828,0.32009 -2.31297,0.53348 -3.09583,0.8535a0.84091,0.84091 0 0 0 0.42646,-0.49787l0.00032,0zm0,0.64011l-0.21345,-0.1067c0.78267,-0.28448 1.60094,-0.42672 2.41922,-0.49812a5.74787,5.74787 0 0 1 1.74363,0.07115a5.3838,5.3838 0 0 1 -1.60133,0.71126a8.03373,8.03373 0 0 1 -2.06384,0.07109a0.62515,0.62515 0 0 0 -0.14237,-0.17778a7.23521,7.23521 0 0 0 1.95715,-0.28448c-0.71152,-0.03535 -1.42322,0.00026 -2.09932,0.21358l0.00032,0zm-12.56154,-2.91606l0,0.32009c-0.28467,-0.35563 -0.64049,-0.81828 -0.99638,-1.24467a2.58965,2.58965 0 0 0 -0.64049,-0.60456a2.76219,2.76219 0 0 0 0.74725,1.17352a9.32763,9.32763 0 0 0 0.88962,0.78235l0.03561,0.1067a2.43987,2.43987 0 0 0 0.10676,0.28454a1.57902,1.57902 0 0 0 0.28467,0.39117c-0.10676,-0.03561 -0.21352,-0.1067 -0.32028,-0.14224l-0.10676,-0.03561a5.59195,5.59195 0 0 1 -2.13519,-2.13378a2.95915,2.95915 0 0 1 -0.10676,-1.92033a9.1448,9.1448 0 0 1 1.24544,1.38691a11.17067,11.17067 0 0 1 0.99651,1.63591zm1.45896,1.81369a3.12677,3.12677 0 0 1 -1.20964,-1.03135a1.61392,1.61392 0 0 1 -0.1067,-0.99574a1.40353,1.40353 0 0 1 0.81828,0.67572a6.64056,6.64056 0 0 1 0.24932,0.78235c0.03529,0.21339 0.14205,0.39117 0.24881,0.56902l-0.00006,0zm-0.46258,0.24887a0.83592,0.83592 0 0 1 -0.88962,-0.24887c-0.21352,-0.21339 -0.35582,-0.49787 -0.46258,-0.78241c0.35582,0.1067 0.6761,0.21339 0.96077,0.39117a4.86209,4.86209 0 0 1 0.74725,0.53348a0.67086,0.67086 0 0 0 -0.28467,0.07109l-0.07115,0.03554zm0.1423,0.71126a0.92363,0.92363 0 0 1 -0.74725,-0.07109a0.65053,0.65053 0 0 1 -0.53373,-0.46233a0.71784,0.71784 0 0 1 0.60488,-0.07115a1.03851,1.03851 0 0 0 0.56934,0.03561a0.97867,0.97867 0 0 0 0.28467,0.53341c-0.07109,0 -0.14224,0 -0.17785,0.03554l-0.00006,0zm-0.07115,0.56896a1.37943,1.37943 0 0 1 -0.85401,0.17778a1.44656,1.44656 0 0 1 -0.6761,-0.28448c0.10676,-0.14224 0.24932,-0.28454 0.42697,-0.32009c0.28467,-0.07109 0.60495,-0.07109 0.85407,0.07115l0.03554,0.07109a1.97434,1.97434 0 0 0 0.21358,0.28461l-0.00006,-0.00006zm0.14237,0.49781a0.77353,0.77353 0 0 1 0.17791,-0.28448a2.38847,2.38847 0 0 0 -0.71171,0a0.84333,0.84333 0 0 0 -0.81828,0.60456a0.82531,0.82531 0 0 0 0.56934,0.1067a1.15613,1.15613 0 0 0 0.7828,-0.42672l-0.00006,-0.00006zm0.7828,1.06689c0.17791,-0.03554 0.32028,-0.07115 0.46265,-0.17785c0.03554,0.1067 0.07115,0.17785 0.03554,0.28454a0.92018,0.92018 0 0 1 -0.24932,0.39117c-0.21352,0.17778 -0.49819,0.28448 -0.74732,0.24893c-0.03522,0.00038 -0.10638,-0.21333 0.49851,-0.74674l-0.00006,-0.00006zm0.64056,-0.03554l0.10676,0.10663l0.03554,0.03561l0.03561,0l0.10676,-0.03561a0.67047,0.67047 0 0 1 0.07115,0.28454a1.3451,1.3451 0 0 1 0,0.53341a1.04036,1.04036 0 0 1 -0.24932,0.42672a1.46708,1.46708 0 0 1 -0.24932,-0.39117a0.88124,0.88124 0 0 1 0,-0.60456a2.45789,2.45789 0 0 0 0.14288,-0.3555l-0.00006,-0.00006zm-2.91792,-3.41374c0.03561,0.07109 0.10676,0.17778 0.14237,0.24893c-1.13874,-0.24893 -2.17067,-0.81828 -2.95346,-1.70687a2.20039,2.20039 0 0 1 -0.28467,-1.42246c0.39143,0.07109 1.28105,0.81789 1.49457,1.06683a10.35463,10.35463 0 0 0 1.38774,1.24467l0.14237,0.42678c-0.39143,-0.32009 -0.88962,-0.67572 -1.17429,-0.92465a3.92874,3.92874 0 0 0 -0.92516,-0.53341a4.58049,4.58049 0 0 0 0.56934,0.60456a5.09108,5.09108 0 0 0 0.85401,0.56896c0.17791,0.14179 0.28467,0.21314 0.74725,0.42653l-0.00006,0.00013zm0.03561,0.81789a0.84091,0.84091 0 0 0 0.42697,0.49787c-0.78286,-0.32002 -2.27736,-0.53341 -3.09583,-0.8535c-1.10307,-0.46226 -1.28098,-1.03128 -1.28098,-1.03128a7.34408,7.34408 0 0 1 2.31297,0.39117a22.22652,22.22652 0 0 1 2.13519,0.78235a0.68403,0.68403 0 0 0 -0.42697,0.1423c-0.39143,-0.17785 -0.81828,-0.28454 -1.2099,-0.42678c-0.28461,-0.07109 -0.56934,-0.14224 -0.88955,-0.14224a4.55626,4.55626 0 0 0 0.85401,0.39117c0.3913,0.10657 0.78273,0.17772 1.17416,0.24881l-0.00006,0.00013zm0,0.64011c-0.6761,-0.21333 -1.38781,-0.24893 -2.09945,-0.21333a7.23438,7.23438 0 0 0 1.95708,0.28448a0.62374,0.62374 0 0 0 -0.1423,0.17778a8.03425,8.03425 0 0 1 -2.06391,-0.07109a5.38335,5.38335 0 0 1 -1.60126,-0.71126a5.74793,5.74793 0 0 1 1.74369,-0.07154c0.81828,0.07115 1.63687,0.21339 2.41966,0.49787l-0.21352,0.10708zm0.07115,0.64011a1.03844,1.03844 0 0 0 0.32028,0.07115a0.94229,0.94229 0 0 0 -0.21352,0.17778a11.07062,11.07062 0 0 1 -2.13519,0.32009a4.20792,4.20792 0 0 1 -1.63687,-0.1067a4.68424,4.68424 0 0 1 1.38781,-0.53341c0.39137,-0.07115 1.45889,-0.07115 1.95708,-0.14224c0.03561,0.03554 0.10676,0.07109 0.14237,0.10663a5.32595,5.32595 0 0 0 -1.67248,0.28454a4.63252,4.63252 0 0 0 1.85058,-0.17797l-0.00006,0.00013zm0,0.53341a3.34106,3.34106 0 0 0 -0.99638,0.35563a2.3028,2.3028 0 0 0 -0.56934,0.32009a4.12053,4.12053 0 0 0 1.60133,-0.42678a0.60092,0.60092 0 0 0 0.35582,0.1067a9.33665,9.33665 0 0 0 -1.63655,0.67572c-1.10314,0.49787 -1.67248,0.32002 -1.67248,0.32002c0.28467,-0.56896 0.81828,-0.96019 1.42342,-1.13791c0.39137,-0.1067 1.20983,-0.21339 1.53011,-0.28448l-0.03593,0.07102zm0.56934,0.46233a3.01963,3.01963 0 0 0 -0.99638,0.53341a1.42559,1.42559 0 0 0 -0.49812,0.53348a6.90221,6.90221 0 0 0 1.53011,-0.96019l0.07115,0.07109c-0.24932,0.21339 -0.88962,0.8535 -1.45896,1.31582a1.66084,1.66084 0 0 1 -1.20983,0.39117a2.13116,2.13116 0 0 1 1.03192,-1.31576c0.32028,-0.1423 1.31691,-0.53348 1.60126,-0.64017l-0.03554,0.03561l-0.03561,0.03554zm1.38781,2.4538c0.32021,-0.35563 0.39137,-1.45806 0.39137,-1.45806l0.14237,-0.1067l0.03561,-0.03554l0,0.1067c-0.03561,0.64011 -0.10676,1.31576 -0.28467,1.67139a1.52314,1.52314 0 0 1 -0.56934,0.49755c-0.35582,-0.60456 0.07122,-1.42246 0.42704,-2.02702l0.14237,-0.07115c-0.14237,0.49806 -0.39143,1.03147 -0.28467,1.42271l-0.00006,0.00013zm0.85401,-0.81828c-0.10676,0.78235 0.07115,0.88904 0.07115,0.88904a1.77252,1.77252 0 0 0 0.10676,-0.8535c0.07115,-0.07109 0.10676,-0.17778 0.17791,-0.24893c-0.07115,1.56476 -0.32028,1.74254 -0.32028,1.74254c-0.35582,-0.32002 -0.24932,-1.38723 -0.21345,-1.81363a0.77263,0.77263 0 0 0 0.17797,0.28467l-0.00006,-0.00019zm0.64049,0.07115c0.10676,0.7112 0.24932,0.81789 0.21352,0.81789c0.03554,-0.21339 0,-0.39117 -0.03561,-0.60456l0.21352,0.1067c0.14237,0.71126 -0.07115,1.03128 -0.07115,1.03128c-0.39143,-0.46226 -0.42704,-0.92459 -0.49819,-1.63585a0.77512,0.77512 0 0 0 0.17797,0.28473l-0.00006,-0.00019zm0.24855,-1.29844a0.42307,0.42307 0 0 0 0.17849,0.05376l0.07096,0l0.03561,-0.07115c0.07115,-0.1067 0.07115,-0.24893 0.07115,-0.35563l0,-0.1067a0.34144,0.34144 0 0 0 0.35582,-0.10663a0.74616,0.74616 0 0 0 0.21352,0.14224c0.10676,0.21333 0.07115,0.46226 -0.03561,0.67565a5.67161,5.67161 0 0 0 -0.42697,0.96019s-0.10676,0 -0.21352,-0.60456a1.22179,1.22179 0 0 0 -0.26658,-0.58571a0.29273,0.29273 0 0 1 -0.1074,-0.01323c0.07032,0.10484 0.1331,0.20962 0.19607,0.31446a5.93614,5.93614 0 0 1 0.17791,0.64011a2.05349,2.05349 0 0 0 0.21352,0.60456c-0.17791,0 -0.39143,-0.07115 -0.49819,-0.21339a1.54654,1.54654 0 0 1 -0.32028,-0.7468a1.64934,1.64934 0 0 1 -0.03554,-0.71126l0.05785,-0.05753a0.29311,0.29311 0 0 1 -0.02231,-0.22662c-0.10676,0.14224 -0.24932,0.28448 -0.39143,0.32009a0.50612,0.50612 0 0 1 -0.17791,-0.56896a0.92005,0.92005 0 0 1 -0.6761,0.46233a0.73696,0.73696 0 0 1 -0.11341,-0.41751a0.97439,0.97439 0 0 1 -0.32111,0.2786c0.08259,-0.03669 0.16487,-0.07333 0.25661,-0.11002a0.529,0.529 0 0 0 0.14243,0.31983a0.89902,0.89902 0 0 1 -0.85407,0.42678a0.41911,0.41911 0 0 1 0.21352,-0.53348c0.01918,-0.00754 0.03753,-0.01515 0.05581,-0.02276a1.30777,1.30777 0 0 1 -0.26933,0.05837c-0.10676,0.03554 -0.24932,0 -0.35582,-0.03561a6.43113,6.43113 0 0 0 -1.17429,1.03135a2.21343,2.21343 0 0 0 -0.56928,1.28022c0.42704,-0.03554 0.85401,-0.24893 1.10314,-0.60456c0.28467,-0.39117 0.56934,-0.78235 0.92516,-1.13791l0,-0.03554a0.21365,0.21365 0 0 1 -0.03561,-0.14224c-0.81828,0.88904 -1.31659,1.03128 -1.24544,0.96013c0.32028,-0.60456 1.06759,-0.99574 1.31691,-1.13791a0.27137,0.27137 0 0 1 0.07115,-0.17778l-0.01777,0c0.76982,-0.59504 0.83266,-0.74329 0.94293,-0.8535c-0.21345,0.14224 -0.49819,0.21339 -0.74725,0.1067c0,0 -0.07115,-0.24893 0.35582,-0.60456a0.8542,0.8542 0 0 1 -0.71164,-0.42672a0.93782,0.93782 0 0 1 0.74725,-0.21339a0.89767,0.89767 0 0 1 -0.60495,-0.67565c0.28467,-0.14224 0.64056,-0.07115 0.88962,0.14224c-0.07115,-0.14224 -0.21352,-0.24893 -0.32028,-0.35563a1.63016,1.63016 0 0 1 -0.32021,-1.45806c0.17791,0.39124 0.49819,0.81828 1.31691,1.38723c0.24932,0.14224 0.35582,0.49781 0.21352,0.74674c-0.14237,0.35563 -0.42704,0.88904 -0.28467,1.10243s0.78286,0.32009 1.28105,0.1067a3.88323,3.88323 0 0 0 0.28467,0.53341c-0.07122,0.1067 -0.24932,0.14224 -0.39143,0.07115a0.30366,0.30366 0 0 1 0.03554,0.46226a0.31536,0.31536 0 0 1 -0.21441,0.1237l-0.00013,-0.00019zm-2.31214,5.96727c-0.0179,-0.00166 -0.03561,-0.00377 -0.05306,-0.00639c0.01777,0.00198 0.03548,0.00409 0.05312,0.00658l-0.00006,-0.00019zm0.53348,0.17938l-0.07115,-0.01183q-0.03676,-0.02199 -0.07524,-0.04187c-0.02333,0.07742 -0.13828,0.07742 -0.13828,0.07742l-0.67604,0a0.4037,0.4037 0 0 0 -0.10676,-0.28448a2.16363,2.16363 0 0 1 -0.64049,-1.10243a2.303,2.303 0 0 1 0.24932,-1.28022a1.0541,1.0541 0 0 0 0.07115,-0.56896c0.07122,0.24893 0.17797,0.46226 0.39143,0.6045a0.87658,0.87658 0 0 0 0.6761,0.32009a1.20229,1.20229 0 0 0 -0.42697,0.21339a1.57102,1.57102 0 0 0 -0.39143,0.85344a1.03505,1.03505 0 0 1 0.60495,-0.49787c0.49812,-0.14224 1.03192,0.17785 1.17422,0.67572c-0.03554,0.03554 -0.1423,0.32002 -0.17791,0.39117l0,-0.14224a0.74725,0.74725 0 0 0 -1.4945,0a0.7431,0.7431 0 0 0 0.15937,0.48112a0.7236,0.7236 0 0 1 0.33882,-0.19664c0.35582,-0.07115 0.42697,0.14224 0.64049,0.21339s0.32021,-0.07115 0.49819,-0.49787a5.2578,5.2578 0 0 1 0.6761,-1.24467a0.67086,0.67086 0 0 1 0.28467,-0.07115c0.03554,0 0.07115,0 0.07115,0.03561l0,0.21333a0.71548,0.71548 0 0 1 0.28467,-0.14224c0.10676,-0.03554 0.24932,0.17785 0.17791,0.17785c-0.81828,0.14224 -1.17429,1.03128 -1.3522,1.38691a3.12952,3.12952 0 0 0 -0.17791,0.53341l-0.42697,-0.07115c0.24932,0.07115 0.32021,0.17785 0.28461,0.21339a0.50452,0.50452 0 0 1 -0.39137,-0.03554c-0.10676,-0.03561 -0.14237,-0.1067 -0.10676,-0.17785a0.25258,0.25258 0 0 1 0.0709,-0.02353l-0.00006,-0.00019zm8.64009,0.03669l-0.34898,0.05817a3.12952,3.12952 0 0 0 -0.17791,-0.53341c-0.17797,-0.35563 -0.5338,-1.24467 -1.3522,-1.38691c-0.07122,0 0.07115,-0.21339 0.17791,-0.17785a0.71548,0.71548 0 0 1 0.28467,0.14224l0,-0.21333c0,-0.03561 0.03554,-0.03561 0.07115,-0.03561c0.10676,0 0.21352,0 0.28467,0.07115a5.2578,5.2578 0 0 1 0.6761,1.24467c0.17791,0.42672 0.28467,0.56896 0.49819,0.49787s0.32028,-0.28454 0.64049,-0.21339a0.72392,0.72392 0 0 1 0.33882,0.19664a0.7431,0.7431 0 0 0 0.15937,-0.48112a0.74725,0.74725 0 0 0 -1.4945,0l0,0.14224c-0.03561,-0.07115 -0.17797,-0.35563 -0.17797,-0.39117c0.14237,-0.49787 0.6761,-0.81828 1.17429,-0.67572a1.03505,1.03505 0 0 1 0.60495,0.49787a1.57147,1.57147 0 0 0 -0.39143,-0.85344a1.2028,1.2028 0 0 0 -0.42697,-0.21339a0.87664,0.87664 0 0 0 0.6761,-0.32009c0.21345,-0.14224 0.32021,-0.35557 0.39137,-0.6045a1.0541,1.0541 0 0 0 0.07122,0.56896a2.303,2.303 0 0 1 0.24932,1.28022a2.16408,2.16408 0 0 1 -0.64049,1.10243a0.4037,0.4037 0 0 0 -0.10676,0.28448l-0.67629,0s-0.11507,0 -0.13828,-0.07742q-0.03836,0.01988 -0.07524,0.04187l-0.09078,0.01509a0.25961,0.25961 0 0 1 0.05517,0.02046c0.03561,0.07115 0,0.14224 -0.1067,0.17785c-0.10676,0.07109 -0.24932,0.07109 -0.39143,0.03554c-0.0335,-0.03331 0.02749,-0.12965 0.24222,-0.20022l-0.00006,-0.00019z"/>
  </g>
 </g>
</svg>