<svg width="32" height="32" xmlns="http://www.w3.org/2000/svg">

 <g>
  <title>Layer 1</title>
  <ellipse stroke-width="0" ry="16" rx="16" id="svg_29" cy="16" cx="16" stroke="#000" fill="#fff"/>
  <g stroke="null" id="svg_28">
   <g stroke="null" id="Lines">
    <path stroke="null" id="svg_1" fill="#2e9ad0" d="m19.03849,25.78328l-6.46672,0l-5.21786,-3.82358l-1.98877,-6.17589l1.9845,-6.17589l5.21786,-3.82358l6.471,0l5.21786,3.82358l1.9845,6.17589l-1.9845,6.17589l-0.07271,0.07271l-5.14515,3.75087zm-6.32131,-0.4448l6.17589,0l4.99973,-3.67388l1.91179,-5.88078l-1.91179,-5.88078l-4.99973,-3.67388l-6.17589,0l-4.99546,3.67388l-1.91179,5.88078l1.91179,5.88078l4.99546,3.67388z" class="st0"/>
    <path stroke="null" id="svg_2" fill="#2e9ad0" d="m26.98076,24.75254l-3.01524,-2.72013l-2.94253,-1.10345l-5.21786,0.66292l-5.29057,-0.66292l-2.94253,1.10345l-0.14542,-0.44052l3.01096,-1.17616l0.07698,0l5.29057,0.73563l5.29484,-0.73563l0.07271,0.07271l3.08795,1.17616l3.01096,2.79284l-0.29083,0.29511z" class="st0"/>
    <path stroke="null" id="svg_3" fill="#2e9ad0" d="m18.89308,26.0014l-3.08795,-4.2641l-3.23336,4.2641l-2.35231,-5.21786l0.44052,-0.2224l2.0572,4.55921l3.08795,-4.19139l3.01524,4.19139l2.0572,-4.55921l2.79284,-5.58567l0.66292,6.83454l-0.44052,0l-0.51751,-5.21786l-2.0572,4.19139l-2.42502,5.21786z" class="st0"/>
    <path stroke="null" id="svg_4" fill="#2e9ad0" d="m5.66025,15.56141l20.43518,0l0,0.44052l-20.43518,0l0,-0.44052z" class="st0"/>
    <path stroke="null" id="svg_5" fill="#2e9ad0" d="m23.67041,16.59215l-2.57044,-5.07244l-2.2069,4.77733l-3.08795,-5.51297l-3.16065,5.51297l-2.2069,-4.77733l-2.57044,5.07244l-0.59022,-6.76183l0.4448,-0.07271l0.44052,5.29057l2.27533,-4.48223l2.2069,4.77733l3.16065,-5.44026l3.01524,5.44026l2.2796,-4.77733l2.27533,4.40952l0.36782,-5.21786l0.4448,0l-0.51751,6.83454z" class="st0"/>
    <path stroke="null" id="svg_6" fill="#2e9ad0" d="m20.87757,11.15189l-2.0572,-4.63192l-3.01524,4.2641l-3.08795,-4.2641l-2.0572,4.63192l-0.36782,-0.21812l2.2796,-5.29484l3.23336,4.33681l3.08795,-4.33681l2.42502,5.29484l-0.44052,0.21812zm3.01524,10.65812l-0.51751,-5.21786l-2.27533,4.55921l-2.2796,-4.85432l-3.01524,5.51297l-3.16065,-5.51297l-2.2069,4.85432l-2.27533,-4.55921l-0.44052,5.21786l-0.4448,0l0.59022,-6.83454l2.57044,5.14515l2.2069,-4.77733l3.16065,5.51297l3.08795,-5.51297l2.2069,4.85004l2.57044,-5.21786l0.66292,6.83454l-0.44052,0z" class="st0"/>
    <path stroke="null" id="svg_7" fill="#2e9ad0" d="m21.09998,11.30158l-5.36755,-0.73563l-5.29484,0.73563l-3.01096,-1.32585l0.14542,-0.44052l2.94253,1.24886l5.21786,-0.65865l5.36755,0.65865l2.86554,-1.24886l0.2224,0.44052l-3.08795,1.32585z" class="st0"/>
   </g>
   <g stroke="null" id="Circles">
    <circle stroke="null" id="svg_8" fill="#2e9ad0" r="0.88105" cy="25.56088" cx="12.64448" class="st0"/>
    <circle stroke="null" id="svg_9" fill="#2e9ad0" r="0.88105" cy="25.56088" cx="18.82037" class="st0"/>
    <circle stroke="null" id="svg_10" fill="#2e9ad0" r="0.88105" cy="6.07945" cx="12.64448" class="st0"/>
    <circle stroke="null" id="svg_11" fill="#2e9ad0" r="0.88105" cy="6.07945" cx="18.82037" class="st0"/>
    <circle stroke="null" id="svg_12" fill="#2e9ad0" r="0.88105" cy="9.75761" cx="23.96552" class="st0"/>
    <circle stroke="null" id="svg_13" fill="#2e9ad0" r="0.88105" cy="9.75761" cx="7.49933" class="st0"/>
    <circle stroke="null" id="svg_14" fill="#2e9ad0" r="0.88105" cy="21.88699" cx="7.49933" class="st0"/>
    <circle stroke="null" id="svg_15" fill="#2e9ad0" r="0.88105" cy="15.78381" cx="5.66025" class="st0"/>
    <circle stroke="null" id="svg_16" fill="#2e9ad0" r="0.88105" cy="15.78381" cx="26.02272" class="st0"/>
    <circle stroke="null" id="svg_17" fill="#2e9ad0" r="0.88105" cy="15.78381" cx="23.525" class="st0"/>
    <circle stroke="null" id="svg_18" fill="#2e9ad0" r="0.88105" cy="15.78381" cx="8.01256" class="st0"/>
    <circle stroke="null" id="svg_19" fill="#2e9ad0" r="0.88105" cy="15.78381" cx="12.64448" class="st0"/>
    <circle stroke="null" id="svg_20" fill="#2e9ad0" r="0.88105" cy="15.78381" cx="18.82037" class="st0"/>
    <ellipse stroke="null" transform="matrix(0.00685201 -0.0422169 0.0422169 0.00685201 5.77298 13.8934)" id="svg_21" fill="#2e9ad0" ry="20.6" rx="20.6" cy="218.24509" cx="119.48647" class="st0"/>
    <circle stroke="null" id="svg_22" fill="#2e9ad0" r="0.88105" cy="11.07918" cx="10.43758" class="st0"/>
    <circle stroke="null" id="svg_23" fill="#2e9ad0" r="0.88105" cy="11.07918" cx="21.09998" class="st0"/>
    <circle stroke="null" id="svg_24" fill="#2e9ad0" r="0.88105" cy="21.36948" cx="15.80513" class="st0"/>
    <circle stroke="null" id="svg_25" fill="#2e9ad0" r="0.88105" cy="20.63385" cx="10.43758" class="st0"/>
    <circle stroke="null" id="svg_26" fill="#2e9ad0" r="0.88105" cy="20.63385" cx="21.09998" class="st0"/>
    <circle stroke="null" id="svg_27" fill="#2e9ad0" r="1.17616" cy="24.60712" cx="27.12617" class="st0"/>
   </g>
  </g>
 </g>
</svg>