<?xml version="1.0" encoding="UTF-8" standalone="no"?>
<svg
   width="32"
   height="32"
   version="1.1"
   id="svg25"
   sodipodi:docname="qiwi.svg"
   inkscape:version="1.1 (c68e22c387, 2021-05-23)"
   xmlns:inkscape="http://www.inkscape.org/namespaces/inkscape"
   xmlns:sodipodi="http://sodipodi.sourceforge.net/DTD/sodipodi-0.dtd"
   xmlns="http://www.w3.org/2000/svg"
   xmlns:svg="http://www.w3.org/2000/svg">
  <defs
     id="defs29">
    <style
       id="style522">.cls-1{fill:#23292f;}</style>
  </defs>
  <sodipodi:namedview
     id="namedview27"
     pagecolor="#ffffff"
     bordercolor="#666666"
     borderopacity="1.0"
     inkscape:pageshadow="2"
     inkscape:pageopacity="0.0"
     inkscape:pagecheckerboard="0"
     showgrid="false"
     inkscape:zoom="16"
     inkscape:cx="-3.21875"
     inkscape:cy="16.96875"
     inkscape:window-width="1920"
     inkscape:window-height="1009"
     inkscape:window-x="-8"
     inkscape:window-y="-6"
     inkscape:window-maximized="1"
     inkscape:current-layer="layer1" />
  <!-- Created with SVG Editor - http://github.com/mzalive/SVG Editor/ -->
  <g
     id="g8">
    <title
       id="title2">background</title>
    <rect
       fill="none"
       id="canvas_background"
       height="34"
       width="34"
       y="-1"
       x="-1" />
    <g
       display="none"
       overflow="visible"
       y="0"
       x="0"
       height="100%"
       width="100%"
       id="canvasGrid">
      <rect
         fill="url(#gridpattern)"
         stroke-width="0"
         y="0"
         x="0"
         height="100%"
         width="100%"
         id="rect5" />
    </g>
  </g>
  <g
     inkscape:groupmode="layer"
     id="layer1"
     inkscape:label="Layer 1"
     style="display:inline">
    <g
       id="g23">
      <title
         id="title10">Layer 1</title>
      <defs
         id="defs14">
        <style
           id="style12">.cls-1{fill:#23292f;}</style>
      </defs>
      <style
         transform="matrix(0.020429939363538985,0,0,0.020429939363538985,0,0) "
         type="text/css"
         id="style16">.st0{fill:#002868;}
	.st1{fill:#FFFFFF;}</style>
      <g
         stroke="null"
         id="svg_68">
        <circle
           id="svg_70"
           cy="16.000002"
           cx="16"
           stroke-opacity="null"
           stroke-width="null"
           stroke="null"
           fill="#fcb316"
           r="16" />
        <g
           stroke="null"
           id="svg_69">
          <path
             stroke="null"
             id="svg_65"
             fill="#fcb316"
             d="m 26.783043,26.798745 c -0.103044,-0.28337 -0.28981,-0.476576 -0.425054,-0.727744 -0.328451,-0.431495 -0.714864,-0.805027 -1.101277,-1.178559 -0.135244,-0.04508 -0.193206,-0.173886 -0.322011,-0.225408 -0.08372,-0.109484 -0.218967,-0.167445 -0.32845,-0.251168 -0.218968,-0.167446 -0.457256,-0.30913 -0.701984,-0.450815 -0.463695,-0.29625 -1.036874,-0.483016 -1.603613,-0.676223 -0.61182,-0.148124 -1.255841,-0.257608 -1.925624,-0.347771 -0.663342,-0.0966 -1.326684,-0.186766 -1.82902,-0.450815 -0.28981,-0.08372 -0.502337,-0.244728 -0.753505,-0.373532 -0.231848,-0.154565 -0.483016,-0.28337 -0.676223,-0.476576 -0.238287,-0.141685 -0.386412,-0.379973 -0.573179,-0.573179 -0.0644,-0.128804 -0.173885,-0.206087 -0.225407,-0.347772 -0.0644,-0.02576 -0.08372,-0.103043 -0.122364,-0.148125 -0.04508,-0.05152 -0.04508,-0.154565 -0.122364,-0.173885 -0.03864,0.264048 -0.02576,0.579619 0,0.850108 0.0322,0.115924 0.04508,0.257608 0.07728,0.373532 0.01932,0.103044 0.115924,0.270489 0.07728,0.347772 C 14.218186,21.865541 12.749818,21.22796 11.474656,20.390732 10.843515,19.972119 10.302537,19.463342 9.8002,18.915924 9.581233,18.613234 9.342945,18.323424 9.149739,17.988533 8.950092,17.660082 8.782646,17.28655 8.60232,16.938778 8.306071,16.185273 8.029141,15.412448 7.926098,14.465736 7.790854,13.583427 7.823055,12.45639 8.022701,11.638483 8.093544,11.187668 8.241668,10.807695 8.370473,10.414842 8.454196,10.234516 8.544359,10.05419 8.621641,9.867424 8.731125,9.712859 8.789087,9.500332 8.924331,9.365087 9.291423,8.675984 9.838841,8.160767 10.39914,7.664871 11.00452,7.220496 11.693623,6.859844 12.52441,6.640877 13.322997,6.460551 14.411393,6.42835 15.274381,6.615116 c 1.751738,0.360652 3.071982,1.146358 4.179699,2.151031 1.120597,0.985353 1.983586,2.234754 2.576085,3.754645 0.611821,1.442608 0.824348,3.690242 0.276929,5.326056 -0.225407,-0.128804 -0.450815,-0.251168 -0.676222,-0.373532 -0.270489,-0.07728 -0.534538,-0.167446 -0.850108,-0.199647 -0.379973,-0.0064 -0.753505,0 -0.998233,0.122364 0.495896,-0.05152 0.895189,0.08372 1.20432,0.199647 0.180326,0.07084 0.283369,0.115924 0.425054,0.199646 0.276929,0.161006 0.521657,0.309131 0.727744,0.528098 0.586059,0.515217 1.004673,1.19788 1.20432,2.09951 0,0.02576 0.0322,0.01932 0.02576,-0.02576 0.02576,-0.0064 0.03864,-0.02576 0.05152,-0.05152 0.0322,-0.03864 0.07084,-0.07728 0.103044,-0.122364 0.0644,-0.07728 0.128804,-0.154565 0.173886,-0.251168 0.135244,-0.161006 0.244728,-0.341332 0.347771,-0.528098 0.238288,-0.347771 0.418614,-0.747065 0.624701,-1.127037 0.354211,-0.811467 0.644021,-1.687336 0.824347,-2.679129 0.360652,-2.202553 -0.07084,-4.289182 -0.824347,-5.828393 -0.772824,-1.552094 -1.85478,-2.795056 -3.252306,-3.728887 -1.410407,-0.92739 -3.059101,-1.610053 -5.326056,-1.674455 -0.01288,-0.045082 -0.0322,0.00644 -0.07728,0 C 14.817126,4.367482 13.851094,4.534927 12.891503,4.779655 12.447128,4.92778 11.983432,5.056584 11.590579,5.256231 11.139764,5.404356 10.779113,5.649084 10.366939,5.82941 10.218814,5.971095 9.993407,6.041937 9.838841,6.177182 9.639195,6.273785 9.49107,6.42835 9.291423,6.524953 8.969413,6.808323 8.628081,7.059491 8.312511,7.3493 8.003381,7.63267 7.732892,7.954681 7.436642,8.25093 7.39156,8.353974 7.314278,8.424816 7.236995,8.502099 7.185474,8.598702 7.121071,8.682425 7.037349,8.753267 7.005148,8.869191 6.902104,8.914272 6.863463,9.030196 6.77974,9.094598 6.760419,9.223403 6.663816,9.281364 6.580093,9.487451 6.431969,9.635576 6.335365,9.828783 c -0.115923,0.186766 -0.206086,0.392853 -0.32201,0.573179 -0.180326,0.418613 -0.373533,0.824347 -0.521658,1.275162 -0.154565,0.437934 -0.283369,0.90163 -0.373532,1.403966 -0.096603,0.470136 -0.186766,1.081956 -0.173886,1.577853 -0.064402,0.180326 -0.01288,0.515217 0,0.727744 0,0.03864 -0.025761,0.05152 -0.025761,0.07728 0,0.238288 0.064403,0.528098 0.077283,0.676223 0.051522,0.547418 0.148125,1.056195 0.30269,1.500569 0.096603,0.495897 0.30269,0.88231 0.450815,1.326684 0.225407,0.373533 0.379973,0.817907 0.650461,1.152799 0.199647,0.392853 0.483016,0.701983 0.753505,1.023993 0.28981,0.309131 0.57962,0.624701 0.927391,0.875869 0.637581,0.553859 1.384646,0.998234 2.202553,1.378206 1.526331,0.740625 3.806166,1.223641 5.854154,1.101277 0.521657,-0.07084 1.049755,-0.135245 1.526331,-0.251169 0.437934,-0.161005 0.946711,-0.257608 1.474808,-0.32201 1.20432,-0.07728 2.247635,0.0322 3.175026,0.30269 0.940271,0.251168 1.751738,0.631141 2.453721,1.127037 0.373532,0.218967 0.682663,0.502337 0.998233,0.772826 0.322011,0.276929 0.579619,0.61826 0.875869,0.92739 0.03864,0.115924 0.115924,0.199647 0.173886,0.30269 0.07728,0.08372 0.03864,0.276929 0.225407,0.251169 0.115924,-0.115924 -0.01932,-0.28337 -0.02576,-0.425054 -0.115923,-0.122365 -0.141684,-0.28337 -0.231847,-0.386413 z" />
          <path
             stroke="null"
             id="svg_66"
             fill="#fcb316"
             d="m 22.107448,19.946358 c -0.02576,0 -0.0322,0.01932 -0.05152,0.02576 -0.04508,0.0966 -0.02576,0.251168 0,0.347772 0.135244,0.276929 0.180326,0.637581 0.476576,0.753505 0.141685,-0.04508 0.128804,-0.251168 0.122364,-0.450815 -0.0644,-0.244728 -0.154565,-0.463695 -0.30269,-0.624701 -0.103043,-0.03864 -0.173886,-0.103043 -0.244728,-0.05152 z m -1.751738,0.701983 c 0,-0.01288 -0.01932,-0.02576 -0.02576,0 -0.244728,-0.0322 -0.328451,0.103043 -0.450815,0.199647 -0.212527,0.560299 0.128804,1.107717 0.727744,1.101276 0.238288,-0.05796 0.386413,-0.212527 0.425054,-0.476576 -0.0322,-0.470136 -0.231848,-0.772826 -0.676222,-0.824347 z" />
        </g>
      </g>
    </g>
  </g>
  <g
     inkscape:groupmode="layer"
     id="layer2"
     inkscape:label="Layer 2">
    <g
       id="g1144"
       transform="translate(1.214359,1.969449)">
      <path
         style="fill:#ffffff;stroke-width:0.0549209"
         d="M 25.561229,25.216181 C 25.29007,24.739883 24.282226,23.763405 23.575208,23.291969 22.619059,22.654413 21.830094,22.317936 20.625306,22.0339 c -0.463175,-0.109196 -0.778317,-0.14184 -1.601244,-0.165867 -1.092232,-0.03189 -1.663247,0.0203 -2.268934,0.207379 -1.80196,0.556569 -4.42116,0.431931 -6.58584,-0.313397 C 7.3152381,20.77933 5.2525831,18.85856 4.3409345,16.334581 3.8262859,14.909732 3.658787,13.731319 3.7629944,12.268575 4.1128744,7.357356 7.9676321,3.2641455 12.973126,2.4887087 c 1.13938,-0.1765096 2.972904,-0.099328 4.042491,0.1701672 1.04456,0.2631895 2.266805,0.8018457 3.115401,1.3729902 2.193565,1.476371 3.61984,3.6552459 4.097461,6.2595559 0.157272,0.857554 0.144899,2.645625 -0.02412,3.485046 -0.306143,1.520474 -0.987872,3.103793 -1.811897,4.208139 l -0.252813,0.338817 -0.115754,-0.365092 C 21.843926,17.390691 21.565421,16.918441 21.155617,16.486024 20.557775,15.855193 19.934311,15.50129 19.142552,15.343329 l -0.357097,-0.07124 0.458901,-0.0052 c 0.556012,-0.0063 0.994811,0.100373 1.45576,0.353743 0.190421,0.104668 0.36154,0.190306 0.380267,0.190306 0.01873,0 0.06027,-0.09268 0.09232,-0.205954 0.254771,-0.900464 0.302628,-2.385182 0.112675,-3.495628 C 20.730658,8.866555 18.258236,5.92273 15.19625,4.859282 14.190221,4.5098816 13.655907,4.4288312 12.551931,4.4581648 11.484627,4.486524 11.181249,4.5459358 10.410016,4.8776253 9.0972567,5.4422126 8.0584948,6.461219 7.3425005,7.886802 c -0.7876232,1.5682 -0.9516275,3.809255 -0.4211462,5.754796 0.4241768,1.555669 1.1474343,2.803153 2.2180284,3.825684 1.4379533,1.373397 3.4463253,2.275259 5.4364053,2.441226 0.509026,0.04245 0.493513,0.0602 0.365203,-0.417833 -0.04459,-0.166136 -0.08137,-0.473264 -0.08173,-0.682508 l -6.52e-4,-0.380443 0.319708,0.43646 c 0.368306,0.502806 0.742763,0.838763 1.332474,1.195476 0.851011,0.51477 1.280055,0.649547 2.823872,0.887068 1.690735,0.260126 2.457486,0.489035 3.330577,0.994326 0.994785,0.57572 2.007172,1.468294 2.515614,2.217899 0.251027,0.370093 0.589024,1.017683 0.637793,1.22199 0.06043,0.25316 -0.06531,0.172676 -0.257419,-0.164762 z"
         id="path827" />
      <path
         style="fill:#ffffff;stroke-width:0.00390625"
         d="m 18.430762,19.374875 c -0.17225,-0.02349 -0.315992,-0.08968 -0.431745,-0.198822 -0.06331,-0.0597 -0.11072,-0.124363 -0.151482,-0.206633 -0.05504,-0.11108 -0.07973,-0.219593 -0.07988,-0.351056 -1.16e-4,-0.09978 0.01407,-0.18997 0.04514,-0.286976 l 0.01397,-0.04361 0.05875,-0.05209 c 0.09992,-0.08859 0.139369,-0.11524 0.200877,-0.135696 0.04816,-0.01602 0.09125,-0.0215 0.14697,-0.0187 0.03843,0.0019 0.04669,0.0014 0.0485,-0.0033 0.0031,-0.0079 0.01167,-0.0071 0.02087,0.0021 0.0043,0.0043 0.01294,0.0078 0.01922,0.0078 0.02058,0 0.10939,0.01939 0.153926,0.03361 0.05103,0.01629 0.133301,0.05537 0.173277,0.0823 0.187539,0.126368 0.29433,0.342959 0.325584,0.660339 0.0039,0.0399 0.0036,0.0476 -0.0042,0.08594 -0.04288,0.211953 -0.165205,0.351731 -0.36511,0.417215 -0.03859,0.01264 -0.04467,0.01354 -0.08904,0.01317 -0.0262,-2.22e-4 -0.06472,-0.0027 -0.08562,-0.0056 z"
         id="path903" />
      <path
         style="fill:#ffffff;stroke-width:0.00390625"
         d="m 20.438435,18.48529 c -0.04951,-0.02655 -0.07599,-0.04626 -0.115525,-0.08597 -0.08418,-0.08457 -0.131238,-0.173377 -0.227574,-0.429476 -0.01962,-0.05216 -0.04852,-0.124756 -0.06421,-0.161322 -0.03186,-0.07421 -0.04173,-0.114501 -0.04951,-0.201992 -0.0053,-0.05939 -3.43e-4,-0.122299 0.01307,-0.166476 0.0081,-0.02658 0.01017,-0.02968 0.02845,-0.04199 0.01085,-0.0073 0.02181,-0.01329 0.02435,-0.01329 0.0025,0 0.01336,-0.0044 0.02406,-0.0098 0.02152,-0.01081 0.05,-0.01282 0.0769,-0.0054 0.0086,0.0024 0.04416,0.01729 0.07903,0.03318 0.03487,0.01589 0.06499,0.02889 0.06693,0.02889 0.0067,0 0.06396,0.07244 0.0988,0.125 0.07439,0.112209 0.133213,0.247585 0.193481,0.445312 l 0.01488,0.04883 -1.19e-4,0.132813 c -1.09e-4,0.121406 -8.45e-4,0.136122 -0.0086,0.171349 -0.01567,0.07148 -0.04817,0.121806 -0.09185,0.142252 -0.01018,0.0048 -0.01985,0.0086 -0.02148,0.0086 -0.0016,-3.5e-5 -0.02013,-0.0093 -0.0411,-0.02051 z"
         id="path942" />
    </g>
  </g>
</svg>
