<svg width="32" height="32" xmlns="http://www.w3.org/2000/svg">
 <g id="Layer_1">
  <title>Layer 1</title>
  <ellipse stroke="#000" stroke-width="0" ry="15" rx="15" id="svg_1" cy="16" cx="16" fill="#fff"/>
  <g stroke="null">
   <g stroke="null" fill="#000000" transform="translate(0 460) scale(0.1 -0.1)">
    <path stroke="null" d="m137.90874,4598.57645c-61.02875,-9.28347 -110.27152,-50.21148 -129.40355,-107.44612c-5.73154,-17.27533 -8.15331,-32.53252 -8.15331,-51.58382c0.08073,-53.76342 26.88171,-103.08692 72.24964,-133.03621c69.66641,-45.93301 164.11567,-29.46494 214.89223,37.53752c31.40236,41.33164 40.60511,97.19393 24.05631,146.51743c-18.32477,54.89358 -63.61198,94.69143 -121.08879,106.55813c-8.15331,1.69524 -12.51251,2.01815 -27.44679,2.26032c-12.51251,0.24218 -19.93929,0 -25.10574,-0.80726zm33.58196,-15.82227c18.4055,-1.69524 34.9543,-6.13517 50.37294,-13.56194c37.61825,-18.24404 65.8723,-52.31036 76.28594,-92.26966c3.87484,-14.93428 4.52065,-20.02001 4.52065,-36.97244c-0.08073,-16.8717 -1.13016,-25.50937 -5.005,-38.74841c-13.56194,-47.30535 -50.29221,-84.2778 -97.51684,-98.32409c-14.28848,-4.19774 -22.52251,-5.32791 -39.9593,-5.40863c-16.95243,0 -22.19961,0.64581 -36.97244,4.52065c-51.98745,13.56194 -92.75401,56.66955 -103.40982,109.38354c-8.31476,41.08946 1.21089,82.34037 26.88171,116.16451c16.79098,22.11888 41.49309,39.55567 68.6977,48.43551c19.93929,6.53879 36.89172,8.55694 56.10447,6.78097z"/>
    <path stroke="null" d="m193.3674,4567.8199c-1.45307,-0.64581 -9.12202,-3.06758 -16.95243,-5.24718c-27.85042,-7.99186 -41.25091,-14.61138 -57.88044,-28.73841l-5.32791,-4.52065l2.1796,4.3592c3.39049,6.70025 6.61952,11.14017 12.02815,16.71025c2.66395,2.74468 4.43992,5.005 3.95557,5.005c-1.93742,0 -15.66082,-4.84355 -20.34292,-7.1846c-3.79412,-1.93742 -5.57008,-3.55194 -8.39549,-7.5075c-7.74968,-10.89799 -14.61138,-27.12389 -19.13203,-45.36793c-3.39049,-13.56194 -3.63266,-13.48122 -4.52065,1.77597c-0.40363,7.58823 0.56508,24.05631 1.77597,30.03002c0.56508,2.66395 -12.02815,-10.25218 -16.71025,-17.27533l-3.30976,-4.92428l0.40363,-10.09073c0.80726,-17.27533 4.60137,-36.00373 10.57509,-51.74527l2.74468,-7.34605l-2.42178,2.34105c-6.61952,6.13517 -18.97058,26.55881 -23.16832,38.18333l-1.04944,2.82541l-0.80726,-2.01815c-1.61452,-4.11702 -4.6821,-19.21275 -5.16645,-25.67082c-0.56508,-6.61952 -0.56508,-6.70025 2.58323,-12.75469c8.79912,-17.11388 29.06131,-38.50623 48.67769,-51.34165c3.22903,-2.09887 5.48936,-3.87484 4.92428,-3.87484c-2.42178,0 -15.98372,5.16645 -23.49122,8.87984c-8.87984,4.43992 -19.77784,11.14017 -25.913,15.82227l-3.79412,2.82541l1.21089,-4.27847c3.79412,-12.59323 10.49436,-26.31663 14.3692,-29.30349c3.22903,-2.42178 19.45493,-10.17146 25.99373,-12.35106c12.67396,-4.27847 25.5901,-6.70025 43.51124,-7.99186l8.07259,-0.64581l-5.65081,-1.77597c-3.06758,-0.96871 -7.99186,-2.26032 -10.89799,-2.74468c-7.26533,-1.37234 -28.81913,-1.21089 -36.08446,0.24218c-6.8617,1.37234 -6.8617,1.21089 1.13016,-5.16645c16.46807,-13.07759 36.97244,-19.21275 52.22963,-15.66082c20.74655,4.92428 33.0976,21.06945 31.32163,41.08946c-0.16145,2.5025 -0.56508,4.60137 -0.88798,4.60137c-0.24218,0 -1.53379,-1.53379 -2.82541,-3.30976c-2.01815,-2.90613 -8.55694,-7.99186 -10.25218,-7.99186c-0.3229,0 0.64581,1.85669 2.09887,4.11702c7.5075,11.05944 5.40863,22.76469 -5.005,27.93115l-4.6821,2.26032l-20.18146,0.40363c-15.01501,0.3229 -20.66582,0.72653 -22.19961,1.53379c-4.6821,2.58323 -4.52065,2.74468 3.39049,4.11702c4.11702,0.72653 11.05944,2.34105 15.49936,3.47121c4.3592,1.21089 8.63767,2.1796 9.52565,2.1796c1.45307,0 1.53379,0.16145 0.56508,1.29161c-1.13016,1.29161 -1.45307,1.29161 -14.44993,-0.16145c-2.90613,-0.3229 -4.11702,-0.08073 -5.57008,1.13016l-1.93742,1.53379l3.63266,0c2.1796,0.08073 5.24718,0.88798 7.74968,2.1796c4.6821,2.42178 7.58823,2.58323 10.97872,0.88798c2.66395,-1.45307 5.32791,-1.61452 5.32791,-0.3229c0,0.48436 -1.04944,1.85669 -2.26032,3.06758c-2.01815,2.09887 -2.90613,2.34105 -10.41364,2.82541c-14.0463,1.04944 -21.87671,-0.56508 -29.62639,-5.97371c-2.58323,-1.77597 -4.6821,-3.22903 -4.76283,-3.22903c-0.16145,0 0,2.26032 0.24218,5.08573c0.80726,7.42678 2.82541,13.48122 5.73154,16.95243c4.03629,4.84355 13.96557,9.12202 27.60824,11.8667l4.60137,0.88798l0,3.14831c0,3.71339 1.93742,5.57008 8.31476,7.91113c8.55694,3.22903 31.32163,5.81226 51.34165,5.81226l9.20275,0l-1.69524,-1.85669c-2.42178,-2.58323 -2.26032,-2.98686 1.53379,-2.98686c4.3592,0 17.67896,-2.74468 25.83227,-5.32791c3.55194,-1.13016 7.1846,-1.77597 7.99186,-1.53379c0.88798,0.3229 2.58323,1.77597 3.79412,3.39049l2.1796,2.82541l-2.01815,1.45307c-1.37234,1.13016 -1.85669,2.09887 -1.69524,3.71339c0.24218,1.85669 0.08073,2.09887 -1.21089,1.53379c-4.11702,-1.77597 -5.73154,-1.45307 -7.66896,1.53379c-1.13016,1.77597 -3.39049,3.63266 -5.81226,4.84355l-4.03629,1.93742l2.58323,1.29161c2.82541,1.45307 11.05944,1.77597 11.8667,0.48436c0.3229,-0.48436 1.69524,-0.64581 3.30976,-0.3229c2.5025,0.48436 2.74468,0.3229 2.74468,-1.53379c0,-2.90613 1.04944,-3.22903 3.14831,-1.04944c1.45307,1.53379 2.34105,1.77597 5.57008,1.53379c2.82541,-0.24218 4.43992,0.08073 6.29662,1.21089c2.42178,1.53379 10.01001,12.99686 10.01001,15.17646c0,1.37234 -3.22903,3.79412 -12.91614,9.6871c-4.19774,2.5025 -8.55694,5.40863 -9.60638,6.29662c-2.82541,2.5025 -4.92428,7.58823 -4.92428,12.35106c0,7.5075 -4.11702,15.09574 -13.48122,25.18647c-5.40863,5.97371 -6.37734,6.53879 -6.8617,4.52065c-0.16145,-1.04944 -0.72653,-0.88798 -3.06758,0.64581c-2.58323,1.69524 -7.10388,3.79412 -10.65581,4.92428c-1.21089,0.40363 -1.37234,1.13016 -0.88798,5.24718c0.72653,7.1846 -1.37234,8.79912 -7.74968,6.05444zm-0.08073,-8.71839c0,-0.24218 -1.04944,-1.93742 -2.34105,-3.87484c-1.29161,-1.93742 -2.66395,-4.6821 -3.06758,-6.21589c-0.64581,-2.42178 -1.29161,-2.98686 -5.32791,-4.3592c-2.5025,-0.96871 -4.76283,-1.45307 -5.005,-1.21089c-1.85669,1.85669 10.73654,15.98372 14.20775,15.98372c0.80726,0 1.53379,-0.16145 1.53379,-0.3229zm-21.31163,-29.62639c-4.52065,-5.08573 -9.76783,-14.20775 -12.1896,-21.31163c-1.53379,-4.6821 -2.82541,-10.89799 -2.1796,-10.89799c0.24218,0 2.34105,0.64581 4.6821,1.37234c2.42178,0.72653 4.60137,1.13016 4.84355,0.80726c0.24218,-0.24218 -0.3229,-2.09887 -1.29161,-4.11702c-4.11702,-8.55694 -3.87484,-17.84041 0.48436,-23.0876l2.09887,-2.42178l-1.93742,0c-0.96871,0 -4.27847,-0.24218 -7.26533,-0.56508l-5.48936,-0.48436l0,3.55194c0,2.01815 0.40363,6.61952 0.80726,10.33291c0.48436,3.71339 0.72653,6.94242 0.48436,7.10388c-0.24218,0.24218 -1.85669,-0.16145 -3.71339,-0.88798c-4.19774,-1.69524 -4.03629,-1.69524 -4.03629,1.37234c0,7.99186 6.78097,23.4105 14.12703,32.20962c3.55194,4.3592 12.99686,11.94743 14.69211,11.94743c0.24218,0 -1.61452,-2.26032 -4.11702,-4.92428zm57.39608,-12.67396c-0.24218,-1.93742 -0.56508,-3.71339 -0.88798,-3.95557c-0.24218,-0.3229 -2.1796,-0.16145 -4.19774,0.3229c-3.55194,0.80726 -3.63266,0.80726 -3.14831,-0.88798c0.24218,-0.88798 0.72653,-3.14831 0.96871,-4.92428l0.40363,-3.22903l-2.5025,3.79412c-1.37234,2.1796 -3.95557,5.48936 -5.81226,7.5075l-3.39049,3.63266l4.3592,0c2.42178,0 5.65081,-0.3229 7.10388,-0.80726c3.30976,-0.96871 4.60137,-0.16145 5.40863,3.47121l0.56508,2.58323l0.72653,-2.01815c0.40363,-1.13016 0.64581,-3.55194 0.40363,-5.48936z"/>
    <path stroke="null" d="m138.55455,4452.13974c-2.90613,-3.95557 -3.47121,-8.47622 -1.21089,-9.28347c0.72653,-0.3229 3.63266,0.24218 6.45807,1.21089c2.82541,0.88798 5.40863,1.53379 5.65081,1.29161c0.16145,-0.24218 -0.56508,-2.01815 -1.69524,-4.03629c-3.14831,-5.32791 -2.82541,-7.42678 1.37234,-8.96057c16.38735,-5.97371 20.50437,-7.66896 27.28534,-11.05944c9.60638,-4.76283 18.7284,-11.5438 26.63953,-19.85856c14.12703,-14.77283 21.79598,-31.80599 23.0876,-51.26092c0.24218,-4.3592 0.64581,-7.91113 0.88798,-7.91113c0.48436,0 6.13517,4.43992 11.70525,9.20275c4.27847,3.71339 4.6821,4.3592 4.3592,6.61952c-1.45307,8.63767 -13.96557,27.04316 -24.54066,35.84228l-3.30976,2.82541l5.97371,-0.24218c3.30976,-0.24218 5.97371,0 5.97371,0.3229c0,0.40363 -1.77597,1.53379 -3.95557,2.58323c-2.1796,0.96871 -9.12202,5.81226 -15.49936,10.73654c-12.51251,9.6871 -19.21275,13.88485 -27.36607,17.19461c-7.26533,2.98686 -17.03316,5.40863 -23.97558,5.89299c-7.34605,0.56508 -8.23404,1.04944 -6.70025,3.95557c0.96871,1.77597 9.84855,9.28347 17.75969,15.09574c2.26032,1.61452 3.95557,1.61452 -17.75969,0c-6.70025,-0.48436 -6.94242,-0.40363 -7.74968,1.45307c-0.88798,1.85669 -0.88798,1.85669 -3.39049,-1.61452z"/>
    <path stroke="null" d="m257.86736,4453.59281c-2.42178,-0.88798 -6.94242,-1.85669 -10.09073,-2.1796l-5.57008,-0.56508l10.01001,-5.005c5.57008,-2.74468 13.56194,-7.34605 17.75969,-10.25218l7.66896,-5.24718l0.48436,2.1796c0.88798,3.87484 0.72653,7.99186 -0.3229,8.87984c-0.56508,0.48436 -5.32791,2.34105 -10.49436,4.03629l-9.3642,3.14831l2.01815,1.93742c2.26032,2.09887 3.95557,4.76283 2.98686,4.6821c-0.3229,0 -2.66395,-0.72653 -5.08573,-1.61452z"/>
    <path stroke="null" d="m216.29355,4427.19545c16.62953,-9.20275 34.63139,-27.76969 43.18833,-44.47995c1.69524,-3.47121 1.85669,-3.55194 2.98686,-2.01815c2.01815,2.58323 8.31476,16.14517 8.31476,17.84041c0,1.85669 -11.78598,10.97872 -21.2309,16.5488c-7.91113,4.60137 -20.18146,9.92928 -28.57695,12.35106c-8.79912,2.58323 -9.6871,2.5025 -4.6821,-0.24218z"/>
    <path stroke="null" d="m197.08079,4378.84066c1.77597,-5.48936 1.77597,-19.37421 0,-26.07445c-2.01815,-7.83041 -7.10388,-17.43679 -12.51251,-23.89485l-4.84355,-5.73154l5.40863,1.13016c7.02315,1.45307 15.09574,4.11702 16.06445,5.32791c1.53379,1.85669 3.47121,11.22089 3.87484,18.97058c0.56508,9.84855 -1.04944,19.13203 -4.60137,26.80098c-3.22903,7.10388 -5.16645,9.0413 -3.39049,3.47121z"/>
   </g>
  </g>
 </g>

</svg>