<svg width="32" height="32" xmlns="http://www.w3.org/2000/svg">
 <!-- Created with SVG Editor - http://github.com/mzalive/SVG Editor/ -->

 <g>
  <title>background</title>
  <rect fill="none" id="canvas_background" height="34" width="34" y="-1" x="-1"/>
  <g display="none" overflow="visible" y="0" x="0" height="100%" width="100%" id="canvasGrid">
   <rect fill="url(#gridpattern)" stroke-width="0" y="1" x="1" height="400" width="580"/>
  </g>
 </g>
 <g>
  <title>Layer 1</title>
  <ellipse stroke="null" ry="16.029403" rx="15.91911" id="svg_49" cy="16" cx="16" stroke-width="NaN" fill="#FFDD2D"/>
  <g stroke="null" id="svg_48">
   <path stroke="null" id="svg_12" fill="white" d="m29.146421,15.126787l0.350425,-1.260743l-1.159284,0.04092c-0.097925,0 -0.809857,-0.02269 -1.500476,-0.585528c0.051458,0.005701 0.102917,0.013602 0.155473,0.013602c0.710883,0 1.398508,-0.481111 1.674216,-1.168799l0.498861,-1.242512c-0.625086,0.009031 -1.196617,-0.07947 -1.196617,-0.07947c-0.005091,-0.001129 -0.455438,-0.065868 -0.97646,-0.663813c-0.373684,-0.428958 -0.83611,-0.655911 -1.337017,-0.655911c-0.21906,0 -0.41501,0.04425 -0.58361,0.104418c0.026253,-0.100975 0.051458,-0.203134 0.065683,-0.308681c0.159466,-1.163098 -0.506947,-2.050483 -0.506947,-2.04936l-0.871447,-1.213049l-0.540237,1.425282c-0.002046,0.004555 -0.138353,0.338132 -0.382718,0.501565c-0.073719,-0.418725 -0.254447,-0.889694 -0.641207,-1.340134c-0.729101,-0.848801 -1.616669,-0.974768 -2.081191,-0.974768c-0.215117,0 -0.368543,0.026121 -0.405976,0.032911l-1.052125,0.232608c0.060542,-0.264402 0.189812,-0.723946 0.426091,-1.138123l0.580665,-1.016778l-1.461196,0.187235l-0.46552,-1.110884l-0.900695,0.522009l-0.833065,-0.92484l-0.831119,0.92484l-0.903739,-0.522009l-0.464522,1.110884l-1.460098,-0.187235l0.581564,1.016778c0.236329,0.414176 0.365598,0.872603 0.425192,1.137005l-1.003811,-0.222387l-0.034289,-0.006869c-0.05051,-0.009025 -0.202938,-0.035146 -0.419053,-0.035146c-0.464522,0 -1.35209,0.12709 -2.079195,0.974768c-0.387759,0.449323 -0.568487,0.921408 -0.643204,1.340134c-0.242318,-0.161119 -0.377677,-0.49022 -0.377677,-0.49022l-0.541235,-1.433195l-0.885542,1.220962c-0.108097,0.157755 -0.64223,0.991752 -0.49685,2.040273c0.015178,0.104418 0.039395,0.206577 0.065663,0.307552c-0.167621,-0.060167 -0.363547,-0.104418 -0.582637,-0.104418c-0.500872,0 -0.963338,0.226953 -1.337971,0.655911c-0.51909,0.595744 -0.967431,0.662684 -0.963343,0.662684c0,0 -0.473616,0.09533 -1.206711,0.080543l0.495793,1.242568c0.275709,0.68876 0.964326,1.168799 1.674261,1.168799c0.05352,0 0.104988,-0.007958 0.157519,-0.013602c-0.688683,0.562839 -1.400594,0.585528 -1.486451,0.586657l-1.181439,-0.043178l0.357473,1.259614c0.179759,0.649025 0.780543,1.724751 1.931762,1.840514c-0.125252,0.5901 -0.402942,1.250527 -1.012835,1.535389l-0.87953,0.407341l0.479623,0.938459c0.270633,0.506114 0.905796,1.098416 1.810533,1.098416c0.195931,-0.001129 0.384729,-0.02269 0.566535,-0.065811c0.046457,0.231468 0.104993,0.462936 0.17369,0.692203c0.269575,0.900982 0.037348,1.529632 0.034314,1.536405l-0.434221,1.022445l0.969412,0.28712c0.012138,0.004515 0.304942,0.094145 0.671523,0.094145c0.166628,0 0.325121,-0.019303 0.474604,-0.059038c0.113049,-0.029463 0.221156,-0.069141 0.325121,-0.116835c0.125227,0.253029 0.277705,0.483425 0.455438,0.689889c0.621043,0.716078 1.500576,1.079169 2.615339,1.079169l0.004043,0l0.795732,-0.011345l-1.64397,0.767102l1.248126,0.677472c0.453392,0.248514 0.991583,0.54235 1.538907,0.767045l-0.155523,0.478909l0.430183,0.220123c0.038332,0.019247 0.865358,0.435731 2.240757,0.524232c0,0 0.332208,0.017045 0.514932,0.017045c0.182774,0 0.510939,-0.018231 0.510939,-0.018231c1.366315,-0.090702 2.187202,-0.502672 2.225634,-0.523047l0.431132,-0.221309l-0.157519,-0.480038c0.563496,-0.231468 1.120852,-0.536706 1.555079,-0.774947l1.224867,-0.668385l-1.638929,-0.768287l0.798776,0.011345c1.115861,0 1.996392,-0.363034 2.616337,-1.080241c0.176735,-0.205392 0.329263,-0.435788 0.455488,-0.68876c0.104015,0.047637 0.21302,0.087316 0.326119,0.116891c0.148435,0.039679 0.307003,0.058925 0.473606,0.058925c0.360458,0 0.65638,-0.08963 0.664416,-0.091831l0.973465,-0.289434l-0.424144,-1.003085c-0.010082,-0.026076 -0.242318,-0.653597 0.027301,-1.555764c0.068628,-0.230283 0.126175,-0.461751 0.172642,-0.692147c0.182824,0.043122 0.373634,0.065811 0.570583,0.065811c1.152097,0 1.704462,-0.911254 1.811522,-1.108632l0.474604,-0.9283l-0.879533,-0.406156c-0.610911,-0.284862 -0.887568,-0.946418 -1.011797,-1.535389c1.134977,-0.108876 1.74489,-1.184659 1.930709,-1.838256zm-15.720434,-8.757959l-0.012029,0.003358l0.010082,-0.014697l0.001947,0.011339z"/>
   <path stroke="null" id="svg_13" fill="white" d="m16.003045,6.313284c-0.931041,0.001118 -1.628747,0.343805 -1.781275,0.746636l1.781275,0.789763l1.781275,-0.789763c-0.15148,-0.402831 -0.849237,-0.745518 -1.781275,-0.746636z"/>
   <path stroke="null" id="svg_14" fill="white" d="m16.021113,27.220931l-0.002046,0l-0.015173,0l-0.017169,0l-0.000998,0c-0.564494,0.004572 -1.34101,-0.125978 -1.715642,-0.248514l-0.450397,1.369619c0.296921,0.119149 1.302678,0.346102 2.184207,0.346102c0.879533,0 1.886288,-0.228025 2.182161,-0.346102l-0.449399,-1.369619c-0.375581,0.123721 -1.151148,0.253085 -1.715543,0.248514z"/>
   <path stroke="null" id="svg_15" fill="white" d="m19.429339,25.85927c-0.335253,0.21335 -1.083519,0.533319 -1.518743,0.681987l0.365549,1.131321c0.6735,-0.206577 1.22886,-0.448205 1.688391,-0.706935l-0.758398,-0.283733l0.223202,-0.822641z"/>
   <path stroke="null" id="svg_16" fill="white" d="m12.577799,25.85927l0.224151,0.822641l-0.759347,0.283733c0.458433,0.25873 1.016838,0.500357 1.687343,0.706935l0.365549,-1.131321c-0.433228,-0.148668 -1.182493,-0.469766 -1.517695,-0.681987z"/>
   <path stroke="null" id="svg_17" fill="white" d="m16.002795,5.003725c0.701799,0 1.390472,0.188358 1.919579,0.5197c0.048514,-0.182685 0.116143,-0.403955 0.208029,-0.635445l-0.199894,0.027239l-0.210026,0.02493l-0.088892,-0.214479l-0.267623,-0.63544l-0.487731,0.285969l-0.189812,0.108955l-0.15148,-0.167988l-0.530105,-0.590066l-0.529157,0.590066l-0.15148,0.167988l-0.189812,-0.108955l-0.490775,-0.285969l-0.264529,0.63544l-0.090888,0.214479l-0.210076,-0.02493l-0.199944,-0.027239c0.091936,0.232614 0.158567,0.45276 0.208029,0.635445c0.530155,-0.331342 1.216781,-0.5197 1.916584,-0.5197z"/>
   <path stroke="null" id="svg_18" fill="white" d="m26.717949,12.347814c0.090938,0.03522 0.183772,0.051136 0.275709,0.051136c0.396793,0 0.780559,-0.288305 0.912823,-0.618434c0,0 -0.728052,-0.049951 -1.510658,-0.942975c-0.249356,-0.289434 -0.512936,-0.375677 -0.739133,-0.375677c-0.351424,0 -0.615004,0.208779 -0.615004,0.208779c0.945215,0.565153 1.138022,1.472908 1.676263,1.677171z"/>
   <path stroke="null" id="svg_19" fill="white" d="m5.012661,12.398951c0.091861,0 0.184776,-0.015917 0.273667,-0.051136c0.540202,-0.204263 0.734082,-1.112018 1.679277,-1.677171c0,0 -0.264628,-0.208779 -0.613986,-0.208779c-0.227205,0 -0.490775,0.086243 -0.741214,0.375677c-0.781532,0.893024 -1.50961,0.942975 -1.50961,0.942975c0.130263,0.330129 0.514992,0.618434 0.911865,0.618434z"/>
   <path stroke="null" id="svg_20" fill="white" d="m26.974592,16.0368c0.016171,0.001129 0.030296,0.001129 0.047465,0.001129c0.990585,0 1.326885,-1.192617 1.326885,-1.192617l-0.019216,0c-0.181726,0 -1.65505,-0.047693 -2.696145,-1.535332c-0.685628,-0.978138 -1.247127,-1.838313 -2.3569,-2.176399l-0.109006,-0.021561l-0.024257,-0.124849c-0.030296,-0.190717 0.085847,-0.368848 0.349427,-0.56171c1.530822,-1.126806 0.491724,-2.563433 0.491724,-2.563433c0,0 -0.437221,1.149563 -1.415677,1.149563c-0.023259,0 -0.048514,-0.001129 -0.07272,-0.001129c-0.111052,-0.006886 -0.218111,-0.011458 -0.326219,-0.037477l-0.180728,-0.039679c0,0 0.278753,-0.85225 -0.393798,-1.635229c-0.506947,-0.591184 -1.123897,-0.691035 -1.480362,-0.691035c-0.17978,0 -0.293876,0.026042 -0.293876,0.026042c0.338297,0.497084 0.582662,1.320881 0.191908,1.829214c-0.337249,0.43686 -1.16128,0.458478 -1.16128,1.109761c0,0.275775 0.229241,0.598058 0.641207,0.887379c1.239042,0.877164 2.46895,2.040318 2.979889,3.599469c0.639211,1.944988 -0.080756,3.235193 -1.108674,3.975033c0,0 0.322076,0.333572 0.789643,0.375564c0.094881,0.010272 0.187815,0.014788 0.274661,0.014788c0.986542,0 1.496483,-0.519773 1.496483,-0.519773c0,0 -0.083851,0.718392 -0.597835,1.385592c-0.473556,0.61612 -1.095597,0.978138 -2.043808,0.993998c0,0 -0.030296,0.49477 0.389805,0.922543c0.268571,0.270074 0.889615,0.358575 0.889615,0.358575c0,0 -1.162279,0.26443 -1.2905,2.193501c-0.069676,1.045135 -0.307003,1.408169 -0.307003,1.408169l0.021262,0c2.697093,0 2.627418,-2.599657 2.627418,-2.599657c0,0 0.187815,0.769303 0.940125,0.970236c0.090838,0.027205 0.187815,0.037421 0.2807,0.037421c0.242418,0 0.452394,-0.063554 0.452394,-0.063554c0,0 -0.393798,-0.933888 -0.003045,-2.239953c0.324172,-1.083741 0.271666,-1.887078 0.271666,-1.887078c0,0 0.363502,0.617305 1.264297,0.622949l0.009034,0c0.750313,0 1.07743,-0.638866 1.07743,-0.638866c-1.798395,-0.838557 -1.620662,-3.546075 -1.620662,-3.546075c0,0 0.233284,0.19512 0.688673,0.214479zm-0.541285,2.827739c-0.731097,-0.405083 -1.193573,-1.48081 -1.305623,-1.868904c-0.121234,2.133278 -1.048182,3.614144 -2.131701,5.039358c-0.562448,0.738768 -0.758299,1.457104 -0.758299,1.457104c0,0 0.108008,-0.813666 0.59469,-1.476351c1.010849,-1.365104 1.971187,-3.063835 2.042859,-5.02807c0.049462,-1.370748 -0.264578,-2.482823 -0.754306,-3.398536c0.273612,0.95432 0.235281,2.123118 -0.694762,3.213632c0,0 1.850951,-2.493151 -0.737136,-5.048558c-1.036054,-0.972437 -2.169034,-1.572753 -2.752644,-1.998269c2.108393,0.772746 3.137409,-0.078341 3.137409,-0.078341c-0.6736,0.655911 -1.544997,0.644566 -2.085284,0.550365c0.146439,0.080599 0.298967,0.164528 0.463524,0.263301c1.777233,1.084813 3.374736,2.869732 3.64735,5.342395l0,-0.01936c0.414012,2.427227 1.333923,3.050233 1.333923,3.050233z"/>
   <path stroke="null" id="svg_21" fill="white" d="m9.443335,21.565227c0,0 0.621043,-0.087372 0.889664,-0.358575c0.419003,-0.427773 0.389805,-0.922543 0.389805,-0.922543c-0.949208,-0.014731 -1.570252,-0.377878 -2.046852,-0.992869c-0.509991,-0.667256 -0.59479,-1.385536 -0.59479,-1.385536c0,0 0.509891,0.519717 1.495485,0.519717c0.088892,0 0.180778,-0.004572 0.275659,-0.014788c0.467567,-0.041936 0.790691,-0.375564 0.790691,-0.375564c-1.028018,-0.73984 -1.748933,-2.031174 -1.11077,-3.976162c0.511988,-1.558022 1.740848,-2.722306 2.979939,-3.599469c0.411966,-0.289321 0.641157,-0.610419 0.641157,-0.887379c0,-0.651283 -0.822983,-0.6729 -1.160282,-1.109761c-0.390704,-0.508333 -0.145341,-1.333321 0.191908,-1.829214c0,0 -0.1121,-0.026042 -0.292878,-0.026042c-0.355417,0 -0.972417,0.099851 -1.479314,0.691035c-0.674548,0.782979 -0.394796,1.635229 -0.394796,1.635229l-0.180778,0.039679c-0.108008,0.02602 -0.216115,0.030592 -0.326169,0.037477c-0.025205,0 -0.047465,0.001129 -0.071672,0.001129c-0.980503,0 -1.415727,-1.148446 -1.415727,-1.148446c0,0 -1.039093,1.436638 0.490725,2.563388c0.26358,0.192918 0.378725,0.371162 0.348429,0.56171l-0.024307,0.124849l-0.111052,0.021561c-1.107726,0.338143 -1.670163,1.198318 -2.355812,2.176399c-1.039098,1.485438 -2.510371,1.53426 -2.694089,1.53426l-0.020264,0c0,0 0.336296,1.192617 1.326885,1.192617c0.016171,0 0.030291,0 0.04745,-0.001129c0.455403,-0.018231 0.689671,-0.214479 0.689671,-0.214479c0,0 0.175737,2.706389 -1.620677,3.546075c0,0 0.327187,0.638866 1.07744,0.638866l0.009104,0c0.901703,-0.005644 1.264262,-0.622949 1.264262,-0.622949c0,0 -0.052531,0.803338 0.270628,1.887078c0.390734,1.306065 -0.001053,2.239953 -0.001053,2.239953c0,0 0.210051,0.063554 0.451381,0.063554c0.093903,0 0.189857,-0.010216 0.279736,-0.037421c0.751221,-0.200933 0.940085,-0.970236 0.940085,-0.970236c0,0 -0.068678,2.599657 2.628516,2.599657l0.019116,0c0,0 -0.236229,-0.363034 -0.304907,-1.408169c-0.12922,-1.929071 -1.291548,-2.193501 -1.291548,-2.193501zm-0.433128,0.469766c-1.083519,-1.425214 -2.009514,-2.90608 -2.131731,-5.039358c-0.11205,0.386966 -0.57254,1.463821 -1.303587,1.868904c0,0 0.918857,-0.623006 1.331896,-3.050233l0,0.01936c0.273667,-2.471478 1.870137,-4.257582 3.648318,-5.342395c0.16261,-0.099846 0.317085,-0.183831 0.462526,-0.263301c-0.540237,0.094202 -1.411684,0.105546 -2.085234,-0.550365c0,0 1.028966,0.851087 3.13641,0.078341c-0.58361,0.425515 -1.715642,1.025831 -2.751696,1.998269c-2.589096,2.555407 -0.737136,5.048558 -0.737136,5.048558c-0.930991,-1.091643 -0.968324,-2.259313 -0.694712,-3.213632c-0.490735,0.916842 -0.803798,2.027788 -0.753312,3.398536c0.070674,1.964234 1.030968,3.662966 2.03977,5.02807c0.487781,0.661555 0.597835,1.476351 0.597835,1.476351c0,0 -0.197997,-0.718336 -0.759347,-1.457104z"/>
   <path stroke="null" id="svg_22" fill="white" d="m14.008998,12.060638c0.044371,0.053394 0.087794,0.111191 0.12927,0.1691c0.010082,0.013602 0.019116,0.026133 0.029198,0.042049c0.038432,0.057797 0.077811,0.119092 0.115195,0.181461c0.008036,0.01253 0.016171,0.027261 0.025205,0.042049c0.045469,0.077156 0.087893,0.156513 0.130268,0.238241c0.388757,0.754628 1.011847,1.205147 1.564162,1.206276c0.553364,-0.001129 1.174407,-0.451648 1.565211,-1.206276c0.043423,-0.083929 0.086845,-0.165657 0.132214,-0.241684c0.007087,-0.011345 0.014225,-0.021504 0.020214,-0.032906c0.038382,-0.064626 0.07881,-0.128236 0.121234,-0.189475c0.009034,-0.013602 0.017119,-0.024947 0.025205,-0.036292c0.043423,-0.060167 0.087843,-0.119149 0.133312,-0.173672c0.008036,-0.009087 0.014075,-0.016989 0.021162,-0.023762c0.197897,-0.228138 0.434226,-0.401753 0.743176,-0.498213l-0.137305,-0.08963l-0.008036,0l-0.547374,-0.357447l-0.562398,-0.361962l-1.502572,0.9191l-0.004043,-0.003387l-0.003045,0.003387l-1.50357,-0.9191l-0.561399,0.360833l-0.548323,0.357447l-0.006089,0l-0.139352,0.08963c0.309998,0.096459 0.545278,0.267817 0.744224,0.495898c0.009034,0.009087 0.015123,0.019303 0.024257,0.028334zm1.385381,-0.073713l0.636166,0l0.635168,0l0,0.490198c-0.149384,-0.205336 -0.440215,-0.163399 -0.440215,-0.163399l0,0.706935c0,0 0.01108,0.347231 0.119088,0.498213l-0.31404,0l-0.315039,0c0.110054,-0.149797 0.120186,-0.498213 0.120186,-0.498213l0,-0.706935c0,0 -0.289833,-0.041936 -0.441314,0.163399l0,-0.490198z"/>
   <path stroke="null" id="svg_23" fill="white" d="m15.872977,11.035935l0,-2.869732l-1.625753,-0.619534l0.429135,2.781259l1.196617,0.708007zm-0.349377,-2.165055l0,0.460679l-0.07876,-0.040807c-0.004043,-0.003443 -0.119138,-0.032906 -0.321128,-0.212222c-0.333206,-0.29045 -0.339245,-0.558267 -0.339245,-0.558267l0.739133,0.350617z"/>
   <path stroke="null" id="svg_24" fill="white" d="m17.331178,10.327928l0.427139,-2.781259l-1.624754,0.619534l0,2.869732l1.197616,-0.708007zm-0.848188,-1.457048l0.739083,-0.349545c0,0 -0.005989,0.267873 -0.340244,0.55838c-0.200942,0.179259 -0.317085,0.208722 -0.321128,0.212165l-0.07876,0.040807l0,-0.461808l0.001048,0z"/>
   <path stroke="null" id="svg_25" fill="white" d="m13.573674,17.689137c0.158567,0.064739 0.350425,0.078398 0.448351,0.078398c0.004093,-0.013659 0.009084,-0.030704 0.014175,-0.051136c0.009034,-0.032906 0.017169,-0.064626 0.023259,-0.100975c0.027251,-0.158884 0.037333,-0.339329 0.03933,-0.455091c-0.066681,-0.046452 -0.160564,-0.129308 -0.21302,-0.252973c-0.060592,-0.142967 -0.146439,-0.208779 -0.272714,-0.208779c-0.163559,0 -0.339245,0.110062 -0.414012,0.162214c-0.059494,0.396053 0.199944,0.755757 0.374632,0.828341z"/>
   <path stroke="null" id="svg_26" fill="white" d="m17.169366,16.165996c-0.301912,0.368848 -0.892659,1.011157 -0.921957,1.044062l-0.035337,0.040807l-1.867073,-0.032906c-0.001048,0.20765 -0.031344,0.384708 -0.060592,0.514016c-0.005041,0.021561 -0.010082,0.04425 -0.015173,0.066997l2.221541,0.448205c0.231238,-0.181574 0.867404,-0.703548 1.113815,-0.907811c-0.17978,-0.295022 -0.196949,-0.644566 -0.156571,-0.890766c-0.117091,-0.085114 -0.206981,-0.180445 -0.278653,-0.282605z"/>
   <path stroke="null" id="svg_27" fill="white" d="m17.422964,13.642704c-0.430233,0.479982 -0.843197,0.656984 -1.21174,0.697848c-0.066681,0.007958 -0.134311,0.01253 -0.202988,0.01253l-0.005091,0l-0.004043,0c-0.068628,0 -0.137305,-0.004572 -0.203986,-0.01253c-0.064585,-0.006829 -0.132214,-0.018174 -0.199844,-0.035163c-0.024307,0.107748 -0.054603,0.333572 0.032243,0.546922c0.077761,0.194047 0.236329,0.338143 0.467567,0.43353l0.077712,0.033978l0.001048,0.094202c0,0.028334 0.018168,0.638866 0.610911,0.807909c0.096927,-0.112319 0.184771,-0.213294 0.249455,-0.297223c-0.121234,-0.320026 -0.057647,-0.646881 0.11809,-0.806893c-0.008036,0.034034 -0.084799,0.835227 0.486782,1.132563l0.093883,0.049895l-0.0283,0.112319c-0.009134,0.034034 -0.199944,0.809095 0.491774,1.097287l0.122182,0.052209l-0.054553,0.133937c-0.012078,0.029463 -0.283694,0.733067 0.355516,1.13245l1.386379,0l0,-1.236868c-0.492722,-0.068125 -0.701799,-0.512888 -0.755304,-0.828341c-0.229192,-0.04425 -0.406925,-0.155497 -0.528159,-0.337015c-0.290832,-0.430087 -0.040378,-0.823882 -0.037333,-0.845443c-0.000998,0.003443 0,0.423258 0.23024,0.681987c0.114097,0.124849 0.249455,0.221309 0.45439,0.242869l0.10097,0.010216l0.009134,0.115762c0.001947,0.024891 0.057547,0.592301 0.527061,0.681931l-0.000998,-2.525944c0,-0.391481 0.102018,-0.78522 0.2242,-1.148367l-2.807197,0l0,0.003443z"/>
   <path stroke="null" id="svg_28" fill="white" d="m13.691914,14.799876l-0.037333,1.608989l0.16251,0.027261l0.397891,-1.543291l-0.20194,-0.474338l-0.321128,0.381378z"/>
   <path stroke="null" id="svg_29" fill="white" d="m18.078047,22.179259c0.012178,0 0.026303,0.002258 0.03943,0.005701c0.247409,0.079357 0.309998,1.082499 0.744174,1.172185c0.042424,0.01016 0.081804,0.012474 0.116143,0.012474c0.125227,0 0.199944,-0.060167 0.2807,-0.166786c0,0 -0.218061,-0.385837 -0.38167,-0.645752c-0.217113,-0.340345 -0.385713,-0.752314 -0.789643,-0.752314c-0.009134,0 -0.021212,0 -0.031294,0.001129c-0.133312,0.008015 -0.215117,0.080599 -0.215117,0.080599c-0.163608,-0.115706 -0.316037,-0.155441 -0.45444,-0.155441c-0.253398,0 -0.450297,0.130437 -0.548323,0.130437l-0.003993,0l-0.902791,-0.099846c-0.141348,-0.014675 -0.2524,-0.174688 -0.292778,-0.237169c-0.010082,-0.016989 -0.015173,-0.027205 -0.015173,-0.027205c0,-0.027261 0,-0.055595 -0.001996,-0.080543c-0.030296,-0.829527 -0.601827,-1.184659 -0.804816,-1.19036c0,0 0.024207,-0.157755 -0.031294,-0.217922l-0.198945,0.271203l-0.653336,-0.368735l0.46552,0.611661l-0.394846,0.4981c-0.049462,0.056724 -0.043423,0.13388 -0.023209,0.165713l0.170646,0.1691l0.216115,-0.147539c0.01108,-0.009144 0.030296,-0.011345 0.054503,-0.011345c0.059594,0 0.149484,0.016989 0.23024,0.016989c0.087843,0 0.164607,-0.021561 0.17369,-0.114633c-0.027251,0.307552 -0.2807,0.842 -0.114097,1.261871l0.12323,0.316583l-0.797778,-0.129365l-0.373634,0.709192c-0.115095,0.23604 -0.133263,0.491383 -0.022161,0.629835l0.139302,0.196248c0,0 0.195901,-0.233726 0.240322,-0.386909l-0.063637,-0.078285c-0.053505,-0.065811 -0.05046,-0.124849 -0.018118,-0.196361l0.234282,-0.43686l0.942071,0.249643l0.049512,-0.095274c0.063587,-0.119205 0.155523,-0.155497 0.256493,-0.155497c0.041376,0 0.083801,0.005701 0.128221,0.013602c0.174739,0.038606 0.462526,0.090815 0.750313,0.090815c0.316037,0 0.629079,-0.063554 0.795632,-0.273517c0.341342,0.568539 1.033059,0.659354 0.978556,0.947547l-0.181776,0.973679c0.120186,-0.005701 0.236279,-0.014788 0.346333,-0.031833l0.172692,-1.013358c0.019216,-0.110062 0.037383,-0.25873 0.037383,-0.25873c-0.066681,-0.076027 -0.228193,-0.237112 -0.319081,-0.432288c-0.122232,-0.263301 -0.055551,-0.400568 -0.169648,-0.743283c0.003993,0.002258 0.038332,-0.077156 0.11809,-0.077156zm-3.524119,-1.422957c-0.046467,-0.001129 -0.079758,-0.045379 -0.077811,-0.097644c0.004093,-0.049895 0.041476,-0.08963 0.086845,-0.085058c0.046467,0.002258 0.079808,0.047637 0.077811,0.097532c-0.004093,0.050008 -0.042424,0.088614 -0.086845,0.085171z"/>
   <path stroke="null" id="svg_30" fill="white" d="m13.267869,23.100616c0,0 0.311994,-0.144153 0.340244,-0.247385l-0.041376,-0.116891c-0.029298,-0.076027 -0.025255,-0.158884 0.031294,-0.204263l0.337249,-0.262116l0.563496,0.121407c0,0 -0.102018,-0.143024 -0.091886,-0.3347l-0.537193,-0.128292l-0.506947,0.347231c-0.217113,0.182702 -0.233284,0.481167 -0.161562,0.658225l0.066681,0.166786z"/>
   <path stroke="null" id="svg_31" fill="white" d="m17.250222,24.750582c0.10097,-0.004572 0.212022,-0.006886 0.334254,-0.006886c0,0 0.289833,-0.952005 0.305905,-0.982653c-0.16251,-0.080543 -0.499809,-0.281419 -0.630077,-0.373363c0.085847,0.144209 0.294874,0.309866 0.253498,0.436917l-0.26358,0.925986z"/>
   <path stroke="null" id="svg_32" fill="#FFDD2D" d="m20.008806,19.104191l-8.010674,0l0,3.386062c0,1.384407 0.891711,2.251298 2.207416,2.251298c1.09969,0 1.389424,0.047693 1.798445,0.503913c0.281748,-0.315567 0.515032,-0.43353 0.993629,-0.477781l0.01108,-0.052152l0.25245,-0.877164c-0.014125,-0.019303 -0.427089,-0.547035 -0.427089,-0.547035c-0.163608,0.061296 -0.300914,0.071512 -0.532152,0.071512c-0.237327,0 -0.5049,-0.030592 -0.794734,-0.091831c-0.029298,-0.008015 -0.056549,-0.010272 -0.083851,-0.010272c-0.035337,0 -0.038332,0.003387 -0.047415,0.02269l-0.05051,0.093073l-0.091886,0.170229l-0.172642,-0.04425l-0.76848,-0.203134l-0.105063,0.19512l0.016171,0.020488l0.093933,0.115706l-0.041376,0.150926c-0.056599,0.197434 -0.240372,0.42783 -0.295873,0.491327l-0.191908,0.231468l-0.174639,-0.248457l-0.131266,-0.18496c-0.138403,-0.173615 -0.170646,-0.440303 -0.092934,-0.719465c-0.002046,0.002314 -0.005091,0.003443 -0.008036,0.003443l-0.217113,0.100975l-0.098025,-0.238298l-0.068628,-0.1691c-0.11809,-0.297279 -0.074767,-0.731826 0.243416,-0.993998l0.618997,-0.39261l0.588701,0.130494c0.014125,-0.063554 0.035287,-0.290506 0.052457,-0.348416c-0.01108,-0.001129 -0.022161,-0.004459 -0.033341,-0.004459l-0.339245,0.141782l-0.327217,-0.254158c0,0 -0.128221,-0.138452 -0.012128,-0.276904l0.317085,-0.53902l-0.802769,-1.13245l1.233951,0.569612l0.081854,-0.114633l0.166553,-0.223453l0.188863,0.201893c0.053505,0.057909 0.083801,0.129421 0.098924,0.200933c0.340294,0.148612 0.949208,0.587729 1.002713,1.30155l-0.19081,0.086243l0,0.005701c0.043423,0.057797 0.079758,0.081615 0.090838,0.083929l0.880581,0.097532c0.02221,-0.004459 0.05051,-0.015804 0.081804,-0.02602c0.109056,-0.042049 0.273662,-0.10216 0.468515,-0.10216c0.158567,0 0.311994,0.040864 0.459431,0.11802c0.054553,-0.02269 0.121234,-0.039735 0.197997,-0.045436l0.042325,-0.001129c0.47161,0 0.705842,0.396053 0.893757,0.711507c0.031244,0.054466 0.062539,0.106732 0.094881,0.157755c0.164557,0.260987 0.379623,0.643438 0.388757,0.659241l0.096927,0.170229l-0.119188,0.155441c-0.091836,0.119205 -0.229192,0.25873 -0.46547,0.25873c-0.048464,0 -0.101968,-0.005644 -0.159516,-0.018118c-0.05046,-0.010216 -0.095929,-0.027261 -0.14035,-0.047693c-0.007087,0.052209 -0.016171,0.114633 -0.025305,0.167971l-0.154475,0.905497c0.923953,-0.255287 1.510658,-1.039378 1.510658,-2.160539l0.000998,-3.387191z"/>
   <path stroke="null" id="svg_33" fill="#FFDD2D" d="m11.998332,18.831859l6.229398,0c-0.311046,-0.360833 -0.306953,-0.818125 -0.227195,-1.115461c-0.090888,-0.048822 -0.165605,-0.10786 -0.232236,-0.171358c-0.243366,0.201949 -0.986592,0.810223 -1.180446,0.962221l-0.041376,0.031833l-2.444743,-0.497027l-0.049462,0c-0.058546,0 -0.144393,-0.002258 -0.238325,-0.014788c-0.026253,0.123721 -0.121134,0.208835 -0.23024,0.208835c-0.012128,0 -0.026253,-0.001129 -0.03938,-0.004572c-0.063637,-0.012474 -0.119088,-0.048822 -0.156471,-0.108876c-0.038382,-0.059038 -0.053505,-0.129421 -0.042424,-0.202006l0.009084,-0.059038c-0.25245,-0.199691 -0.484686,-0.645695 -0.38172,-1.115461l0.010082,-0.049895l0.035387,-0.02839c0.005041,-0.004515 0.047415,-0.036292 0.110054,-0.077156l-0.177733,-0.030648c-0.066631,-0.013602 -0.111052,-0.082857 -0.10092,-0.15657c0.01108,-0.074898 0.073669,-0.128236 0.139302,-0.113505l0.423096,0.074898l0.038382,-1.674913l0.630127,-0.748928l0.3928,0.929429l-0.41506,1.611303l0.373684,0.065811c0.065583,0.011345 0.111052,0.080599 0.10097,0.15657c-0.010132,0.06694 -0.060592,0.113505 -0.120186,0.113505c-0.006089,0 -0.013127,0 -0.019216,-0.001129l-0.303958,-0.055595c0.004093,0.01016 0.010082,0.01586 0.014175,0.027261c0.032292,0.074842 0.104015,0.129308 0.146389,0.151998l1.864128,0.032906c0.07871,-0.086243 0.274661,-0.301851 0.475602,-0.529933c-0.458433,-0.19512 -0.625086,-0.639995 -0.653386,-0.935016c-0.256443,-0.122592 -0.433178,-0.306367 -0.531103,-0.54585c-0.119188,-0.296094 -0.076763,-0.592301 -0.045469,-0.736397c-0.248407,-0.10216 -0.509891,-0.288192 -0.776516,-0.585528l-2.807197,0c0.120186,0.363147 0.222104,0.756886 0.222104,1.148367l0,4.043102z"/>
   <path stroke="null" id="svg_34" fill="black" d="m14.564159,20.573487c-0.045469,-0.004572 -0.083801,0.035107 -0.086845,0.085058c-0.003045,0.052152 0.031294,0.096403 0.077761,0.097588c0.044371,0.004515 0.083801,-0.034091 0.087794,-0.085114c0,-0.049951 -0.032243,-0.096459 -0.07871,-0.097532z"/>
   <path stroke="null" id="svg_35" fill="black" d="m19.997975,26.713575l-0.461478,-0.198563l0.127223,-0.535577l0.14035,-0.584399c0,0 -0.817942,0.4981 -1.970089,0.872592c-0.327167,0.10549 -0.574576,0.153183 -0.574576,0.153183l0,0.397182c0,0 -0.615952,0.120278 -1.238992,0.120278l-0.007137,0l-0.009034,0l-0.012128,0l-0.007087,0c-0.62299,0 -1.238992,-0.120278 -1.238992,-0.120278l0,-0.397182c0,0 -0.248457,-0.047693 -0.574576,-0.153183c-1.152197,-0.374492 -1.969091,-0.872592 -1.969091,-0.872592l0.138304,0.584399l0.130268,0.535577l-0.462476,0.198563l-0.512936,0.215608c0.588701,0.318897 1.403549,0.784091 2.149869,1.013358l-0.175737,0.540149c0,0 0.946164,0.484554 2.522455,0.489013l0,0.001185l0.005091,0l0.007037,0l0.006089,0l0.003993,0l0,-0.001185c1.578337,-0.004459 2.523453,-0.489013 2.523453,-0.489013l-0.176735,-0.540149c0.74622,-0.229267 1.563214,-0.694461 2.14887,-1.013358l-0.511938,-0.215608zm-7.955173,0.251957l0.759347,-0.283733l-0.224151,-0.822697c0.334204,0.21335 1.084567,0.533376 1.518693,0.682044l-0.366497,1.131321c-0.670555,-0.207706 -1.22896,-0.44939 -1.687393,-0.706935zm3.96144,1.722494c-0.881579,0 -1.888335,-0.228025 -2.184157,-0.346102l0.450297,-1.369619c0.373634,0.122535 1.151198,0.253085 1.715642,0.248514l0.001048,0l0.017169,0l0.015123,0l0.002046,0c0.564494,0.004572 1.339962,-0.125978 1.715642,-0.248514l0.449299,1.369619c-0.295823,0.119205 -1.30158,0.346102 -2.182111,0.346102zm2.272001,-1.015559l-0.365499,-1.131321c0.435174,-0.148668 1.183391,-0.468694 1.518693,-0.682044l-0.223152,0.822697l0.758349,0.283733c-0.459481,0.257544 -1.014891,0.499229 -1.688391,0.706935z"/>
   <path stroke="null" id="svg_36" fill="black" d="m16.003194,5.335089c0.939126,0 1.690338,0.349471 2.105398,0.722829c0,0 0.12318,-0.834025 0.54428,-1.570507l-0.756352,0.096493l-0.395795,-0.945295l-0.760395,0.440298l-0.737136,-0.819248l-0.73514,0.819248l-0.761343,-0.440298l-0.394846,0.945295l-0.756352,-0.096493c0.42105,0.736482 0.54428,1.570507 0.54428,1.570507c0.416009,-0.373357 1.165273,-0.722829 2.103401,-0.722829zm-1.925718,-0.419849l0.210076,0.024925l0.090888,-0.2144l0.264529,-0.635513l0.490775,0.284845l0.189862,0.108955l0.15148,-0.167982l0.529107,-0.590072l0.530155,0.590072l0.15148,0.167982l0.189812,-0.108955l0.487781,-0.284845l0.267573,0.635513l0.088842,0.2144l0.210026,-0.024925l0.199944,-0.027239c-0.091886,0.232608 -0.159566,0.45276 -0.208079,0.63544c-0.529107,-0.331337 -1.21778,-0.519694 -1.919529,-0.519694c-0.698755,0 -1.386479,0.188358 -1.917632,0.519694c-0.049412,-0.18268 -0.116093,-0.403949 -0.208029,-0.63544l0.200942,0.027239z"/>
   <path stroke="null" id="svg_37" fill="black" d="m27.02061,16.402149c1.214835,0 1.620762,-1.388922 1.637881,-1.44796l0.135309,-0.489069l-0.455388,0.01586l-0.001996,0c-0.160564,0 -1.500576,-0.039679 -2.450782,-1.396824l-0.08989,-0.125978c-0.620993,-0.887379 -1.209694,-1.730509 -2.261919,-2.115216c0.030296,-0.030592 0.073719,-0.069198 0.133312,-0.112319c0.558405,-0.413042 0.883575,-0.914584 0.96533,-1.49667c0.119188,-0.876035 -0.377627,-1.573956 -0.399837,-1.602318l-0.338297,-0.469772l-0.211024,0.557161c-0.014125,0.035146 -0.369641,0.927086 -1.11686,0.927086l-0.055551,0c-0.051458,-0.003443 -0.099972,-0.005701 -0.148386,-0.010216c0.026253,-0.39831 -0.038432,-1.014481 -0.535196,-1.592011c-0.596836,-0.695663 -1.32993,-0.80007 -1.713596,-0.80007c-0.205035,0 -0.341292,0.028435 -0.355516,0.030671l-0.51089,0.11351l0.315039,0.466334c0.247409,0.359699 0.47156,1.023574 0.205983,1.370782c-0.084799,0.110118 -0.259488,0.199748 -0.427139,0.289378c-0.344336,0.178187 -0.813899,0.425515 -0.813899,1.056479c0,0.40847 0.281748,0.835114 0.792687,1.198261c1.512704,1.068953 2.445691,2.184358 2.848623,3.415525c0.62304,1.893964 -0.189862,2.974262 -0.979504,3.542745l-0.354418,0.256416l0.309998,0.320026c0.041376,0.040864 0.4211,0.416485 0.981501,0.470951c0.106061,0.007902 0.207979,0.014788 0.30296,0.014788c0.359459,0 0.665464,-0.06361 0.913821,-0.148668c-0.068678,0.135009 -0.152478,0.272276 -0.258489,0.410728c-0.451346,0.587842 -1.006756,0.855603 -1.805482,0.869262l-0.296921,0.005644l-0.023209,0.3347c-0.003045,0.067053 -0.025205,0.687688 0.497813,1.215363c0.079808,0.081728 0.176735,0.148668 0.277705,0.204263c-0.354418,0.358575 -0.714926,0.982653 -0.784552,2.052735c-0.058596,0.89308 -0.248457,1.223265 -0.250454,1.226708l-0.328165,0.562839l0.592744,0.009031c0.979504,0 1.729767,-0.304109 2.249741,-0.905497c0.307003,-0.356374 0.48274,-0.758015 0.586754,-1.114332c0.170646,0.163399 0.390804,0.306423 0.677543,0.382394c0.109056,0.028334 0.228243,0.04425 0.356465,0.04425c0.276707,0 0.507945,-0.065811 0.534198,-0.072641l0.378675,-0.113392l-0.167651,-0.397182c-0.012128,-0.031777 -0.328165,-0.828454 0.012078,-1.96542c0.146439,-0.491327 0.221156,-0.93163 0.257491,-1.274345c0.238325,0.139581 0.557457,0.255287 0.970421,0.256528c0.93708,0 1.350094,-0.786405 1.36931,-0.819367l0.184771,-0.360777l-0.34229,-0.158884c-1.11681,-0.520902 -1.364219,-1.919984 -1.413731,-2.678055c0.10097,0.021561 0.216115,0.042049 0.346333,0.046565l0.056549,0zm0.885622,2.966191c0,0 -0.327217,0.638866 -1.07748,0.638866l-0.009084,0c-0.900695,-0.005701 -1.264247,-0.623006 -1.264247,-0.623006c0,0 0.052506,0.80345 -0.272614,1.887191c-0.390804,1.306009 0.003045,2.239953 0.003045,2.239953c0,0 -0.210076,0.063497 -0.452394,0.063497c-0.092884,0 -0.189862,-0.010216 -0.2807,-0.037477c-0.752309,-0.20082 -0.940125,-0.970123 -0.940125,-0.970123c0,0 0.069626,2.599657 -2.627517,2.599657l-0.021162,0c0,0 0.237277,-0.363091 0.307951,-1.408169c0.128221,-1.929071 1.29055,-2.193501 1.29055,-2.193501c0,0 -0.620045,-0.087372 -0.888666,-0.358575c-0.420101,-0.42783 -0.390804,-0.922543 -0.390804,-0.922543c0.949258,-0.014731 1.570301,-0.377878 2.043858,-0.994055c0.512986,-0.667256 0.597785,-1.385536 0.597785,-1.385536c0,0 -0.509991,0.519717 -1.496483,0.519717c-0.086845,0 -0.17973,-0.004572 -0.27471,-0.014731c-0.466519,-0.041993 -0.789643,-0.375621 -0.789643,-0.375621c1.02692,-0.73984 1.747985,-2.031174 1.108774,-3.976162c-0.511938,-1.557966 -1.741896,-2.722249 -2.979889,-3.599356c-0.412016,-0.289434 -0.641257,-0.610532 -0.641257,-0.887379c0,-0.651339 0.824031,-0.671828 1.162329,-1.109761c0.389705,-0.508457 0.145341,-1.333372 -0.192906,-1.829259c0,0 0.114097,-0.026121 0.293876,-0.026121c0.356415,0 0.973415,0.100969 1.480312,0.691041c0.67355,0.782973 0.393798,1.635178 0.393798,1.635178l0.180778,0.039735c0.108107,0.026133 0.215117,0.030648 0.326169,0.036349c0.024257,0 0.048464,0.001129 0.07267,0.001129c0.978506,0 1.415777,-1.149563 1.415777,-1.149563c0,0 1.040096,1.437756 -0.490775,2.563433c-0.26358,0.192862 -0.379723,0.371105 -0.349377,0.56171l0.024257,0.124849l0.109006,0.021561c1.109772,0.338087 1.671222,1.198261 2.35685,2.176399c1.041095,1.487639 2.514419,1.535332 2.696145,1.535332l0.019216,0c0,0 -0.336301,1.192617 -1.326885,1.192617c-0.016171,0 -0.030296,0 -0.047465,-0.001129c-0.455388,-0.018118 -0.688673,-0.214479 -0.688673,-0.214479c0,0 -0.178682,2.708647 1.619713,3.548333z"/>
   <path stroke="null" id="svg_38" fill="black" d="m24.887262,10.992983c0.453342,0.271147 0.716922,0.634294 0.94816,0.956634c0.227195,0.314325 0.44331,0.617192 0.780509,0.74317c0.120186,0.046565 0.247409,0.068125 0.376679,0.068125c0.506897,0 1.01589,-0.348416 1.208696,-0.830655l0.193904,-0.483425l-0.469513,-0.03172c-0.02226,-0.001185 -0.626084,-0.062481 -1.298586,-0.835227c-0.276707,-0.316526 -0.610961,-0.483425 -0.971469,-0.483425c-0.440215,0 -0.766434,0.247385 -0.802769,0.272389l-0.43218,0.341586l0.466568,0.282548zm0.769429,-0.531062c0.226147,0 0.489727,0.086187 0.739183,0.375564c0.782505,0.89308 1.510608,0.942975 1.510608,0.942975c-0.132264,0.329113 -0.51598,0.618434 -0.912873,0.618434c-0.091836,0 -0.183772,-0.01586 -0.275659,-0.051023c-0.538191,-0.204263 -0.731097,-1.112075 -1.677261,-1.677171c0,0 0.264628,-0.208779 0.616002,-0.208779z"/>
   <path stroke="null" id="svg_39" fill="black" d="m25.099084,15.814476l0,0.018174c-0.272614,-2.471478 -1.870117,-4.256453 -3.64735,-5.342451c-0.164557,-0.098717 -0.316037,-0.182646 -0.463474,-0.263245c0.541235,0.094145 1.412682,0.10549 2.085184,-0.550308c0,0 -1.028966,0.851031 -3.137409,0.078285c0.58371,0.425515 1.717689,1.025831 2.752694,1.998269c2.588138,2.555407 0.736138,5.048502 0.736138,5.048502c0.930043,-1.090514 0.968374,-2.259256 0.694762,-3.213576c0.489727,0.915713 0.802769,2.027732 0.754256,3.398536c-0.071622,1.964234 -1.031961,3.66291 -2.042809,5.02807c-0.485684,0.662684 -0.59469,1.476351 -0.59469,1.476351c0,0 0.195851,-0.718392 0.758299,-1.457104c1.083519,-1.425214 2.009469,-2.90608 2.130653,-5.039358c0.1121,0.386966 0.573578,1.463821 1.305673,1.868848c0.001996,0.001242 -0.917914,-0.621764 -1.331926,-3.048991z"/>
   <path stroke="null" id="svg_40" fill="black" d="m11.306465,24.959248c-0.000998,-0.003387 -0.188814,-0.333572 -0.249356,-1.226652c-0.070674,-1.070082 -0.430233,-1.69416 -0.78565,-2.052735c0.103016,-0.054466 0.197897,-0.121407 0.277705,-0.204263c0.52207,-0.527675 0.499809,-1.148423 0.496765,-1.215363l-0.020164,-0.334757l-0.298917,-0.005701c-0.79668,-0.014675 -1.353138,-0.282492 -1.804484,-0.869149c-0.105013,-0.138452 -0.189812,-0.275719 -0.258489,-0.410784c0.248357,0.085114 0.552316,0.148612 0.912823,0.148612c0.096977,0 0.196949,-0.006773 0.30296,-0.014675c0.560401,-0.054466 0.940125,-0.428958 0.982499,-0.470951l0.309998,-0.320026l-0.354418,-0.256416c-0.792687,-0.569668 -1.602544,-1.649909 -0.980503,-3.542745c0.402882,-1.231167 1.334921,-2.346572 2.849622,-3.415525c0.510989,-0.363147 0.790641,-0.789791 0.790641,-1.198261c0,-0.630964 -0.468515,-0.879478 -0.812851,-1.056479c-0.167651,-0.08963 -0.34229,-0.179259 -0.427089,-0.289378c-0.266625,-0.34609 -0.041476,-1.011083 0.204935,-1.370782l0.317085,-0.466413l-0.512986,-0.113431c-0.015123,-0.002314 -0.149434,-0.030671 -0.355417,-0.030671c-0.383766,0 -1.114813,0.104401 -1.712648,0.79999c-0.497813,0.578727 -0.563396,1.194909 -0.538191,1.59209c-0.048464,0.004515 -0.096927,0.006773 -0.147437,0.010216l-0.054503,0c-0.749265,0 -1.103683,-0.89194 -1.117808,-0.927086l-0.211124,-0.557161l-0.341292,0.469772c-0.019166,0.028356 -0.517982,0.727355 -0.396818,1.602318c0.080771,0.582085 0.405902,1.083628 0.964306,1.49667c0.060592,0.043122 0.103016,0.081728 0.133312,0.112319c-1.051162,0.384708 -1.638879,1.228966 -2.259922,2.116345l-0.08988,0.125978c-0.949153,1.357145 -2.292205,1.396824 -2.452759,1.396824l-0.457385,-0.015917l0.139307,0.489125c0.016166,0.059038 0.42109,1.44796 1.636843,1.44796l0.058601,-0.002314c0.128221,-0.004572 0.243376,-0.023818 0.346388,-0.046508c-0.05055,0.756886 -0.297949,2.156024 -1.415772,2.677999l-0.341307,0.158884l0.184841,0.360889c0.018148,0.032906 0.432175,0.819198 1.371231,0.819198c0.409999,-0.001072 0.729071,-0.116835 0.968419,-0.256416c0.03636,0.342715 0.111062,0.783018 0.257496,1.274345c0.340318,1.137022 0.023229,1.933586 0.011085,1.965363l-0.167616,0.397125l0.379713,0.113505c0.02521,0.006829 0.258489,0.072641 0.534133,0.072641c0.129275,0 0.248457,-0.015917 0.355511,-0.04425c0.287787,-0.076027 0.509891,-0.219051 0.678491,-0.382394c0.103016,0.356261 0.279751,0.757958 0.585756,1.114332c0.520972,0.601388 1.270236,0.905497 2.249791,0.905497l0.593742,-0.009087l-0.329213,-0.56171zm-0.286789,0.20765c-2.697143,0 -2.628416,-2.599657 -2.628416,-2.599657c0,0 -0.187815,0.769303 -0.940125,0.970123c-0.08988,0.027261 -0.185834,0.037477 -0.279736,0.037477c-0.242323,0 -0.451381,-0.063497 -0.451381,-0.063497c0,0 0.391792,-0.933944 0.000988,-2.24001c-0.323089,-1.083684 -0.270563,-1.887135 -0.270563,-1.887135c0,0 -0.362554,0.617305 -1.264257,0.623006l-0.009109,0c-0.750253,0 -1.077435,-0.638866 -1.077435,-0.638866c1.797402,-0.838614 1.620677,-3.546131 1.620677,-3.546131c0,0 -0.233214,0.195233 -0.689676,0.214479c-0.016166,0.001242 -0.031279,0.001242 -0.047445,0.001242c-0.991653,0 -1.326885,-1.192674 -1.326885,-1.192674l0.020194,0c0.182794,0 1.654067,-0.047637 2.695142,-1.535332c0.685648,-0.978082 1.248086,-1.837127 2.355812,-2.176456l0.111052,-0.021561l0.024307,-0.124793c0.030296,-0.190661 -0.084849,-0.368791 -0.348379,-0.56171c-1.530852,-1.126862 -0.490775,-2.563388 -0.490775,-2.563388c0,0 0.435224,1.148333 1.415727,1.148333c0.024207,0 0.046467,-0.001129 0.071672,-0.001129c0.110054,-0.006773 0.219159,-0.011345 0.326169,-0.037421l0.180778,-0.039735c0,0 -0.279751,-0.852211 0.394796,-1.635116c0.506947,-0.591263 1.123897,-0.691114 1.479314,-0.691114c0.180778,0 0.292878,0.026121 0.292878,0.026121c-0.337249,0.49701 -0.581613,1.320808 -0.191908,1.829214c0.337299,0.43686 1.160282,0.458421 1.160282,1.109761c0,0.275775 -0.229192,0.598002 -0.641157,0.887379c-1.239092,0.877164 -2.46895,2.041447 -2.979939,3.599413c-0.638163,1.944931 0.081804,3.235193 1.11077,3.976106c0,0 -0.323124,0.333684 -0.790641,0.375677c-0.094931,0.01016 -0.186817,0.014731 -0.275709,0.014731c-0.985544,0 -1.495485,-0.519717 -1.495485,-0.519717c0,0 0.084799,0.71828 0.59479,1.385536c0.476601,0.616176 1.097644,0.979323 2.046852,0.994055c0,0 0.030296,0.494713 -0.389805,0.922543c-0.26957,0.270074 -0.889664,0.358575 -0.889664,0.358575c0,0 1.163327,0.26443 1.29055,2.193501c0.069676,1.045078 0.304957,1.408169 0.304957,1.408169l-0.019216,0z"/>
   <path stroke="null" id="svg_41" fill="black" d="m5.012711,12.761985c0.130268,0 0.257496,-0.021561 0.377602,-0.068069c0.339325,-0.125978 0.554392,-0.428958 0.781597,-0.743283c0.232291,-0.322227 0.493815,-0.685317 0.947172,-0.956521l0.466564,-0.281419l-0.433238,-0.341586c-0.03636,-0.026133 -0.361501,-0.272389 -0.800738,-0.272389c-0.361496,0 -0.696733,0.165713 -0.972442,0.483425c-0.672516,0.771674 -1.275347,0.834042 -1.297587,0.835171l-0.469523,0.030648l0.192891,0.484554c0.193815,0.479982 0.701749,0.82947 1.207703,0.82947zm0.59775,-1.923427c0.250434,-0.289321 0.514004,-0.375564 0.741209,-0.375564c0.349357,0 0.613916,0.208779 0.613916,0.208779c-0.945126,0.566282 -1.139005,1.472908 -1.679272,1.677171c-0.088827,0.03522 -0.181741,0.051136 -0.273602,0.051136c-0.396873,0 -0.780609,-0.288305 -0.911865,-0.618547c0,-0.001072 0.727024,-0.051023 1.509615,-0.942975z"/>
   <path stroke="null" id="svg_42" fill="black" d="m7.132164,16.98779c-0.05048,-1.370748 0.262582,-2.482823 0.753298,-3.398536c-0.273662,0.95432 -0.236279,2.123118 0.694762,3.213632c0,0 -1.851989,-2.493039 0.737086,-5.048558c1.036103,-0.972437 2.169084,-1.572753 2.751746,-1.998269c-2.107444,0.772746 -3.13646,-0.078285 -3.13646,-0.078285c0.672501,0.655911 1.543998,0.64451 2.085284,0.54918c-0.146439,0.080599 -0.299965,0.164585 -0.462576,0.263301c-1.779179,1.085942 -3.375689,2.870917 -3.649356,5.342395l0,-0.019303c-0.412969,2.427171 -1.331901,3.050176 -1.331901,3.050176c0.731117,-0.405083 1.191606,-1.48081 1.303657,-1.86896c0.122217,2.133334 1.048137,3.614257 2.131656,5.039415c0.562448,0.738768 0.760395,1.457048 0.760395,1.457048c0,0 -0.110054,-0.81361 -0.597785,-1.476294c-1.008802,-1.36279 -1.969126,-3.062707 -2.039805,-5.026941z"/>
   <path stroke="null" id="svg_43" fill="black" d="m15.39423,11.987038l0,0.490198c0.150482,-0.205392 0.441314,-0.163456 0.441314,-0.163456l0,0.706935c0,0 -0.010132,0.347231 -0.120186,0.498213l0.315039,0l0.31404,0c-0.108008,-0.14974 -0.119188,-0.498213 -0.119188,-0.498213l0,-0.706935c0,0 0.290832,-0.041936 0.440315,0.163456l0,-0.490198l-0.635168,0l-0.636166,0z"/>
   <path stroke="null" id="svg_44" fill="black" d="m15.123562,9.079772c0.200942,0.179259 0.317085,0.208835 0.321128,0.212165l0.07876,0.04092l0,-0.461864l-0.739133,-0.349488c0,0.001129 0.007037,0.26776 0.339245,0.558267z"/>
   <path stroke="null" id="svg_45" fill="black" d="m16.881679,9.079772c0.334254,-0.290506 0.340294,-0.558267 0.340294,-0.558267l-0.739133,0.349488l0,0.461864l0.077712,-0.04092c0.005091,-0.00333 0.120186,-0.032906 0.321128,-0.212165z"/>
   <path stroke="null" id="svg_46" fill="black" d="m18.213306,7.199546c0,-0.700139 -1.04918,-1.329986 -2.207416,-1.329986l-0.000998,0l-0.002995,0l-0.003045,0c-1.158236,0 -2.207416,0.629846 -2.207416,1.329986l0.023259,0.172464l0.462426,2.983236l-0.464422,0.30298l-1.201708,0.788663l0.004093,0c0,0 -0.270618,0.155441 -0.395894,0.251844c-0.457385,0.357503 -0.554312,0.878349 -0.288785,1.093957c0.065683,-0.424387 0.36455,-0.869262 0.923953,-0.869262c0.402932,0 0.709885,0.233839 0.958342,0.584399c0.063587,0.088557 0.124179,0.182702 0.180728,0.284862c0.069626,0.128236 0.139302,0.240555 0.209027,0.349488l-3.094984,0c0.227195,0.514016 0.44326,1.058737 0.44326,1.649909l0,7.69811c0,1.86326 1.275377,2.752953 2.654719,2.752953c1.06635,0 1.209794,-0.054466 1.798495,0.603646c0.585656,-0.659241 0.729051,-0.603646 1.796399,-0.603646c1.38034,0 2.653721,-0.889694 2.653721,-2.752953l0,-7.69811c0,-0.591172 0.216115,-1.135893 0.444308,-1.649909l-3.096032,0c0.068678,-0.107748 0.138353,-0.221252 0.207979,-0.349488c0.057597,-0.10216 0.117141,-0.196305 0.17978,-0.284862c0.250404,-0.351746 0.556358,-0.584399 0.95929,-0.584399c0.559403,0 0.857322,0.443746 0.923953,0.869262c0.265627,-0.215608 0.169648,-0.736454 -0.290832,-1.093957c-0.12318,-0.096403 -0.393848,-0.251844 -0.393848,-0.251844l0.004093,0l-1.201658,-0.788663l-0.462476,-0.30298l0.462476,-2.983236l0.02221,-0.172464zm-3.966481,0.347236l1.625803,0.619534l0,2.869732l-1.196568,-0.709136l-0.429235,-2.78013zm0.336301,6.095809c0.266625,0.298465 0.528159,0.483481 0.776516,0.585528c-0.032342,0.144096 -0.074667,0.441432 0.045469,0.737639c0.097925,0.238241 0.275659,0.422072 0.531103,0.544664c0.0283,0.295022 0.193904,0.738712 0.653386,0.935016c-0.200942,0.228138 -0.396893,0.442504 -0.476651,0.529877l-1.86308,-0.032906c-0.042374,-0.023762 -0.114097,-0.077156 -0.146339,-0.153127c-0.004093,-0.010216 -0.010132,-0.01586 -0.013127,-0.027205l0.303858,0.055595c0.007137,0.001129 0.013127,0.001129 0.019216,0.001129c0.058596,0 0.110054,-0.045379 0.120186,-0.113505c0.010082,-0.075971 -0.035337,-0.145225 -0.10097,-0.15657l-0.373634,-0.065868l0.41501,-1.610174l-0.3928,-0.929429l-0.630077,0.748984l-0.038432,1.674913l-0.423046,-0.074955c-0.065683,-0.014675 -0.128271,0.039792 -0.139352,0.113505c-0.010132,0.07377 0.034289,0.143024 0.10092,0.15657l0.177733,0.030704c-0.063587,0.040807 -0.104963,0.072584 -0.110054,0.077156l-0.036385,0.028334l-0.010082,0.049951c-0.102966,0.469766 0.130268,0.915713 0.38177,1.115405l-0.009134,0.059038c-0.010082,0.072641 0.004043,0.142967 0.042424,0.202006c0.036335,0.060167 0.092884,0.096459 0.155473,0.108989c0.013177,0.002201 0.027251,0.00333 0.03943,0.00333c0.109006,0 0.203986,-0.085058 0.231238,-0.208779c0.093883,0.01253 0.17973,0.014731 0.238275,0.014731l0.049512,0l2.444693,0.495898l0.041376,-0.030648c0.194853,-0.153127 0.93708,-0.761401 1.180446,-0.962221c0.066631,0.064682 0.141348,0.123664 0.232236,0.17243c-0.07876,0.297336 -0.083801,0.754628 0.228243,1.115461l-6.230396,0l0,-4.040788c0,-0.391481 -0.101968,-0.785276 -0.222154,-1.148423l2.807197,0l0,-0.002258zm3.021266,3.697001c-0.247359,0.204263 -0.883525,0.726238 -1.113765,0.907811l-2.221541,-0.448205c0.005091,-0.02269 0.010082,-0.04425 0.015173,-0.06694c0.029248,-0.129365 0.058546,-0.306423 0.060592,-0.514073l1.867073,0.034091l0.035337,-0.040864c0.0283,-0.031833 0.620045,-0.674029 0.921957,-1.043949c0.071672,0.100975 0.161512,0.197434 0.278653,0.282492c-0.040378,0.245071 -0.023209,0.594615 0.156521,0.889637zm-3.719022,-0.432288c0.052506,0.123664 0.147387,0.206464 0.21307,0.253029c-0.002046,0.115762 -0.012128,0.296207 -0.03938,0.454978c-0.006089,0.035276 -0.014125,0.068182 -0.023259,0.101087c-0.004991,0.020376 -0.010082,0.037365 -0.014125,0.051023c-0.097925,0 -0.290832,-0.013659 -0.448351,-0.078285c-0.174639,-0.072584 -0.435174,-0.432401 -0.374632,-0.828341c0.075765,-0.052265 0.250454,-0.162327 0.414062,-0.162327c0.126225,-0.001129 0.212022,0.065811 0.272614,0.208835zm-0.231238,-0.498156l0.037333,-1.607973l0.321128,-0.382394l0.20199,0.474338l-0.397891,1.543291l-0.16256,-0.027261zm3.930096,8.335791c-0.121184,0 -0.233284,0.002314 -0.334254,0.006829l0.264578,-0.9248c0.041426,-0.12818 -0.167651,-0.292764 -0.253498,-0.43686c0.130268,0.091887 0.467567,0.292764 0.630177,0.373307c-0.017169,0.029519 -0.307003,0.981525 -0.307003,0.981525zm0.830021,-1.050722l-0.172642,1.012173c-0.110054,0.016989 -0.227195,0.026133 -0.347381,0.031777l0.181776,-0.973623c0.054503,-0.289321 -0.637164,-0.378951 -0.978456,-0.94749c-0.166653,0.211036 -0.480693,0.273461 -0.795732,0.273461c-0.287787,0 -0.575574,-0.052152 -0.750313,-0.090759c-0.044421,-0.007958 -0.086845,-0.013659 -0.128221,-0.013659c-0.10097,0 -0.192906,0.03522 -0.256493,0.155441l-0.05051,0.095387l-0.942071,-0.249643l-0.234282,0.435731c-0.033341,0.070327 -0.035387,0.130494 0.018168,0.196305l0.063587,0.078285c-0.043423,0.154312 -0.239274,0.386909 -0.239274,0.386909l-0.14035,-0.196248c-0.111152,-0.139581 -0.092934,-0.393795 0.023209,-0.629779l0.373584,-0.709249l0.797778,0.129421l-0.124229,-0.317768c-0.166603,-0.419871 0.086845,-0.95432 0.114097,-1.261871c-0.009084,0.093073 -0.084849,0.113505 -0.17369,0.113505c-0.080756,0 -0.170646,-0.016989 -0.23024,-0.016989c-0.023209,0 -0.043423,0.002258 -0.054503,0.011345l-0.216115,0.147426l-0.170646,-0.168987c-0.020214,-0.032906 -0.027251,-0.108989 0.023209,-0.165713l0.394846,-0.496971l-0.466469,-0.611661l0.653286,0.368791l0.198896,-0.27126c0.054603,0.060167 0.031344,0.217922 0.031344,0.217922c0.203986,0.005701 0.775468,0.360833 0.805814,1.189231c0.001996,0.024947 0.001996,0.053281 0.001996,0.080543c0,0 0.005091,0.010216 0.015173,0.027205c0.040378,0.062425 0.15143,0.222438 0.292778,0.237169l0.902791,0.099846l0.003993,0c0.099024,0 0.295923,-0.130437 0.548323,-0.130437c0.137355,0 0.290832,0.039735 0.45444,0.155441c0,0 0.081754,-0.072584 0.215067,-0.080599c0.010082,-0.001072 0.021262,-0.001072 0.031344,-0.001072c0.404928,0 0.57253,0.410728 0.789643,0.752258c0.163608,0.259858 0.38172,0.645695 0.38172,0.645695c-0.080806,0.107804 -0.155573,0.166842 -0.28075,0.166842c-0.034289,0 -0.073719,-0.003443 -0.116143,-0.01253c-0.434226,-0.08963 -0.496765,-1.092715 -0.744174,-1.172129c-0.013127,-0.004572 -0.027251,-0.005701 -0.03943,-0.005701c-0.079758,0 -0.115045,0.079414 -0.115045,0.079414c0.112999,0.341586 0.047415,0.479982 0.1686,0.743283c0.090838,0.19512 0.2524,0.356318 0.319031,0.432288c0,0.002314 -0.018118,0.149853 -0.037333,0.261044zm-4.84796,-0.957763l0.041376,0.116891c-0.027251,0.10216 -0.340244,0.247385 -0.340244,0.247385l-0.067729,-0.165657c-0.071672,-0.177002 -0.056549,-0.475467 0.161612,-0.658169l0.506897,-0.347231l0.537243,0.128236c-0.010132,0.19179 0.091836,0.334757 0.091836,0.334757l-0.563446,-0.121407l-0.337249,0.26206c-0.056549,0.044307 -0.060592,0.127107 -0.030296,0.203134zm4.932809,1.91434l0.154525,-0.905497c0.008036,-0.053394 0.018118,-0.115762 0.025205,-0.167915c0.043423,0.020376 0.08989,0.037365 0.14035,0.047581c0.057547,0.012474 0.111052,0.018174 0.159566,0.018174c0.236329,0 0.373634,-0.139581 0.46552,-0.258673l0.119138,-0.155554l-0.096927,-0.170172c-0.009084,-0.017045 -0.223152,-0.39831 -0.388757,-0.659298c-0.032342,-0.051023 -0.063687,-0.10216 -0.094931,-0.157755c-0.187815,-0.315397 -0.423096,-0.71145 -0.894656,-0.71145l-0.042424,0.001129c-0.077761,0.005701 -0.144393,0.022746 -0.197897,0.045436c-0.148485,-0.078285 -0.300964,-0.118076 -0.459531,-0.118076c-0.194853,0 -0.359459,0.060167 -0.468515,0.10216c-0.031294,0.010216 -0.059544,0.021561 -0.081754,0.026133l-0.881579,-0.097588c-0.01108,-0.002314 -0.047465,-0.026133 -0.090888,-0.085171l0,-0.004459l0.19086,-0.0863c-0.053555,-0.713708 -0.663418,-1.152882 -1.003711,-1.30155c-0.015123,-0.071512 -0.045419,-0.142967 -0.098924,-0.20082l-0.189862,-0.202006l-0.166653,0.224695l-0.081754,0.114577l-1.233951,-0.569668l0.802769,1.132563l-0.317085,0.538964c-0.116143,0.138396 0.012128,0.276847 0.012128,0.276847l0.327117,0.253029l0.339345,-0.141782c0.012078,0 0.02221,0.003387 0.033291,0.004515c-0.016121,0.057909 -0.037333,0.284806 -0.051508,0.348416l-0.588701,-0.13055l-0.618997,0.39261c-0.318083,0.262173 -0.361506,0.696775 -0.243316,0.994055l0.068628,0.1691l0.097925,0.238241l0.216115,-0.100975c0.003045,-0.001072 0.006089,-0.002201 0.008036,-0.004515c-0.077712,0.279162 -0.046367,0.544664 0.092934,0.719465l0.131266,0.186032l0.174739,0.248514l0.191858,-0.231468c0.056549,-0.063554 0.239323,-0.293893 0.295873,-0.491383l0.041376,-0.150869l-0.093883,-0.115762l-0.015173,-0.020432l0.105063,-0.195176l0.768381,0.203134l0.172692,0.04425l0.091886,-0.170172l0.05051,-0.093073c0.009084,-0.019247 0.012078,-0.02269 0.047465,-0.02269c0.027251,0 0.054503,0.003443 0.083801,0.010216c0.289784,0.061296 0.557357,0.091887 0.794684,0.091887c0.23024,0 0.367545,-0.01016 0.532152,-0.071512c0,0 0.413014,0.526546 0.427139,0.547035l-0.2524,0.875922l-0.01118,0.053394c-0.478597,0.043122 -0.711831,0.161085 -0.993579,0.477724c-0.408971,-0.456163 -0.698805,-0.503857 -1.798395,-0.503857c-1.315805,0 -2.207416,-0.866948 -2.207416,-2.251354l0,-3.384933l8.009626,0l0.002046,3.384933c0.000948,1.123419 -0.585706,1.906438 -1.50966,2.161725zm1.731764,-11.008202c-0.122132,0.363147 -0.224151,0.756886 -0.224151,1.148367l0.001048,2.525944c-0.469613,-0.088501 -0.525114,-0.656984 -0.527161,-0.681931l-0.009084,-0.115762l-0.10097,-0.010216c-0.203986,-0.021561 -0.339295,-0.119149 -0.453392,-0.243998c-0.23024,-0.258673 -0.231288,-0.678601 -0.23024,-0.681931c-0.002995,0.021561 -0.253448,0.415299 0.037383,0.84533c0.122132,0.181574 0.298867,0.292764 0.528109,0.337015c0.053505,0.315454 0.262532,0.760329 0.755354,0.828341l0,1.236924l-1.385481,0c-0.639211,-0.399439 -0.368593,-1.102931 -0.355467,-1.132507l0.054553,-0.13388l-0.122182,-0.052152c-0.691717,-0.288305 -0.501856,-1.064381 -0.491774,-1.097287l0.02825,-0.113505l-0.093883,-0.049951c-0.571581,-0.297279 -0.49377,-1.099545 -0.486683,-1.13245c-0.175737,0.160013 -0.239373,0.486811 -0.118189,0.80678c-0.065633,0.083986 -0.153427,0.186145 -0.249406,0.297336c-0.591745,-0.1691 -0.609863,-0.780761 -0.609863,-0.809095l-0.001098,-0.094202l-0.077712,-0.034034c-0.231238,-0.096459 -0.389805,-0.240612 -0.467567,-0.434603c-0.087794,-0.214479 -0.056549,-0.439174 -0.032243,-0.546922c0.067629,0.016989 0.135259,0.029463 0.199894,0.035107c0.066631,0.008015 0.135309,0.01253 0.203986,0.01253l0.004043,0l0.005041,0c0.068678,0 0.136357,-0.004515 0.202988,-0.01253c0.368543,-0.040807 0.781557,-0.218938 1.21174,-0.697791l2.804153,0l0,0.001072zm-2.158902,-2.553149l0.547275,0.357447l0.008086,0l0.137355,0.08963c-0.308999,0.096516 -0.545278,0.270074 -0.743176,0.498156c-0.007087,0.006829 -0.014125,0.01586 -0.021262,0.023875c-0.045419,0.054466 -0.090888,0.113392 -0.133263,0.173559c-0.008086,0.011345 -0.016171,0.023818 -0.025255,0.036349c-0.042424,0.061239 -0.081754,0.123664 -0.120186,0.189475c-0.006039,0.011345 -0.013127,0.02269 -0.020164,0.032906c-0.045469,0.076027 -0.088842,0.157755 -0.132264,0.241741c-0.389805,0.754572 -1.011847,1.205034 -1.565161,1.20622c-0.552366,-0.001185 -1.174407,-0.451648 -1.564212,-1.20622c-0.042424,-0.081728 -0.084799,-0.161142 -0.130268,-0.238298c-0.009084,-0.014788 -0.017169,-0.029576 -0.025205,-0.042049c-0.038382,-0.062368 -0.076763,-0.123608 -0.116143,-0.181517c-0.010082,-0.015917 -0.019216,-0.02839 -0.029298,-0.041936c-0.042424,-0.057966 -0.085847,-0.115762 -0.12927,-0.169156c-0.009034,-0.007958 -0.015123,-0.018118 -0.024207,-0.027205c-0.198896,-0.228082 -0.434226,-0.400625 -0.744224,-0.495898l0.139352,-0.08963l0.006039,0l0.547325,-0.357447l0.562448,-0.362018l1.502572,0.919156l0.003045,-0.003443l0.003993,0.003443l1.502572,-0.919156l0.563496,0.362018zm-0.741229,-0.761401l-1.197566,0.709136l0,-2.870861l1.624754,-0.619534l-0.427189,2.781259zm-1.327834,-2.477156l-1.781275,-0.79096c0.15148,-0.402837 0.850235,-0.745518 1.781275,-0.746636c0.932039,0.001118 1.630794,0.343799 1.781275,0.746636l-1.781275,0.79096z"/>
  </g>
 </g>
</svg>