<?xml version="1.0" encoding="UTF-8"?>
<svg xmlns="http://www.w3.org/2000/svg" xmlns:xlink="http://www.w3.org/1999/xlink" width="32px" height="32px" viewBox="0 0 32 32" version="1.1">
<g id="surface1">
<path style=" stroke:none;fill-rule:evenodd;fill:rgb(18.823529%,21.568627%,34.117647%);fill-opacity:1;" d="M 11.546875 10.574219 L 20.523438 10.574219 C 20.839844 10.574219 21.15625 10.621094 21.488281 10.773438 C 21.886719 10.960938 22.097656 11.253906 22.242188 11.46875 C 22.253906 11.484375 22.265625 11.503906 22.277344 11.519531 C 22.449219 11.828125 22.539062 12.164062 22.539062 12.523438 C 22.539062 12.863281 22.457031 13.234375 22.277344 13.558594 C 22.273438 13.5625 22.273438 13.5625 22.269531 13.566406 L 16.601562 23.304688 C 16.476562 23.519531 16.246094 23.652344 15.996094 23.652344 C 15.75 23.652344 15.519531 23.519531 15.394531 23.300781 L 9.832031 13.582031 C 9.828125 13.582031 9.828125 13.578125 9.824219 13.574219 C 9.699219 13.367188 9.5 13.042969 9.46875 12.621094 C 9.4375 12.238281 9.523438 11.851562 9.714844 11.515625 C 9.910156 11.183594 10.199219 10.914062 10.550781 10.75 C 10.925781 10.574219 11.308594 10.574219 11.546875 10.574219 Z M 15.304688 11.964844 L 11.546875 11.964844 C 11.300781 11.964844 11.207031 11.980469 11.140625 12.011719 C 11.046875 12.054688 10.972656 12.125 10.921875 12.214844 C 10.867188 12.300781 10.84375 12.40625 10.855469 12.507812 C 10.859375 12.566406 10.882812 12.636719 11.023438 12.871094 C 11.027344 12.875 11.03125 12.878906 11.035156 12.886719 L 15.304688 20.34375 Z M 16.695312 11.964844 L 16.695312 20.378906 L 21.066406 12.871094 C 21.113281 12.785156 21.148438 12.652344 21.148438 12.523438 C 21.148438 12.414062 21.125 12.320312 21.074219 12.226562 C 21.023438 12.148438 20.992188 12.109375 20.964844 12.082031 C 20.941406 12.058594 20.925781 12.046875 20.898438 12.035156 C 20.796875 11.988281 20.691406 11.964844 20.523438 11.964844 Z M 16.695312 11.964844 "/>
<path style=" stroke:none;fill-rule:evenodd;fill:rgb(0%,53.333333%,80%);fill-opacity:1;" d="M 32 16 C 32 24.835938 24.835938 32 16 32 C 7.164062 32 0 24.835938 0 16 C 0 7.164062 7.164062 0 16 0 C 24.835938 0 32 7.164062 32 16 Z M 30.609375 16 C 30.609375 24.066406 24.066406 30.609375 16 30.609375 C 7.933594 30.609375 1.390625 24.066406 1.390625 16 C 1.390625 7.933594 7.933594 1.390625 16 1.390625 C 24.066406 1.390625 30.609375 7.933594 30.609375 16 Z M 30.609375 16 "/>
</g>
</svg>
