<svg width="32" height="32" xmlns="http://www.w3.org/2000/svg">
 <!-- Created with SVG Editor - http://github.com/mzalive/SVG Editor/ -->

 <g>
  <title>background</title>
  <rect fill="none" id="canvas_background" height="34" width="34" y="-1" x="-1"/>
  <g display="none" overflow="visible" y="0" x="0" height="100%" width="100%" id="canvasGrid">
   <rect fill="url(#gridpattern)" stroke-width="0" y="0" x="0" height="100%" width="100%"/>
  </g>
 </g>
 <g>
  <title>Layer 1</title>
  <defs>
   <style>.cls-1{fill:#23292f;}</style>
  </defs>

  <style transform="matrix(0.020429939363538985,0,0,0.020429939363538985,0,0) " type="text/css">.st0{fill:#002868;}
	.st1{fill:#FFFFFF;}</style>
  <g stroke="null" id="svg_61">
   <path stroke="null" d="m16,31.92838l0,0c-8.760609,0 -15.928381,-7.167771 -15.928381,-15.928381l0,0c0,-8.760609 7.167771,-15.928381 15.928381,-15.928381l0,0c8.760609,0 15.928381,7.167771 15.928381,15.928381l0,0c0,8.760609 -7.167771,15.928381 -15.928381,15.928381z" class="st0" id="svg_48"/>
   <path stroke="null" d="m24.027904,25.557028l-16.055808,0c-0.841018,0 -1.529125,-0.688106 -1.529125,-1.529125l0,-16.055808c0,-0.841018 0.688106,-1.529125 1.529125,-1.529125l16.055808,0c0.841018,0 1.529125,0.688106 1.529125,1.529125l0,16.055808c0,0.841018 -0.688106,1.529125 -1.529125,1.529125z" class="st1" id="svg_47"/>
   <g stroke="null" transform="matrix(0.0637135227047419,0,0,0.0637135227047419,0,0) " id="svg_50">
    <path stroke="null" id="svg_51" d="m159.664079,370.924079c-0.79,0 -1.43,-0.72 -1.43,-1.51l0,-40.31c0,-0.79 -0.64,-1.51 -1.43,-1.51l-14.23,0c-0.8,0 -1.51,-0.64 -1.51,-1.43l0,-7.79c0,-0.79 0.72,-1.51 1.51,-1.51l43.8,0c0.79,0 1.51,0.71 1.51,1.51l0,7.79c0,0.79 -0.72,1.43 -1.51,1.43l-14.15,0c-0.79,0 -1.51,0.71 -1.51,1.51l0,40.31c0,0.79 -0.64,1.51 -1.43,1.51l-9.62,0z" class="st0"/>
    <path stroke="null" id="svg_52" d="m231.604079,318.374079c0,-0.79 0.64,-1.51 1.43,-1.51l9.54,0c0.79,0 1.51,0.71 1.51,1.51l0,27.51c0,16.3 -9.22,25.76 -23.85,25.76c-14.55,0 -23.69,-9.46 -23.69,-25.76l0,-27.51c0,-0.79 0.64,-1.51 1.43,-1.51l9.54,0c0.79,0 1.51,0.71 1.51,1.51l0,27.9c0,8.03 4.13,13.75 11.29,13.75s11.29,-5.72 11.29,-13.75l0,-27.9z" class="st0"/>
    <path stroke="null" id="svg_53" d="m287.894079,334.514079c-1.27,0 -1.67,-0.48 -2.15,-1.43c-1.67,-3.9 -5.33,-6.36 -10.89,-6.36c-5.01,0 -9.22,1.75 -9.22,5.09c0,3.66 3.9,5.17 12.48,6.2c13.04,1.51 20.51,5.49 20.51,15.82c0,11.61 -10.18,17.73 -23.21,17.73c-11.29,0 -20.99,-5.49 -22.5,-17.01c-0.16,-1.11 0.4,-1.51 1.51,-1.51l8.75,0c1.11,0 1.75,0.48 2.07,1.35c1.19,3.82 5.25,6.76 11.13,6.76c5.17,0 9.7,-1.91 9.7,-5.96c0,-4.85 -4.77,-5.72 -14.31,-6.92c-10.97,-1.43 -18.6,-4.61 -18.6,-14.71s8.67,-17.33 22.26,-17.33c12.24,0 20.75,6.6 22.5,16.46c0.24,1.11 -0.08,1.83 -1.27,1.83l-8.76,0l0,-0.01z" class="st0"/>
    <path stroke="null" id="svg_54" d="m309.434079,370.924079c-0.79,0 -1.43,-0.72 -1.43,-1.51l0,-51.04c0,-0.79 0.64,-1.51 1.43,-1.51l21.62,0c16.06,0 28.54,11.05 28.54,27.19c0,15.9 -12.32,26.87 -28.54,26.87l-21.62,0zm21.62,-10.74c8.67,0 15.42,-6.84 15.42,-16.3s-6.76,-16.3 -15.5,-16.3l-8.98,0c-0.79,0 -1.43,0.71 -1.43,1.51l0,29.65c0,0.79 0.64,1.43 1.43,1.43l9.06,0l0,0.01z" class="st0"/>
   </g>
   <path stroke="null" d="m25.04732,18.293687l-18.09464,0c-0.14017,0 -0.254854,-0.114684 -0.254854,-0.254854l0,-10.066737c0,-0.700849 0.573422,-1.27427 1.27427,-1.27427l16.055808,0c0.700849,0 1.27427,0.573422 1.27427,1.27427l0,10.066737c0,0.14017 -0.114684,0.254854 -0.254854,0.254854z" class="st0" id="svg_46"/>
   <path stroke="null" d="m16.9385,16.22682l-1.656552,0c-0.105127,0 -0.191141,-0.086013 -0.191141,-0.191141l0,-7.008487c0,-0.105127 0.086013,-0.191141 0.191141,-0.191141l1.656552,0c0.105127,0 0.191141,0.086013 0.191141,0.191141l0,7.008487c0,0.105127 -0.086013,0.191141 -0.191141,0.191141z" class="st1" id="svg_45"/>
   <path stroke="null" d="m19.759098,10.874884l-7.518196,0c-0.105127,0 -0.191141,-0.086013 -0.191141,-0.191141l0,-1.656552c0,-0.105127 0.086013,-0.191141 0.191141,-0.191141l7.518196,0c0.105127,0 0.191141,0.086013 0.191141,0.191141l0,1.656552c0,0.105127 -0.086013,0.191141 -0.191141,0.191141z" class="st1" id="svg_44"/>
   <g stroke="null" transform="matrix(0.0637135227047419,0,0,0.0637135227047419,0,0) " id="svg_55"/>
   <g stroke="null" transform="matrix(0.0637135227047419,0,0,0.0637135227047419,0,0) " id="svg_56"/>
   <g stroke="null" transform="matrix(0.0637135227047419,0,0,0.0637135227047419,0,0) " id="svg_57"/>
   <g stroke="null" transform="matrix(0.0637135227047419,0,0,0.0637135227047419,0,0) " id="svg_58"/>
   <g stroke="null" transform="matrix(0.0637135227047419,0,0,0.0637135227047419,0,0) " id="svg_59"/>
   <g stroke="null" transform="matrix(0.0637135227047419,0,0,0.0637135227047419,0,0) " id="svg_60"/>
  </g>
 </g>
</svg>