<svg width="32" height="32" xmlns="http://www.w3.org/2000/svg">
 <!-- Created with SVG Editor - http://github.com/mzalive/SVG Editor/ -->

 <g>
  <title>background</title>
  <rect fill="none" id="canvas_background" height="34" width="34" y="-1" x="-1"/>
  <g display="none" overflow="visible" y="0" x="0" height="100%" width="100%" id="canvasGrid">
   <rect fill="url(#gridpattern)" stroke-width="0" y="0" x="0" height="100%" width="100%"/>
  </g>
 </g>
 <g>
  <title>Layer 1</title>
  <ellipse ry="16" rx="16" id="svg_19" cy="16" cx="16" stroke-width="0" stroke="#000" fill="#fff"/>
  <style transform="matrix(0.1619707723254038,0,0,0.1619707723254038,0,0) " type="text/css">.st0{fill:#FF007A;}
	.st1{fill-rule:evenodd;clip-rule:evenodd;fill:#FF007A;}</style>
  <g stroke="null" id="svg_43">
   <path stroke="null" id="svg_34" d="m14.45004,9.716937c-0.279241,-0.039892 -0.292539,-0.053189 -0.159567,-0.066486c0.252647,-0.039892 0.837724,0.013297 1.249938,0.106378c0.957399,0.226053 1.821718,0.81113 2.739226,1.835015l0.23935,0.279241l0.345728,-0.053189c1.475991,-0.23935 2.991873,-0.053189 4.255108,0.531888c0.345728,0.159567 0.890913,0.4787 0.957399,0.558483c0.026594,0.026594 0.066486,0.199458 0.09308,0.372322c0.09308,0.624969 0.053189,1.090371 -0.146269,1.449396c-0.106378,0.199458 -0.106378,0.252647 -0.039892,0.425511c0.053189,0.132972 0.212755,0.226053 0.359025,0.226053c0.319133,0 0.651563,-0.505294 0.81113,-1.210046l0.066486,-0.279241l0.119675,0.132972c0.678158,0.757941 1.210046,1.808421 1.28983,2.553065l0.026594,0.199458l-0.119675,-0.172864c-0.199458,-0.305836 -0.385619,-0.505294 -0.638266,-0.678158c-0.452105,-0.305836 -0.930805,-0.398916 -2.19404,-0.465402c-1.14356,-0.066486 -1.795124,-0.159567 -2.43339,-0.372322c-1.090371,-0.359025 -1.648854,-0.824427 -2.938684,-2.539767c-0.57178,-0.757941 -0.930805,-1.170155 -1.28983,-1.515882c-0.784535,-0.757941 -1.569071,-1.156857 -2.592956,-1.316424z" class="st0"/>
   <path stroke="null" id="svg_35" d="m24.356462,11.405683c0.026594,-0.505294 0.09308,-0.837724 0.23935,-1.14356c0.053189,-0.119675 0.106378,-0.226053 0.119675,-0.226053c0.013297,0 -0.013297,0.09308 -0.053189,0.199458c-0.106378,0.292539 -0.119675,0.704752 -0.053189,1.170155c0.09308,0.598375 0.132972,0.678158 0.771238,1.329721c0.292539,0.305836 0.638266,0.691455 0.771238,0.851022l0.226053,0.292539l-0.226053,-0.212755c-0.279241,-0.265944 -0.917508,-0.771238 -1.063777,-0.837724c-0.09308,-0.053189 -0.106378,-0.053189 -0.172864,0.013297c-0.053189,0.053189 -0.066486,0.132972 -0.066486,0.518591c-0.013297,0.598375 -0.09308,0.970696 -0.292539,1.356316c-0.106378,0.199458 -0.119675,0.159567 -0.026594,-0.066486c0.066486,-0.172864 0.079783,-0.252647 0.079783,-0.824427c0,-1.156857 -0.132972,-1.436099 -0.944102,-1.901501c-0.199458,-0.119675 -0.545186,-0.292539 -0.744644,-0.385619c-0.212755,-0.09308 -0.372322,-0.172864 -0.359025,-0.172864c0.026594,-0.026594 0.81113,0.199458 1.116966,0.33243c0.465402,0.186161 0.545186,0.199458 0.598375,0.186161c0.039892,-0.039892 0.066486,-0.146269 0.079783,-0.4787z" class="st0"/>
   <path stroke="null" id="svg_36" d="m14.995225,13.386968c-0.558483,-0.771238 -0.917508,-1.967987 -0.837724,-2.858901l0.026594,-0.279241l0.132972,0.026594c0.23935,0.039892 0.651563,0.199458 0.851022,0.319133c0.531888,0.319133 0.771238,0.757941 0.997291,1.848312c0.066486,0.319133 0.159567,0.691455 0.199458,0.81113c0.066486,0.199458 0.319133,0.664861 0.531888,0.957399c0.146269,0.212755 0.053189,0.319133 -0.279241,0.292539c-0.505294,-0.053189 -1.183452,-0.518591 -1.62226,-1.116966z" class="st0"/>
   <path stroke="null" id="svg_37" d="m23.678305,19.171255c-2.632848,-1.063777 -3.563653,-1.981285 -3.563653,-3.537058c0,-0.226053 0.013297,-0.412214 0.013297,-0.412214c0.013297,0 0.106378,0.079783 0.226053,0.172864c0.531888,0.425511 1.130263,0.611672 2.792414,0.851022c0.970696,0.146269 1.529179,0.252647 2.034473,0.425511c1.608963,0.531888 2.606254,1.62226 2.845603,3.09825c0.066486,0.425511 0.026594,1.236641 -0.079783,1.662151c-0.09308,0.33243 -0.359025,0.944102 -0.425511,0.957399c-0.013297,0 -0.039892,-0.066486 -0.039892,-0.172864c-0.026594,-0.558483 -0.305836,-1.090371 -0.771238,-1.502585c-0.558483,-0.4787 -1.276532,-0.837724 -3.031764,-1.542477z" class="st0"/>
   <path stroke="null" id="svg_38" d="m21.816695,19.610063c-0.026594,-0.199458 -0.09308,-0.452105 -0.132972,-0.558483l-0.066486,-0.199458l0.119675,0.146269c0.172864,0.199458 0.305836,0.438808 0.425511,0.771238c0.09308,0.252647 0.09308,0.33243 0.09308,0.744644c0,0.398916 -0.013297,0.491997 -0.09308,0.718049c-0.132972,0.359025 -0.292539,0.611672 -0.558483,0.890913c-0.4787,0.491997 -1.103669,0.757941 -1.994582,0.877616c-0.159567,0.013297 -0.611672,0.053189 -1.010588,0.079783c-0.997291,0.053189 -1.662151,0.159567 -2.260526,0.372322c-0.079783,0.026594 -0.159567,0.053189 -0.172864,0.039892c-0.026594,-0.026594 0.385619,-0.265944 0.718049,-0.425511c0.465402,-0.226053 0.944102,-0.345728 1.994582,-0.531888c0.518591,-0.079783 1.05048,-0.186161 1.183452,-0.23935c1.316424,-0.412214 1.967987,-1.436099 1.755232,-2.686037z" class="st0"/>
   <path stroke="null" id="svg_39" d="m23.026741,21.750914c-0.345728,-0.757941 -0.425511,-1.475991 -0.23935,-2.154148c0.026594,-0.066486 0.053189,-0.132972 0.079783,-0.132972c0.026594,0 0.106378,0.039892 0.186161,0.09308c0.159567,0.106378 0.491997,0.292539 1.343018,0.757941c1.077074,0.585077 1.688746,1.037183 2.114257,1.555774c0.372322,0.452105 0.598375,0.970696 0.704752,1.608963c0.066486,0.359025 0.026594,1.223343 -0.066486,1.582368c-0.292539,1.130263 -0.957399,2.034473 -1.928096,2.553065c-0.146269,0.079783 -0.265944,0.132972 -0.279241,0.132972c-0.013297,0 0.039892,-0.132972 0.119675,-0.292539c0.319133,-0.678158 0.359025,-1.329721 0.119675,-2.061068c-0.146269,-0.452105 -0.452105,-0.997291 -1.063777,-1.914798c-0.731347,-1.063777 -0.90421,-1.343018 -1.090371,-1.728638z" class="st0"/>
   <path stroke="null" id="svg_40" d="m13.120318,25.819861c0.983994,-0.824427 2.19404,-1.409504 3.311006,-1.595665c0.4787,-0.079783 1.276532,-0.053189 1.71534,0.066486c0.704752,0.186161 1.343018,0.585077 1.675449,1.077074c0.319133,0.4787 0.465402,0.890913 0.611672,1.808421c0.053189,0.359025 0.119675,0.731347 0.132972,0.81113c0.106378,0.4787 0.319133,0.851022 0.585077,1.05048c0.412214,0.305836 1.130263,0.319133 1.835015,0.053189c0.119675,-0.039892 0.226053,-0.079783 0.226053,-0.066486c0.026594,0.026594 -0.33243,0.265944 -0.57178,0.385619c-0.33243,0.172864 -0.598375,0.226053 -0.957399,0.226053c-0.638266,0 -1.183452,-0.33243 -1.62226,-0.997291c-0.09308,-0.132972 -0.279241,-0.518591 -0.438808,-0.877616c-0.465402,-1.077074 -0.704752,-1.396207 -1.249938,-1.755232c-0.4787,-0.305836 -1.090371,-0.372322 -1.555774,-0.146269c-0.611672,0.292539 -0.771238,1.077074 -0.345728,1.555774c0.172864,0.199458 0.491997,0.359025 0.757941,0.398916c0.491997,0.066486 0.917508,-0.319133 0.917508,-0.81113c0,-0.319133 -0.119675,-0.505294 -0.438808,-0.651563c-0.425511,-0.186161 -0.890913,0.026594 -0.877616,0.438808c0,0.172864 0.079783,0.279241 0.252647,0.359025c0.106378,0.053189 0.106378,0.053189 0.026594,0.039892c-0.385619,-0.079783 -0.4787,-0.558483 -0.172864,-0.864319c0.372322,-0.372322 1.156857,-0.212755 1.422802,0.305836c0.106378,0.212755 0.119675,0.638266 0.026594,0.90421c-0.226053,0.585077 -0.864319,0.890913 -1.515882,0.718049c-0.438808,-0.119675 -0.624969,-0.23935 -1.156857,-0.784535c-0.930805,-0.957399 -1.28983,-1.14356 -2.619551,-1.343018l-0.252647,-0.039892l0.279241,-0.265944z" class="st0"/>
   <path stroke="null" id="svg_41" d="m6.125985,4.424647c3.09825,3.763111 7.871949,9.613884 8.111299,9.933017c0.199458,0.265944 0.119675,0.518591 -0.212755,0.704752c-0.186161,0.106378 -0.57178,0.212755 -0.757941,0.212755c-0.212755,0 -0.465402,-0.106378 -0.638266,-0.279241c-0.119675,-0.119675 -0.638266,-0.877616 -1.808421,-2.699334c-0.890913,-1.396207 -1.648854,-2.553065 -1.662151,-2.566362c-0.053189,-0.026594 -0.053189,-0.026594 1.569071,2.872198c1.023885,1.821718 1.356316,2.473281 1.356316,2.553065c0,0.172864 -0.053189,0.265944 -0.265944,0.505294c-0.359025,0.398916 -0.518591,0.851022 -0.638266,1.795124c-0.132972,1.05048 -0.491997,1.795124 -1.515882,3.058359c-0.598375,0.744644 -0.691455,0.877616 -0.837724,1.183452c-0.186161,0.372322 -0.23935,0.585077 -0.265944,1.063777c-0.026594,0.505294 0.026594,0.824427 0.172864,1.303127c0.132972,0.425511 0.279241,0.704752 0.638266,1.249938c0.305836,0.4787 0.491997,0.837724 0.491997,0.970696c0,0.106378 0.026594,0.106378 0.505294,0c1.14356,-0.265944 2.087662,-0.718049 2.606254,-1.276532c0.319133,-0.345728 0.398916,-0.531888 0.398916,-1.010588c0,-0.305836 -0.013297,-0.372322 -0.09308,-0.558483c-0.132972,-0.292539 -0.385619,-0.531888 -0.930805,-0.90421c-0.718049,-0.491997 -1.023885,-0.890913 -1.103669,-1.422802c-0.066486,-0.452105 0.013297,-0.757941 0.412214,-1.595665c0.412214,-0.864319 0.518591,-1.223343 0.585077,-2.100959c0.039892,-0.558483 0.106378,-0.784535 0.265944,-0.957399c0.172864,-0.186161 0.319133,-0.252647 0.731347,-0.305836c0.678158,-0.09308 1.116966,-0.265944 1.462693,-0.598375c0.305836,-0.279241 0.438808,-0.558483 0.452105,-0.970696l0.013297,-0.305836l-0.172864,-0.186161c-0.624969,-0.718049 -9.281454,-10.238853 -9.321345,-10.238853c-0.013297,0 0.199458,0.252647 0.452105,0.57178zm4.082244,18.908635c0.146269,-0.252647 0.066486,-0.57178 -0.172864,-0.731347c-0.226053,-0.146269 -0.57178,-0.079783 -0.57178,0.119675c0,0.053189 0.026594,0.106378 0.106378,0.132972c0.119675,0.066486 0.132972,0.132972 0.039892,0.279241c-0.09308,0.146269 -0.09308,0.279241 0.026594,0.372322c0.186161,0.146269 0.438808,0.066486 0.57178,-0.172864z" class="st1"/>
   <path stroke="null" id="svg_42" d="m15.5936,16.338949c-0.319133,0.09308 -0.624969,0.438808 -0.718049,0.784535c-0.053189,0.212755 -0.026594,0.598375 0.066486,0.718049c0.146269,0.186161 0.279241,0.23935 0.651563,0.23935c0.731347,0 1.356316,-0.319133 1.422802,-0.704752c0.066486,-0.319133 -0.212755,-0.757941 -0.598375,-0.957399c-0.199458,-0.106378 -0.611672,-0.146269 -0.824427,-0.079783zm0.851022,0.664861c0.106378,-0.159567 0.066486,-0.33243 -0.132972,-0.452105c-0.359025,-0.226053 -0.90421,-0.039892 -0.90421,0.305836c0,0.172864 0.279241,0.359025 0.545186,0.359025c0.172864,0 0.412214,-0.106378 0.491997,-0.212755z" class="st1"/>
  </g>
 </g>
</svg>