<svg width="32" height="32" xmlns="http://www.w3.org/2000/svg">
 <!-- Created with SVG Editor - http://github.com/mzalive/SVG Editor/ -->

 <g>
  <title>background</title>
  <rect fill="none" id="canvas_background" height="34" width="34" y="-1" x="-1"/>
  <g display="none" overflow="visible" y="0" x="0" height="100%" width="100%" id="canvasGrid">
   <rect fill="url(#gridpattern)" stroke-width="0" y="0" x="0" height="100%" width="100%"/>
  </g>
 </g>
 <g>
  <title>Layer 1</title>
  <defs>
   <circle r="15" cy="15" cx="16" id="svg_16"/>
  </defs>
  <g stroke="null" id="svg_34">
   <path stroke="null" id="svg_31" fill="#2775ca" d="m16,31.819268c8.766564,0 15.819268,-7.052704 15.819268,-15.819268s-7.052704,-15.819268 -15.819268,-15.819268s-15.819268,7.052704 -15.819268,15.819268s7.052704,15.819268 15.819268,15.819268z"/>
   <path stroke="null" id="svg_32" fill="#fff" d="m20.350299,18.504665c0,-2.306924 -1.384186,-3.097887 -4.152558,-3.427403c-1.977409,-0.263707 -2.37289,-0.790963 -2.37289,-1.713859s0.659189,-1.51596 1.977409,-1.51596c1.186445,0 1.845634,0.395482 2.175149,1.384186c0.065966,0.197741 0.263707,0.329515 0.461448,0.329515l1.054512,0c0.263707,0 0.461448,-0.197741 0.461448,-0.46129l0,-0.065966c-0.263707,-1.450152 -1.450152,-2.570631 -2.966113,-2.702406l0,-1.581927c0,-0.263707 -0.197741,-0.461448 -0.527256,-0.527414l-0.988704,0c-0.263707,0 -0.461448,0.197741 -0.527414,0.527414l0,1.51596c-1.977409,0.263707 -3.229662,1.581927 -3.229662,3.22982c0,2.175149 1.31822,3.031921 4.086592,3.361594c1.845634,0.329515 2.438857,0.724997 2.438857,1.779668s-0.922896,1.779668 -2.175149,1.779668c-1.713859,0 -2.307082,-0.725155 -2.504823,-1.713859c-0.065808,-0.263549 -0.263549,-0.395482 -0.46129,-0.395482l-1.120637,0c-0.263549,0 -0.46129,0.197741 -0.46129,0.461448l0,0.065966c0.263549,1.647735 1.31822,2.83418 3.493369,3.163854l0,1.581927c0,0.263549 0.197741,0.46129 0.527256,0.527256l0.988704,0c0.263707,0 0.461448,-0.197741 0.527414,-0.527256l0,-1.581927c1.977409,-0.329674 3.295628,-1.713859 3.295628,-3.493527z"/>
   <path stroke="null" id="svg_33" fill="#fff" d="m12.638405,25.425594c-5.141262,-1.845476 -7.77786,-7.57996 -5.866259,-12.655414c0.988704,-2.768372 3.163854,-4.877555 5.866259,-5.866259c0.263707,-0.131775 0.395482,-0.329515 0.395482,-0.659189l0,-0.922738c0,-0.263707 -0.131775,-0.461448 -0.395482,-0.527256c-0.065966,0 -0.197741,0 -0.263707,0.065808c-6.261741,1.977409 -9.689302,8.634789 -7.711893,14.89653c1.186445,3.69111 4.020783,6.525448 7.711893,7.711893c0.263707,0.131775 0.527414,0 0.593223,-0.263707c0.065966,-0.065808 0.065966,-0.131775 0.065966,-0.263549l0,-0.922896c0,-0.197741 -0.197741,-0.46129 -0.395482,-0.593223zm6.986896,-20.565048c-0.263707,-0.131775 -0.527414,0 -0.593223,0.263707c-0.065966,0.065966 -0.065966,0.131775 -0.065966,0.263707l0,0.922738c0,0.263707 0.197741,0.527256 0.395482,0.659189c5.141262,1.845476 7.77786,7.57996 5.866259,12.655414c-0.988704,2.768372 -3.163854,4.877555 -5.866259,5.866259c-0.263707,0.131775 -0.395482,0.329515 -0.395482,0.659189l0,0.922738c0,0.263707 0.131775,0.461448 0.395482,0.527256c0.065966,0 0.197741,0 0.263707,-0.065808c6.261741,-1.977409 9.689302,-8.634789 7.711893,-14.89653c-1.186445,-3.757076 -4.08675,-6.591414 -7.711893,-7.77786z"/>
  </g>
 </g>
</svg>