<svg width="32" height="32" xmlns="http://www.w3.org/2000/svg">
 <!-- Created with SVG Editor - http://github.com/mzalive/SVG Editor/ -->

 <g>
  <title>background</title>
  <rect fill="none" id="canvas_background" height="34" width="34" y="-1" x="-1"/>
  <g display="none" overflow="visible" y="0" x="0" height="100%" width="100%" id="canvasGrid">
   <rect fill="url(#gridpattern)" stroke-width="0" y="0" x="0" height="100%" width="100%"/>
  </g>
 </g>
 <g>
  <title>Layer 1</title>
  <ellipse ry="15.9" rx="15.9" id="svg_46" cy="16" cx="16" stroke-width="0" stroke="#000" fill="#fff"/>
  <metadata transform="matrix(0.027163166796997595,0,0,0.027163166796997595,0,0) " id="svg_27">image/svg+xml</metadata>

  <style transform="matrix(0.027163166796997595,0,0,0.027163166796997595,0,0) " type="text/css">.st0{fill-rule:evenodd;clip-rule:evenodd;fill:#4DB45E;}
	.st1{fill-rule:evenodd;clip-rule:evenodd;fill:url(#SVGID_1_);}</style>
  <!-- Generator: Sketch 60.1 (88133) - https://sketch.com -->
  <desc transform="matrix(0.11111111773384952,0,0,0.11111111773384952,0,0) ">Created with Sketch.</desc>

  <style transform="matrix(0.10229572815712018,0,0,0.10229572815712018,0,0) " type="text/css">.st0{fill:#00BEF0;}</style>
  <metadata transform="matrix(0.10229572815712018,0,0,0.10229572815712018,0,0) "/>
  <g stroke="null" transform="rotate(45 15.999998092651373,15.999998092651364) " id="svg_80">
   <g stroke="null" transform="matrix(0.0497247370090107,0,0,0.0497247370090107,-1.898978442219815,-8.488551135191443) " id="svg_66">
    <path stroke="null" id="svg_67" fill="#80b4fb" d="m602.948224,410.248882l-110.867,-110.866l-29.194,-15.175l-11.458,-25.477l-9.235,-9.235c-17.351,-17.351 -45.483,-17.351 -62.834,0l-262.386,262.384c-17.351,17.351 -17.351,45.483 0,62.834l9.235,9.235l30.322,16.303l10.331,24.35l110.866,110.866c17.351,17.351 45.483,17.351 62.834,0l262.385,-262.385c17.352,-17.351 17.352,-45.482 0.001,-62.834z"/>
    <path stroke="null" id="svg_68" fill="#61a2f9" d="m602.948224,410.248882l-110.867,-110.866l-25.477,-17.991l-15.175,-22.661l-9.235,-9.235c-9.222,-9.222 -21.49,-13.543 -33.565,-12.962l110.526,110.526c40.871,40.871 40.871,107.136 0,148.007l-43.253,43.253c15.248,3.776 -3.299,43.615 7.962,53.849l119.084,-119.084c17.351,-17.353 17.351,-45.485 0,-62.836z"/>
    <path stroke="null" id="svg_69" fill="#61a2f9" d="m299.355224,714.864882c-8.129,8.129 -18.624,12.45 -29.269,12.962l7.642,7.642c17.351,17.351 45.483,17.351 62.834,0l72.886,-72.886c-10.234,-11.261 -46.991,4.204 -50.766,-11.044l-63.327,63.326z"/>
    <path stroke="null" id="svg_70" fill="#617881" d="m166.884391,624.617969l-40.646137,-40.646137l325.17051,-325.17051l40.646137,40.646137l-325.17051,325.17051z"/>
    <path stroke="null" id="svg_71" fill="#475959" d="m441.087897,269.067929l10.300283,-10.300283l40.646137,40.646137l-10.300283,10.300283l-40.646137,-40.646137z"/>
    <path stroke="null" id="svg_72" fill="#f1f4f6" d="m441.940224,432.177882l29.14,29.14c0.373,0.373 0.977,0.373 1.349,0l59.629,-59.629c0.373,-0.373 0.373,-0.977 0,-1.349l-29.14,-29.14c-0.373,-0.373 -0.977,-0.373 -1.349,0l-59.629,59.629c-0.372,0.372 -0.372,0.976 0,1.349z"/>
    <g stroke="null" id="svg_73" fill="#617881">
     <path stroke="null" id="svg_74" d="m370.124224,522.970882c5.613,5.613 14.713,5.613 20.326,0l20.326,-20.326c5.613,-5.613 5.613,-14.713 0,-20.326c-5.613,-5.613 -14.713,-5.613 -20.326,0l-20.326,20.326c-5.613,5.613 -5.613,14.713 0,20.326z"/>
     <path stroke="null" id="svg_75" d="m309.145224,583.949882c5.613,5.613 14.713,5.613 20.326,0l20.326,-20.326c5.613,-5.613 5.613,-14.713 0,-20.326c-5.613,-5.613 -14.713,-5.613 -20.326,0l-20.326,20.326c-5.612,5.613 -5.612,14.713 0,20.326z"/>
     <path stroke="null" id="svg_76" d="m248.167224,644.928882c5.613,5.613 14.713,5.613 20.326,0l20.326,-20.326c5.613,-5.613 5.613,-14.713 0,-20.326c-5.613,-5.613 -14.713,-5.613 -20.326,0l-20.326,20.326c-5.613,5.612 -5.613,14.713 0,20.326z"/>
    </g>
    <circle stroke="null" id="svg_77" r="93.422974" fill="#ffd064" cy="629.006882" cx="453.371224"/>
    <circle stroke="null" id="svg_78" r="64.677979" fill="#ffc250" cy="629.006882" cx="453.371224"/>
    <path stroke="null" id="svg_79" fill="#ffd064" d="m477.301224,643.383882c0,-12.188 -9.915,-22.104 -22.104,-22.104l-3.654,0c-3.668,0 -6.651,-2.983 -6.651,-6.651s2.983,-6.651 6.651,-6.651l3.654,0c1.856,0 3.577,0.745 4.849,2.099c2.923,3.111 7.811,3.263 10.922,0.342c3.11,-2.922 3.264,-7.811 0.342,-10.922c-2.788,-2.968 -6.343,-5.087 -10.213,-6.164l0,-2.978c0,-4.267 -3.459,-7.726 -7.726,-7.726s-7.726,3.459 -7.726,7.726l0,2.969c-9.333,2.588 -16.204,11.158 -16.204,21.304c0,12.188 9.915,22.104 22.104,22.104l3.654,0c3.667,0 6.651,2.983 6.651,6.651s-2.983,6.651 -6.651,6.651l-3.654,0c-1.909,0 -3.666,-0.783 -4.946,-2.204c-2.856,-3.171 -7.741,-3.426 -10.912,-0.57s-3.426,7.741 -0.57,10.912c2.841,3.153 6.51,5.394 10.529,6.51l0,2.975c0,4.267 3.459,7.726 7.726,7.726s7.726,-3.459 7.726,-7.726l0,-2.969c9.332,-2.588 16.203,-11.158 16.203,-21.304z"/>
   </g>
  </g>
 </g>
</svg>