<svg width="32" height="32" xmlns="http://www.w3.org/2000/svg" xmlns:xlink="http://www.w3.org/1999/xlink">
 <!-- Created with SVG Editor - http://github.com/mzalive/SVG Editor/ -->

 <g>
  <title>background</title>
  <rect fill="none" id="canvas_background" height="34" width="34" y="-1" x="-1"/>
  <g display="none" overflow="visible" y="0" x="0" height="100%" width="100%" id="canvasGrid">
   <rect fill="url(#gridpattern)" stroke-width="0" y="0" x="0" height="100%" width="100%"/>
  </g>
 </g>
 <g>
  <title>Layer 1</title>
  <ellipse ry="16" rx="16" id="svg_30" cy="15.999999" cx="16" stroke-width="0" stroke="#000" fill="#ffffff"/>
  <!-- Generator: Sketch 48.1 (47250) - http://www.bohemiancoding.com/sketch -->
  <desc transform="matrix(0.296947515153434,0,0,0.296947515153434,0,0) ">Created with Sketch.</desc>
  <defs>
   <polygon points="32.5097041 32.7427747 91.8248457 32.7427747 91.8248457 6.50603633 32.5097041 6.50603633" id="svg_25"/>
  </defs>
  <g stroke="null" id="svg_29">
   <g transform="matrix(0.8588233532683528,0,0,0.8588233532683528,3.263591757466699,-21.369259213786062) " fill-rule="evenodd" fill="none" id="svg_18">
    <g stroke="null" id="svg_19">
     <g stroke="null" id="svg_20">
      <g stroke="null" id="svg_21">
       <path stroke="null" fill="#009FDF" id="svg_26" d="m7.344366,35.151451l-1.56364,4.28311l21.66855,0l1.56364,-4.28311l-21.66855,0zm-2.34594,6.42369l-1.56364,4.28214l21.66854,0l1.56364,-4.28214l-21.66854,0zm-2.34107,6.4237l-1.56364,4.28213l21.66854,0l1.56267,-4.28213l-21.66757,0z"/>
       <mask stroke="null" transform="translate(-4.387530326843262,1.0125069618225098) translate(-3.3586061000823975,0.15993362665176392) translate(-0.15351642668247223,-0.15351642668247223) translate(3.5308778285980225,1.9957135915756226) translate(57.92841720581055,0) translate(-22.362995147705078,0) translate(-38.68614196777344,-0.921098530292511) translate(0.4605492651462555,-0.7675821185112) translate(0.15351642668247223,-3.684394121170044) translate(7.96914529800415,0) translate(0,37.5098876953125) " id="svg_23">
        <use stroke="null" id="svg_28" xlink:href="#svg_25"/>
       </mask>
       <g stroke="null" id="svg_24"/>
       <path stroke="null" mask="url(#svg_23)" fill="#0A2973" id="svg_22" d="m47.159646,53.913161l0,0.09037c0.99026,0.36347 1.93618,0.99905 2.4318,1.40721c1.53121,1.27115 2.20715,2.95045 2.20715,5.12929c0,3.58702 -1.89184,6.17401 -4.99958,6.99132c-0.94592,0.27211 -1.93618,0.36347 -3.78368,0.36347l-9.41192,0l0,-26.23733l8.33199,0c1.71152,0 2.8821,0.09037 3.91769,0.36247c3.01808,0.81731 4.99958,2.90577 4.99958,6.21871c0,1.77067 -0.63061,3.26924 -1.6662,4.26729c-0.45029,0.45384 -1.08091,0.99904 -2.02683,1.4072zm-8.33198,2.76873l0,6.89996l3.60336,0c1.07993,0 2.07117,-0.09037 2.79244,-0.77163c0.72028,-0.68126 1.03559,-1.54326 1.03559,-2.67835c0,-0.862 -0.22565,-1.67931 -0.67594,-2.26921c-0.76561,-0.95336 -1.71153,-1.18077 -3.3324,-1.18077l-3.42305,0zm-0.04533,-4.5394l2.92743,0c0.90059,0 1.35089,0 1.80119,-0.13605c1.21689,-0.36347 1.98249,-1.4519 1.98249,-2.95046c0,-1.76968 -0.81093,-2.5423 -1.98249,-2.90478c-0.49562,-0.13605 -0.99026,-0.18173 -1.98151,-0.18173l-2.74711,0l0,6.17302zm20.85263,15.75233l0,-21.83498l-7.52106,0l0,-4.40235l20.89795,0l-1.48588,4.40235l-6.66677,0l0,21.83498l-5.22424,0zm14.99777,0l0,-26.23733l16.93493,0l-1.48588,4.40235l-10.26915,0l0,5.81054l4.18865,0c3.37773,0 5.13458,0.81731 6.35048,1.86105c0.94592,0.81731 2.5668,2.63267 2.5668,6.2197c0,3.54035 -1.6662,5.49176 -3.06242,6.49081c-1.62088,1.1341 -3.3324,1.45288 -6.80078,1.45288l-8.42263,0zm5.1799,-4.40334l3.91867,0c1.48588,0 2.38648,-0.36347 3.01709,-1.18078c0.31531,-0.40816 0.76561,-1.1351 0.76561,-2.49662c0,-1.36152 -0.4503,-2.31488 -1.35089,-2.99614c-0.53997,-0.40816 -1.26123,-0.63458 -2.47713,-0.63458l-3.87335,0l0,7.30812z"/>
      </g>
     </g>
    </g>
   </g>
  </g>
 </g>
</svg>