<svg width="32" height="32" xmlns="http://www.w3.org/2000/svg">
 <title>Asset 1</title>

 <g>
  <title>Layer 1</title>
  <ellipse stroke-width="0" ry="16" rx="16" id="svg_11" cy="16" cx="16" stroke="#000" fill="#fff"/>
  <g stroke="null">

   <title stroke="null">wrapped-bitcoin-wbtc</title>
   <g stroke="null" data-name="Layer 2" id="svg_1">
    <g stroke="null" data-name="Layer 1" id="svg_2">
     <g stroke="null" id="svg_3">
      <g stroke="null" data-name="wbtc colour" id="svg_4">
       <path stroke="null" fill="#5a5564" d="m26.01306,6.78891l-0.87171,0.87171a12.34053,12.34053 0 0 1 0,16.65551l0.87171,0.87171a13.58708,13.58708 0 0 0 0,-18.41927l0,0.02034z" class="cls-1" id="svg_10"/>
       <path stroke="null" fill="#5a5564" d="m7.68096,6.86446a12.34053,12.34053 0 0 1 16.65551,0l0.87171,-0.87171a13.58708,13.58708 0 0 0 -18.41927,0l0.89205,0.87171z" class="cls-1" data-name="Shape" id="svg_9"/>
       <path stroke="null" fill="#5a5564" d="m6.86446,24.32485a12.34053,12.34053 0 0 1 0,-16.64679l-0.87171,-0.87171a13.58708,13.58708 0 0 0 0,18.41927l0.87171,-0.90077z" class="cls-1" data-name="Shape" id="svg_8"/>
       <path stroke="null" fill="#5a5564" d="m24.32485,25.12973a12.34053,12.34053 0 0 1 -16.65551,0l-0.87171,0.87171a13.58708,13.58708 0 0 0 18.41927,0l-0.89205,-0.87171z" class="cls-1" data-name="Shape" id="svg_7"/>
       <path stroke="null" fill="#f09242" d="m21.50341,13.09139c-0.17434,-1.81897 -1.74342,-2.42917 -3.72802,-2.61514l0,-2.50472l-1.53421,0l0,2.45823c-0.40389,0 -0.8165,0 -1.22621,0l0,-2.45823l-1.52259,0l0,2.52215l-3.11201,0l0,1.64172s1.13323,-0.02034 1.11579,0a0.79326,0.79326 0 0 1 0.87171,0.67412l0,6.90396a0.53756,0.53756 0 0 1 -0.18597,0.37484a0.53174,0.53174 0 0 1 -0.39518,0.13366c0.02034,0.01743 -1.11579,0 -1.11579,0l-0.29057,1.8335l3.08295,0l0,2.56283l1.53421,0l0,-2.52506l1.22621,0l0,2.51344l1.53712,0l0,-2.53378c2.59189,-0.15691 4.39924,-0.79616 4.62588,-3.22243c0.18306,-1.95263 -0.73514,-2.82435 -2.20253,-3.17594c0.89205,-0.43876 1.44414,-1.25236 1.31919,-2.58317zm-2.15022,5.45692c0,1.90614 -3.26601,1.68822 -4.30626,1.68822l0,-3.38224c1.04024,0.00291 4.30626,-0.29638 4.30626,1.69403zm-0.7119,-4.76536c0,1.74342 -2.72555,1.53131 -3.59145,1.53131l0,-3.07424c0.8659,0 3.59145,-0.27314 3.59145,1.54293z" class="cls-2" data-name="Shape" id="svg_6"/>
       <path stroke="null" fill="#282138" d="m15.99709,31.87387a15.87387,15.87387 0 1 1 15.87678,-15.87678a15.87387,15.87387 0 0 1 -15.87678,15.87678zm0,-30.50991a14.62732,14.62732 0 1 0 14.63895,14.63314a14.62732,14.62732 0 0 0 -14.63895,-14.63314z" class="cls-3" data-name="Shape" id="svg_5"/>
      </g>
     </g>
    </g>
   </g>
  </g>
 </g>
</svg>