<svg width="32" height="32" xmlns="http://www.w3.org/2000/svg">
 <title>yearn-finance-yfi</title>

 <g>
  <title>Layer 1</title>
  <g stroke="null" data-name="Layer 2" id="Layer_2">
   <g stroke="null" data-name="Layer 1" id="Layer_1-2">
    <path stroke="null" fill-rule="evenodd" fill="#006ae3" d="m16,0.01089c8.82919,0 15.98911,7.15992 15.98911,15.98911s-7.15992,15.98911 -15.98911,15.98911s-15.98911,-7.15992 -15.98911,-15.98911s7.15992,-15.98911 15.98911,-15.98911z" id="SVGID"/>
    <polygon stroke="null" fill="#fff" points="15.341249465942383,22.741005897521973 15.341249465942383,9.438070297241211 16.78986358642578,9.438070297241211 16.78986358642578,22.741005897521973 15.341249465942383,22.741005897521973 " data-name="SVGID" id="SVGID-2"/>
    <path stroke="null" fill="#fff" d="m22.71543,13.87025l-4.47375,1.18639l-0.99772,-4.64324l1.33029,-0.3006l0.52444,2.2001s1.20878,-1.98265 -0.40293,-4.03565c-0.94975,-1.05528 -1.40065,-1.10005 -2.46552,-1.26634c-0.93696,-0.13431 -3.11468,0.18228 -3.76384,2.72454c-0.27501,1.63728 0.03518,2.84926 2.14574,4.43538l-0.11832,1.7652s-2.35679,-1.65967 -2.96438,-2.82368c-0.47008,-0.92097 -1.27593,-2.74053 0.17908,-5.27321c0.78347,-1.26634 2.32801,-2.48151 5.04936,-2.3536c1.36867,0.05756 4.71039,1.73002 4.19234,5.63776c-0.08954,0.7323 -0.47008,1.70764 -0.47008,1.70764l1.83555,-0.40932l0.39973,1.44861z" data-name="SVGID" id="SVGID-3"/>
    <path stroke="null" fill="#fff" d="m20.16037,24.27916c-0.81864,1.24395 -2.39517,2.41755 -5.11012,2.21929c-1.36867,-0.09274 -4.66242,-1.85474 -4.04205,-5.74649c0.10873,-0.7291 0.51485,-1.69165 0.51485,-1.69165l-1.84514,0.35816l-0.36135,-1.45501l4.50573,-1.06807l0.8762,4.66882l-1.33989,0.26542l-0.46688,-2.21609s-1.25994,1.94747 0.2942,4.04524c0.92097,1.08086 1.36867,1.13523 2.43354,1.33029c0.93057,0.15989 3.11788,-0.10233 3.83419,-2.62541c0.31658,-1.62769 0.03837,-2.84926 -2.02742,-4.49294l0.16629,-1.762s2.31203,1.72043 2.88763,2.90042c0.4413,0.93696 1.19918,2.77891 -0.31978,5.27001z" data-name="SVGID" id="SVGID-4"/>
   </g>
  </g>
 </g>
</svg>