<svg id="Эллипс_1_-_Группа_смарт-объектов" data-name="Эллипс 1 - Группа смарт-объектов" xmlns="http://www.w3.org/2000/svg" width="300" height="93" viewBox="0 0 300 93">
  <defs>
    <style>
      .cls-1 {
        fill: #fff;
      }

      .cls-2, .cls-3 {
        fill-rule: evenodd;
      }

      .cls-3 {
        fill: none;
        stroke: #000;
        stroke-width: 10px;
      }
    </style>
  </defs>
  <rect id="Прямоугольник_1" data-name="Прямоугольник 1" class="cls-1" width="300" height="93" rx="40.92" ry="40.92"/>
  <path id="Кешбэк" class="cls-2" d="M109.031,44.4a12.731,12.731,0,0,0,3.911-2.943,18.881,18.881,0,0,0,2.875-5.287q0.627-1.608,1.213-2.807a6.139,6.139,0,0,1,1.376-1.908,5,5,0,0,1,1.908-1.131,10.035,10.035,0,0,1,2.943-.341h2.262V25.163h-2.153q-4.9,0-7.426,1.826t-4.4,6.35q-0.49,1.226-.968,2.344t-0.831,1.853a11.749,11.749,0,0,1-1.88,2.848,9.207,9.207,0,0,1-2.153,1.785,6.889,6.889,0,0,1-2.317.927,14.78,14.78,0,0,1-2.616.273v-18.2h-5.4V65.741h5.4v-18.5h3.679l16.487,18.5h6.922Zm46.046,3.87q0-6.622-3.338-10.219t-9.5-3.6a13.948,13.948,0,0,0-10.724,4.388q-4.074,4.388-4.074,11.855,0,7.549,4.251,11.65t11.828,4.1a21.454,21.454,0,0,0,5.668-.736,42.22,42.22,0,0,0,5.287-1.826V58.3h-0.273a15.385,15.385,0,0,1-4.483,2.439,16.957,16.957,0,0,1-6.254,1.24,13.416,13.416,0,0,1-4.292-.654,9.038,9.038,0,0,1-5.682-5.382,12.959,12.959,0,0,1-.845-4.892h22.428v-2.78Zm-22.428-1.145a9.419,9.419,0,0,1,2.766-6.023,8.886,8.886,0,0,1,6.554-2.425q4.087,0,6.091,2.207a9.058,9.058,0,0,1,2.03,6.241H132.649Zm65.1-11.827h-5.123V61.326H180.9V35.3h-5.123V61.326H164.061V35.3h-5.124v30.44h38.807V35.3Zm24.435,1.908a14.591,14.591,0,0,0-4.932-.845,13.615,13.615,0,0,0-5.192.995,21.618,21.618,0,0,0-4.483,2.466,23.058,23.058,0,0,1,.94-4.428,8.995,8.995,0,0,1,2.167-3.774,9.574,9.574,0,0,1,4.129-2.18,31.412,31.412,0,0,1,6.309-1.144q1.743-.164,3.5-0.273l3.557-.218V23.091q-1.472.109-3.325,0.232t-4.006.313a32.636,32.636,0,0,0-8.489,1.676,14.182,14.182,0,0,0-5.164,3.2A12.528,12.528,0,0,0,204.7,32.3a24.535,24.535,0,0,0-1.594,4.878,38.218,38.218,0,0,0-.872,5.055q-0.19,2.112-.191,4.156A36.9,36.9,0,0,0,203.117,56a16.872,16.872,0,0,0,3.256,6.527,10.614,10.614,0,0,0,4.224,3.066,14.438,14.438,0,0,0,5.423.995,13.06,13.06,0,0,0,10.056-4.5,16.171,16.171,0,0,0,4.088-11.31,18.7,18.7,0,0,0-.981-6.363,12.393,12.393,0,0,0-2.889-4.619A10.934,10.934,0,0,0,222.179,37.208Zm0.464,21.965a7.7,7.7,0,0,1-6.432,2.971,8.132,8.132,0,0,1-3.161-.613,7.307,7.307,0,0,1-2.725-2.085,12.252,12.252,0,0,1-2.235-4.687,30.5,30.5,0,0,1-.79-7.685q0-.763.041-1.676t0.095-1.594a19.391,19.391,0,0,1,4.142-2,13.909,13.909,0,0,1,4.551-.749,8.532,8.532,0,0,1,6.405,2.493q2.424,2.494,2.425,7.535Q224.959,56.2,222.643,59.173ZM248,35.518a19.895,19.895,0,0,0-11.554-.136q-2.644.791-4.361,1.472v5.614h0.355a16.745,16.745,0,0,1,4.823-2.657,15.283,15.283,0,0,1,4.933-.831,9.031,9.031,0,0,1,9.592,8.639H236.45v4.115h15.37q-0.327,5.069-3,7.685a9.509,9.509,0,0,1-6.949,2.616,16.251,16.251,0,0,1-5.669-.995,16,16,0,0,1-4.333-2.276h-0.354v5.614a34.5,34.5,0,0,0,4.428,1.39,22,22,0,0,0,5.383.654q7.084,0,11.323-4.469t4.238-12.045a19.045,19.045,0,0,0-1.091-6.786,12.8,12.8,0,0,0-3.079-4.769A12.558,12.558,0,0,0,248,35.518ZM273.748,49.58a8.953,8.953,0,0,0,2.575-1.921,12.862,12.862,0,0,0,2.3-3.829,7.766,7.766,0,0,1,2.194-3.2,5.486,5.486,0,0,1,3.365-.913h2.262V35.3H284.1a10.374,10.374,0,0,0-6.1,1.526,11.333,11.333,0,0,0-3.543,4.606q-0.354.763-.722,1.594t-0.749,1.567a7.29,7.29,0,0,1-2.644,2.93,8.01,8.01,0,0,1-4.088.913V35.3H261.13v30.44h5.123V51.788h2.78l12.645,13.953h6.7Z"/>
  <path id="Фигура_1" data-name="Фигура 1" class="cls-2" d="M17.225,37.291s-2.791,1.062-1.771,6.374l1.062,6.2a5.548,5.548,0,0,0,4.957,4.072c4.158,0.43,15.049.531,15.049,0.531s5.37-.207,7.082-5.134l1.77-6.374H47.5l1.594,6.728a8.915,8.915,0,0,0,7.259,4.78c5.236,0.369,15.226-.531,15.226-0.531s4.167-.912,4.6-4.249,1.239-7.613,1.239-7.613,0.377-3.479-1.77-4.957c0,0-4.881-17.055-11.862-16.819,0,0-3.95.535-3.187,3.187a2.294,2.294,0,0,0,2.833,1.593s0.684-1.14,2.3,1.062c0,0,2.391,2.966,4.957,9.737,0,0-16.963.409-18.767,0.531a5.68,5.68,0,0,0-3.541,2.124H44.313s-1.148-1.93-4.426-2.124-17.7-.531-17.7-0.531,2.686-7.768,4.6-9.56c0,0,1.327-2.077,2.656-1.239s3.313-1.406,2.833-1.947c0,0,.094-2.978-3.718-2.656s-6.031,3.691-8.5,9.206ZM19.7,41.717l0.885,6.551a1.373,1.373,0,0,0,1.239,1.416l14.518,0.354A4.62,4.62,0,0,0,40.064,46.5c0.656-3.1.885-3.895,0.885-3.895s0.517-1.784-.708-1.948-19.475-.708-19.475-0.708S19.454,39.789,19.7,41.717Zm36.825,8.321s-3.163.375-4.249-5.311-0.531-2.479-.531-2.479a1.279,1.279,0,0,1,1.239-1.593c1.5,0.019,18.944-.708,18.944-0.708s1.442-.063,1.239,1.77-1.062,6.374-1.062,6.374,0.145,1.644-1.948,1.416Z"/>
  <path id="Эллипс_1" data-name="Эллипс 1" class="cls-3" d="M46.172,7.115A39.383,39.383,0,1,1,6.788,46.5,39.383,39.383,0,0,1,46.172,7.115Z"/>
</svg>
