<svg width="141" height="141" viewBox="0 0 141 141" fill="none" xmlns="http://www.w3.org/2000/svg">
<g clip-path="url(#clip0)">
<path d="M102.392 38.9989C109 36.7432 116.184 40.2705 118.439 46.8785C119.567 50.1825 119.253 53.6412 117.809 56.5451C116.387 59.4418 113.849 61.8269 110.545 62.9547L108.278 63.7287L100.103 39.7803L102.392 38.9989Z" fill="#ED664C"/>
<path d="M108.292 63.7002L116.394 87.4327L65.0476 84.7792L53.4007 50.6597L92.4067 17.1638L100.125 39.7734L108.292 63.7002Z" fill="#FDC75B"/>
<path d="M31.3555 88.6367C30.9468 88.0046 30.5882 87.3073 30.3302 86.5515L24.8532 70.5066C24.4551 69.3405 24.2878 68.1439 24.3442 66.9673C24.5189 63.1705 26.9688 59.682 30.7911 58.3772L53.3791 50.6666L65.026 84.7861L57.7918 87.2556L42.4381 92.4967C41.4663 92.8284 40.4861 92.9943 39.5049 93.0158C36.2653 93.0607 33.1507 91.4235 31.3555 88.6367Z" fill="#ED664C"/>
<path d="M53.2194 113.627L39.5228 93.492L39.5266 93.0085C40.4862 92.9943 41.4879 92.8211 42.4597 92.4894L57.8135 87.2483L68.6363 103.132C72.1077 108.216 69.7697 115.21 63.9391 117.201C61.9524 117.879 59.8668 117.843 57.9644 117.215C56.0837 116.579 54.4079 115.343 53.2194 113.627Z" fill="#ED664C"/>
<path d="M24.3658 66.96C24.3094 68.1366 24.4694 69.3116 24.8748 70.4994L30.3518 86.5442C30.6098 87.3 30.9468 88.0047 31.3771 88.6294L28.5773 88.6207C23.865 88.5897 19.6798 85.582 18.1539 81.1119C17.3872 78.866 17.3632 76.5355 18.026 74.3804C18.6598 72.211 19.9519 70.275 21.8176 68.8184L24.1783 66.9758L24.3658 66.96Z" fill="#FDC75B"/>
<path d="M101.483 37.0431L101.311 37.1021L94.3592 16.7383C94.1159 16.0257 93.5635 15.4668 92.8404 15.2556C92.1173 15.0443 91.3172 15.1727 90.7652 15.6746L52.0816 48.8435L29.9039 56.414C25.6929 57.8514 22.7174 61.4953 22.0486 65.8224L20.2551 67.2785C18.045 68.9974 16.4816 71.3394 15.6998 73.9933C14.8963 76.6545 14.9456 79.4828 15.8523 82.139C17.6878 87.516 22.7362 91.1453 28.4154 91.1838L30.0607 91.2008C31.9755 93.561 34.7647 95.0924 37.7694 95.4892L51.2032 115.207C52.6108 117.283 54.7005 118.884 57.1163 119.675C59.5611 120.48 62.1155 120.476 64.5341 119.65C67.9892 118.471 70.6471 115.803 71.8056 112.346C72.9641 108.888 72.4246 105.118 70.3824 102.102L61.2295 88.6383L65.2029 87.2819L116.123 89.9601C116.419 89.9797 116.722 89.9486 116.981 89.8602C117.413 89.7127 117.765 89.4721 118.022 89.095C118.465 88.4857 118.568 87.7272 118.324 87.0146L110.946 65.3984L111.118 65.3394C114.897 64.0494 117.945 61.3936 119.687 57.8092C121.458 54.239 121.703 50.153 120.413 46.374C117.781 38.5925 109.279 34.382 101.483 37.0431ZM20.1928 80.6573C19.5957 78.9081 19.5463 77.0684 20.0748 75.2967C20.5184 73.771 21.4033 72.408 22.5574 71.3389C22.5721 71.3821 22.6159 71.4395 22.6306 71.4827L27.7759 86.5558C24.303 86.2705 21.3206 83.9613 20.1928 80.6573ZM32.4339 86.0748L26.9569 70.03C26.662 69.1662 26.482 68.215 26.5332 67.3055C26.6704 64.3171 28.5493 61.6986 31.3782 60.7329L51.7851 53.7669L61.9578 83.5675L41.5509 90.5335C40.8383 90.7768 40.1035 90.9553 39.3314 90.9536C36.8423 91.0076 34.5024 89.7328 33.1595 87.6355C32.8315 87.1688 32.6256 86.6363 32.4339 86.0748ZM66.598 104.648C67.8524 106.486 68.1645 108.742 67.4654 110.862C66.7589 112.959 65.1687 114.587 63.0524 115.31C61.584 115.811 60.0182 115.815 58.5498 115.328C57.0815 114.84 55.8117 113.875 54.9729 112.619L42.932 94.9325C42.9751 94.9178 42.982 94.8672 43.0252 94.8524L56.7378 90.1715L66.598 104.648ZM112.936 85.2855L66.5421 82.8706L55.8977 51.6879L91.1313 21.4086L112.936 85.2855ZM115.625 55.7964C114.423 58.2801 112.3 60.1138 109.666 61.0131L109.493 61.0721L102.785 41.421L102.958 41.362C108.378 39.5118 114.273 42.4423 116.123 47.8625C117.015 50.4755 116.848 53.3053 115.625 55.7964Z" fill="#281789"/>
</g>
<defs>
<clipPath id="clip0">
<rect width="110.508" height="110.508" fill="white" transform="translate(0 35.7002) rotate(-18.8478)"/>
</clipPath>
</defs>
</svg>
