<svg width="186" height="80" viewBox="0 0 186 80" fill="none" xmlns="http://www.w3.org/2000/svg">
<path d="M25.9082 62.5583L26.375 63.7741L14.6248 63.7741L15.0909 62.5584L25.9082 62.5583Z" fill="#C3CACF"/>
<path d="M23.9412 63.7739L17.07 63.7739C13.4313 73.7128 20.1003 79.7606 20.1003 79.7606C28.0838 73.1073 23.9412 63.7739 23.9412 63.7739Z" fill="#FCBF11"/>
<path d="M18.1491 63.7739L22.8671 63.7739C23.206 66.3939 23.201 70.8195 20.2786 74.3168C20.2772 74.3168 17.2555 70.3798 18.1491 63.7739Z" fill="#FFE564"/>
<path d="M20.3737 69.0464C20.3737 69.0464 19.147 67.1133 19.0712 63.7739L21.9307 63.7739C21.8799 65.4252 21.5225 67.3866 20.3737 69.0464Z" fill="#EE8940"/>
<path d="M12.4702 60.4897L28.5273 60.4897L28.5273 62.5588L12.4702 62.5588L12.4702 60.4897Z" fill="#AE4B1C"/>
<path d="M29.8272 60.087L29.8271 20.5383C29.8271 14.601 29.3861 13.713 27.5317 10.0323C27.2973 9.69384 24.0675 5.13086 20.5004 5.13086C16.8089 5.13086 13.4891 10.0026 13.4562 10.0514C11.6855 12.7868 11.1736 13.8752 11.1736 20.5383L11.1736 60.0856L29.8272 60.087Z" fill="#DBE2E8"/>
<path d="M20.5006 5.53526C17.035 5.53526 13.8267 10.2299 13.8024 10.2653C12.0774 12.9285 11.5806 13.9878 11.5806 20.5398L11.5806 59.6835L29.4199 59.6835L29.4199 20.5384C29.4199 14.7101 28.991 13.8285 27.1795 10.237C26.8657 9.78738 23.809 5.53384 20.4999 5.53384L20.5006 5.53526ZM20.4999 4.72803C24.4523 4.72803 27.8829 9.82633 27.8829 9.82633C29.773 13.5792 30.2334 14.5479 30.2334 20.5363L30.2334 60.49L10.7671 60.49L10.7671 20.5384C10.7671 13.9057 11.2768 12.6708 13.1175 9.82845C13.1175 9.82845 16.5489 4.73015 20.5006 4.73015L20.4999 4.72803Z" fill="white"/>
<path d="M15.7997 8.00513L25.3788 8.00513C25.3788 8.00513 27.9873 14.1904 27.9873 20.5384L27.9873 60.49L13.0161 60.49L13.0161 20.5384C13.016 13.9071 15.7997 8.00513 15.7997 8.00513Z" fill="white"/>
<path d="M13.1187 9.82981C14.4919 7.65099 19.27 0.924073 20.4081 0.924073C21.5654 0.924073 27.1678 8.59842 27.8848 9.8298C27.8848 9.8298 24.5721 8.93194 20.5017 8.93194C16.4313 8.93194 13.1187 9.82981 13.1187 9.82981Z" fill="#1B6094"/>
<path d="M20.4191 0.924073C20.4464 0.926137 20.4734 0.93064 20.4999 0.937527C21.4221 1.26608 24.8834 7.44635 25.8613 9.40495C24.0909 9.09723 22.2973 8.93876 20.4999 8.93123C18.7024 8.93868 16.9089 9.09716 15.1385 9.40495C16.3745 6.89829 19.5942 0.974348 20.4191 0.924073Z" fill="#3473A0"/>
<path d="M30.2235 31.6216L30.2235 55.7918L41 55.7918L41 51.5616C41 50.68 30.2235 31.6216 30.2235 31.6216Z" fill="#DBE2E8"/>
<path d="M40.0707 57.43L30.2264 59.1656L30.2264 55.7915L41 55.7915L41 56.3098C41 57.1914 40.0707 57.43 40.0707 57.43Z" fill="#AE4B1C"/>
<path d="M10.7764 31.6216L10.7764 55.7918L-0.000163758 55.7918L-0.000164139 51.5616C-0.000164219 50.68 10.7764 31.6216 10.7764 31.6216Z" fill="#DBE2E8"/>
<path d="M0.932014 57.43L10.7764 59.1684L10.7764 55.7915L-0.000164032 55.7915L-0.000163985 56.3098C-0.000163906 57.1914 0.932014 57.43 0.932014 57.43Z" fill="#AE4B1C"/>
<path d="M30.2219 31.6216C30.2219 31.6216 40.9577 50.6113 40.9941 51.3796C40.9284 51.34 40.8612 51.2996 40.7947 51.2571C35.0966 47.7294 31.8447 42.5858 30.2219 39.2797L30.2219 31.6216Z" fill="white"/>
<path d="M10.7764 31.6216L10.7764 38.7026C9.26802 41.9449 6.00113 47.4596 0.0170592 51.2026C0.0856855 50.5398 10.7764 31.6216 10.7764 31.6216Z" fill="white"/>
<path d="M19.999 13.1643L19.999 18.1387C19.5461 18.2035 19.1104 18.3555 18.7166 18.5862L15.193 14.9912C16.5649 13.9032 18.2445 13.2647 19.999 13.1643Z" fill="#1B6094"/>
<path d="M22.2827 18.5862C21.8875 18.355 21.4503 18.2029 20.996 18.1387L20.996 13.1643C22.7498 13.2649 24.4286 13.9033 25.7998 14.9912L22.2827 18.5862Z" fill="#1B6094"/>
<path d="M23.8724 20.6241C23.7207 20.0953 23.444 19.6099 23.0654 19.2079L26.5467 15.6526C27.8904 16.9943 28.7387 18.7451 28.9551 20.6227L23.8724 20.6241Z" fill="#1B6094"/>
<path d="M17.9336 19.2108C17.555 19.6129 17.2781 20.0982 17.1258 20.627L12.0432 20.627C12.2586 18.7478 13.107 16.9954 14.4515 15.6526L17.9336 19.2108Z" fill="#1B6094"/>
<path d="M25.4883 61.2538L25.4883 50.8554C25.5016 49.9205 25.8858 49.0284 26.558 48.3719C27.2301 47.7154 28.1361 47.3474 29.0801 47.3474C30.024 47.3474 30.93 47.7154 31.6021 48.3719C32.2743 49.0284 32.6586 49.9205 32.6719 50.8554L32.6719 61.2538L25.4883 61.2538Z" fill="#DBE2E8"/>
<path d="M8.33103 61.2538L8.33103 50.8554C8.34435 49.9205 8.72863 49.0284 9.40078 48.3719C10.0729 47.7154 10.9789 47.3474 11.9228 47.3474C12.8668 47.3474 13.7728 47.7154 14.4449 48.3719C15.1171 49.0284 15.5013 49.9205 15.5146 50.8554L15.5146 61.2538L8.33103 61.2538Z" fill="#DBE2E8"/>
<path d="M29.1984 47.3C30.1299 47.3304 31.0131 47.7182 31.6613 48.3817C32.3094 49.0451 32.6718 49.9322 32.6719 50.8554L32.6719 61.2538L29.1984 61.2538L29.1984 47.3Z" fill="#CDD4D9"/>
<path d="M11.833 47.3L11.833 61.2538L8.33024 61.2538L8.33024 50.8554C8.33051 49.9273 8.69695 49.036 9.35136 48.3718C10.0058 47.7076 10.8963 47.323 11.833 47.3Z" fill="#CDD4D9"/>
<path d="M30.7596 62.8159L27.4069 62.8159C25.6319 68.6931 28.886 72.2689 28.886 72.2689C32.7791 68.3348 30.7596 62.8159 30.7596 62.8159Z" fill="#FCBF11"/>
<path d="M27.9339 62.8159L30.2343 62.8159C30.4002 64.5076 30.3981 67.359 28.9712 69.6136C28.9712 69.6164 27.4972 67.0758 27.9339 62.8159Z" fill="#FFE564"/>
<path d="M29.0179 67.5425C29.0179 67.5425 28.4196 65.809 28.3824 62.8159L29.7764 62.8159C29.7528 64.2987 29.5784 66.0547 29.0179 67.5425Z" fill="#EE8940"/>
<path d="M26.7838 62.8166L31.5068 62.8166L31.3846 62.2659L26.9067 62.2659L26.7838 62.8166Z" fill="#BDC3C8"/>
<path d="M26.42 61.2539L26.42 61.8472C26.4199 61.9021 26.4307 61.9564 26.4518 62.0071C26.473 62.0578 26.504 62.1039 26.5431 62.1426C26.5822 62.1814 26.6287 62.2122 26.6798 62.2331C26.7309 62.2541 26.7857 62.2648 26.841 62.2647L31.4469 62.2647C31.5021 62.2647 31.5568 62.2539 31.6079 62.2329C31.6589 62.2119 31.7053 62.1812 31.7443 62.1424C31.7834 62.1036 31.8143 62.0576 31.8354 62.0069C31.8565 61.9563 31.8673 61.902 31.8672 61.8472L31.8672 61.2539L26.42 61.2539Z" fill="#DBE2E8"/>
<path d="M26.9762 61.2539L26.9762 49.3819C26.9864 48.8358 27.2125 48.3154 27.606 47.9327C27.9995 47.5501 28.5289 47.3357 29.0804 47.3357C29.6318 47.3357 30.1612 47.5501 30.5547 47.9327C30.9482 48.3154 31.1744 48.8358 31.1846 49.3819L31.1846 61.2539L26.9762 61.2539Z" fill="#E6ECF0"/>
<path d="M29.0809 47.2981C29.425 47.2981 29.7656 47.3652 30.0835 47.4957C30.4013 47.6261 30.6901 47.8173 30.9333 48.0582C31.1765 48.2992 31.3694 48.5853 31.501 48.9002C31.6326 49.2151 31.7003 49.5525 31.7002 49.8933L31.7002 61.254L31.1848 61.254L31.1848 49.382C31.1848 48.8293 30.9631 48.2993 30.5686 47.9085C30.174 47.5177 29.6389 47.2981 29.0809 47.2981Z" fill="white"/>
<path d="M28.9951 47.2993C28.4522 47.3211 27.9388 47.55 27.5624 47.9381C27.186 48.3263 26.9758 48.8436 26.9756 49.3818L26.9756 61.2538L26.4595 61.2538L26.4595 49.8931C26.4595 49.2193 26.7241 48.5719 27.1973 48.0878C27.6705 47.6038 28.3152 47.321 28.9951 47.2993Z" fill="white"/>
<path d="M13.5997 62.8159L10.2477 62.8159C8.47268 68.6931 11.7267 72.2689 11.7267 72.2689C15.6234 68.3348 13.5997 62.8159 13.5997 62.8159Z" fill="#FCBF11"/>
<path d="M10.7732 62.8159L13.0744 62.8159C13.2402 64.5076 13.2367 67.359 11.8112 69.6136C11.8112 69.6164 10.3372 67.0758 10.7732 62.8159Z" fill="#FFE564"/>
<path d="M11.8597 67.5425C11.8597 67.5425 11.2606 65.809 11.2249 62.8159L12.6182 62.8159C12.5946 64.2987 12.4209 66.0547 11.8597 67.5425Z" fill="#EE8940"/>
<path d="M9.62286 62.8167L14.3467 62.8166L14.2237 62.2659L9.74511 62.2659L9.62286 62.8167Z" fill="#BDC3C8"/>
<path d="M9.26103 61.2539L9.26103 61.8472C9.26094 61.902 9.27174 61.9563 9.29282 62.0069C9.3139 62.0576 9.34485 62.1036 9.38389 62.1424C9.42293 62.1812 9.4693 62.2119 9.52035 62.2329C9.57139 62.2539 9.62611 62.2647 9.68137 62.2647L14.2886 62.2647C14.3439 62.2648 14.3987 62.2541 14.4498 62.2331C14.5009 62.2122 14.5473 62.1814 14.5863 62.1426C14.6254 62.1038 14.6563 62.0577 14.6774 62.007C14.6984 61.9564 14.7092 61.902 14.709 61.8472L14.709 61.2539L9.26103 61.2539Z" fill="#DBE2E8"/>
<path d="M9.81607 61.2539L9.81607 49.3819C9.82623 48.8358 10.0524 48.3154 10.4459 47.9327C10.8394 47.5501 11.3688 47.3357 11.9202 47.3357C12.4717 47.3357 13.0011 47.5501 13.3946 47.9327C13.7881 48.3154 14.0143 48.8358 14.0244 49.3819L14.0244 61.2539L9.81607 61.2539Z" fill="#E6ECF0"/>
<path d="M11.9201 47.2981C12.6149 47.2981 13.2813 47.5715 13.7727 48.0582C14.264 48.5449 14.54 49.205 14.54 49.8933L14.54 61.254L14.0239 61.254L14.0239 49.382C14.0239 48.8293 13.8023 48.2993 13.4077 47.9085C13.0132 47.5177 12.4781 47.2981 11.9201 47.2981Z" fill="white"/>
<path d="M11.833 47.2993C11.2901 47.3211 10.7767 47.55 10.4003 47.9381C10.0239 48.3263 9.81367 48.8436 9.81356 49.3818L9.81356 61.2538L9.29815 61.2538L9.29815 49.8931C9.29816 49.2194 9.56265 48.5721 10.0357 48.0881C10.5087 47.604 11.1533 47.3212 11.833 47.2993Z" fill="white"/>
<path d="M19.9214 60.4898L19.9214 48.5385C19.9187 48.4616 19.9316 48.3848 19.9595 48.3129C19.9873 48.241 20.0295 48.1754 20.0835 48.12C20.1375 48.0646 20.2022 48.0205 20.2738 47.9904C20.3454 47.9603 20.4223 47.9448 20.5001 47.9448C20.5778 47.9448 20.6548 47.9603 20.7263 47.9904C20.7979 48.0205 20.8626 48.0646 20.9166 48.12C20.9706 48.1754 21.0128 48.241 21.0407 48.3129C21.0685 48.3848 21.0815 48.4616 21.0787 48.5385L21.0787 60.4898L19.9214 60.4898Z" fill="#EC622A"/>
<path d="M21.8271 25.5183L24.6093 25.5183C24.6884 25.5181 24.7668 25.5334 24.84 25.5633C24.9131 25.5932 24.9796 25.6371 25.0356 25.6925C25.0916 25.7479 25.136 25.8137 25.1662 25.8861C25.1965 25.9585 25.212 26.0361 25.2119 26.1145L25.2119 32.7175C25.212 32.7959 25.1965 32.8736 25.1662 32.9461C25.136 33.0185 25.0916 33.0844 25.0356 33.1398C24.9796 33.1953 24.9132 33.2392 24.84 33.2692C24.7669 33.2992 24.6885 33.3145 24.6093 33.3144L21.8271 33.3144L21.8271 25.5183Z" fill="#DBE2E8"/>
<path d="M19.1729 25.5183L16.3906 25.5183C16.3115 25.5181 16.2331 25.5334 16.1599 25.5633C16.0868 25.5932 16.0203 25.6371 15.9643 25.6925C15.9083 25.7479 15.8639 25.8137 15.8337 25.8861C15.8034 25.9585 15.7879 26.0361 15.788 26.1145L15.788 32.7175C15.7879 32.7959 15.8034 32.8736 15.8337 32.9461C15.8639 33.0185 15.9083 33.0844 15.9643 33.1398C16.0203 33.1953 16.0867 33.2392 16.1599 33.2692C16.233 33.2992 16.3115 33.3145 16.3906 33.3144L19.1729 33.3144L19.1729 25.5183Z" fill="#DBE2E8"/>
<path d="M63.0931 30.31C60.1378 30.31 57.8128 29.597 56.1181 28.171C54.4441 26.745 53.5555 24.6577 53.4521 21.909C53.4315 21.351 53.4211 20.4417 53.4211 19.181C53.4211 17.8997 53.4315 16.9697 53.4521 16.391C53.5555 13.7043 54.4545 11.6377 56.1491 10.191C57.8645 8.72367 60.1791 7.99 63.0931 7.99C64.9325 7.99 66.5755 8.28967 68.0221 8.889C69.4895 9.48833 70.6468 10.3563 71.4941 11.493C72.3415 12.6297 72.7858 13.973 72.8271 15.523C72.8271 15.709 72.7548 15.864 72.6101 15.988C72.4861 16.112 72.3311 16.174 72.1451 16.174H67.7431C67.4538 16.174 67.2368 16.1223 67.0921 16.019C66.9681 15.895 66.8545 15.678 66.7511 15.368C66.4618 14.3553 66.0175 13.6527 65.4181 13.26C64.8395 12.8467 64.0645 12.64 63.0931 12.64C60.7578 12.64 59.5488 13.942 59.4661 16.546C59.4455 17.104 59.4351 17.9617 59.4351 19.119C59.4351 20.2763 59.4455 21.1547 59.4661 21.754C59.5488 24.358 60.7578 25.66 63.0931 25.66C64.0438 25.66 64.8188 25.4533 65.4181 25.04C66.0381 24.6267 66.4825 23.924 66.7511 22.932C66.8338 22.622 66.9475 22.4153 67.0921 22.312C67.2368 22.188 67.4538 22.126 67.7431 22.126H72.1451C72.3311 22.126 72.4861 22.188 72.6101 22.312C72.7548 22.436 72.8271 22.591 72.8271 22.777C72.7858 24.327 72.3415 25.6703 71.4941 26.807C70.6468 27.9437 69.4895 28.8117 68.0221 29.411C66.5755 30.0103 64.9325 30.31 63.0931 30.31ZM83.3998 30.31C80.7958 30.31 78.7911 29.7107 77.3858 28.512C76.0011 27.2927 75.2468 25.567 75.1228 23.335C75.1021 23.0663 75.0918 22.6013 75.0918 21.94C75.0918 21.2787 75.1021 20.8137 75.1228 20.545C75.2468 18.3543 76.0218 16.6493 77.4478 15.43C78.8945 14.19 80.8785 13.57 83.3998 13.57C85.9211 13.57 87.8948 14.19 89.3208 15.43C90.7675 16.6493 91.5528 18.3543 91.6768 20.545C91.7181 21.0823 91.7388 21.5473 91.7388 21.94C91.7388 22.3327 91.7181 22.7977 91.6768 23.335C91.5528 25.567 90.7881 27.2927 89.3828 28.512C87.9981 29.7107 86.0038 30.31 83.3998 30.31ZM83.3998 26.404C84.2471 26.404 84.8775 26.1457 85.2908 25.629C85.7041 25.0917 85.9418 24.2753 86.0038 23.18C86.0245 22.9733 86.0348 22.56 86.0348 21.94C86.0348 21.32 86.0245 20.9067 86.0038 20.7C85.9418 19.6253 85.7041 18.8193 85.2908 18.282C84.8775 17.7447 84.2471 17.476 83.3998 17.476C82.5525 17.476 81.9221 17.7447 81.5088 18.282C81.0955 18.8193 80.8578 19.6253 80.7958 20.7L80.7648 21.94L80.7958 23.18C80.8578 24.2753 81.0955 25.0917 81.5088 25.629C81.9221 26.1457 82.5525 26.404 83.3998 26.404ZM101.45 30.31C99.7551 30.31 98.3395 30.0723 97.2028 29.597C96.0661 29.1217 95.2188 28.5533 94.6608 27.892C94.1235 27.2307 93.8548 26.6313 93.8548 26.094C93.8548 25.8873 93.9271 25.722 94.0718 25.598C94.2371 25.4533 94.4128 25.381 94.5988 25.381H98.3498C98.4738 25.381 98.5771 25.4223 98.6598 25.505C99.0111 25.7323 99.2075 25.8667 99.2488 25.908C99.6415 26.1973 100.003 26.4247 100.334 26.59C100.685 26.7347 101.098 26.807 101.574 26.807C102.132 26.807 102.586 26.7037 102.938 26.497C103.31 26.2697 103.496 25.9597 103.496 25.567C103.496 25.2363 103.392 24.9677 103.186 24.761C103 24.5543 102.628 24.358 102.07 24.172C101.532 23.9653 100.706 23.7587 99.5898 23.552C96.0145 22.8287 94.2268 21.1753 94.2268 18.592C94.2268 17.7447 94.4955 16.9387 95.0328 16.174C95.5908 15.3887 96.3968 14.7583 97.4508 14.283C98.5255 13.8077 99.8068 13.57 101.295 13.57C102.803 13.57 104.105 13.8077 105.201 14.283C106.317 14.7377 107.164 15.2957 107.743 15.957C108.321 16.5977 108.611 17.1867 108.611 17.724C108.611 17.91 108.538 18.0753 108.394 18.22C108.27 18.3647 108.115 18.437 107.929 18.437H104.519C104.333 18.437 104.188 18.3957 104.085 18.313C103.837 18.189 103.589 18.034 103.341 17.848C102.969 17.6 102.638 17.414 102.349 17.29C102.08 17.1453 101.729 17.073 101.295 17.073C100.778 17.073 100.375 17.1867 100.086 17.414C99.7965 17.6413 99.6518 17.9307 99.6518 18.282C99.6518 18.592 99.7345 18.8503 99.8998 19.057C100.086 19.243 100.447 19.429 100.985 19.615C101.543 19.801 102.38 19.9973 103.496 20.204C105.521 20.5553 106.988 21.1857 107.898 22.095C108.828 22.9837 109.293 24.0273 109.293 25.226C109.293 26.776 108.6 28.016 107.216 28.946C105.852 29.8553 103.93 30.31 101.45 30.31ZM112.723 30C112.516 30 112.33 29.9277 112.165 29.783C112.02 29.6177 111.948 29.4317 111.948 29.225V14.655C111.948 14.4277 112.02 14.2417 112.165 14.097C112.33 13.9523 112.516 13.88 112.723 13.88H116.319C116.546 13.88 116.732 13.9523 116.877 14.097C117.021 14.2417 117.094 14.4277 117.094 14.655V15.709C117.59 15.1097 118.23 14.6033 119.016 14.19C119.801 13.7767 120.69 13.57 121.682 13.57C123.955 13.57 125.515 14.4587 126.363 16.236C126.859 15.4507 127.551 14.81 128.44 14.314C129.328 13.818 130.279 13.57 131.292 13.57C132.986 13.57 134.361 14.1487 135.415 15.306C136.489 16.4427 137.027 18.1477 137.027 20.421V29.225C137.027 29.4317 136.954 29.6177 136.81 29.783C136.665 29.9277 136.479 30 136.252 30H132.439C132.211 30 132.015 29.9277 131.85 29.783C131.705 29.6383 131.633 29.4523 131.633 29.225V20.638C131.633 19.6873 131.426 18.995 131.013 18.561C130.62 18.1063 130.083 17.879 129.401 17.879C128.76 17.879 128.233 18.1063 127.82 18.561C127.427 18.995 127.231 19.6873 127.231 20.638V29.225C127.231 29.4317 127.158 29.6177 127.014 29.783C126.869 29.9277 126.683 30 126.456 30H122.643C122.415 30 122.219 29.9277 122.054 29.783C121.909 29.6383 121.837 29.4523 121.837 29.225V20.638C121.837 19.6873 121.63 18.995 121.217 18.561C120.803 18.1063 120.266 17.879 119.605 17.879C118.964 17.879 118.437 18.1063 118.024 18.561C117.61 18.995 117.404 19.677 117.404 20.607V29.225C117.404 29.4317 117.331 29.6177 117.187 29.783C117.042 29.9277 116.856 30 116.629 30H112.723ZM148.155 30.31C145.551 30.31 143.546 29.7107 142.141 28.512C140.756 27.2927 140.002 25.567 139.878 23.335C139.857 23.0663 139.847 22.6013 139.847 21.94C139.847 21.2787 139.857 20.8137 139.878 20.545C140.002 18.3543 140.777 16.6493 142.203 15.43C143.649 14.19 145.633 13.57 148.155 13.57C150.676 13.57 152.65 14.19 154.076 15.43C155.522 16.6493 156.308 18.3543 156.432 20.545C156.473 21.0823 156.494 21.5473 156.494 21.94C156.494 22.3327 156.473 22.7977 156.432 23.335C156.308 25.567 155.543 27.2927 154.138 28.512C152.753 29.7107 150.759 30.31 148.155 30.31ZM148.155 26.404C149.002 26.404 149.632 26.1457 150.046 25.629C150.459 25.0917 150.697 24.2753 150.759 23.18C150.779 22.9733 150.79 22.56 150.79 21.94C150.79 21.32 150.779 20.9067 150.759 20.7C150.697 19.6253 150.459 18.8193 150.046 18.282C149.632 17.7447 149.002 17.476 148.155 17.476C147.307 17.476 146.677 17.7447 146.264 18.282C145.85 18.8193 145.613 19.6253 145.551 20.7L145.52 21.94L145.551 23.18C145.613 24.2753 145.85 25.0917 146.264 25.629C146.677 26.1457 147.307 26.404 148.155 26.404Z" fill="white"/>
<path d="M63.0931 64.31C60.1378 64.31 57.8128 63.597 56.1181 62.171C54.4441 60.745 53.5555 58.6577 53.4521 55.909C53.4315 55.351 53.4211 54.4417 53.4211 53.181C53.4211 51.8997 53.4315 50.9697 53.4521 50.391C53.5555 47.7043 54.4545 45.6377 56.1491 44.191C57.8645 42.7237 60.1791 41.99 63.0931 41.99C64.9325 41.99 66.5755 42.2897 68.0221 42.889C69.4895 43.4883 70.6468 44.3563 71.4941 45.493C72.3415 46.6297 72.7858 47.973 72.8271 49.523C72.8271 49.709 72.7548 49.864 72.6101 49.988C72.4861 50.112 72.3311 50.174 72.1451 50.174H67.7431C67.4538 50.174 67.2368 50.1223 67.0921 50.019C66.9681 49.895 66.8545 49.678 66.7511 49.368C66.4618 48.3553 66.0175 47.6527 65.4181 47.26C64.8395 46.8467 64.0645 46.64 63.0931 46.64C60.7578 46.64 59.5488 47.942 59.4661 50.546C59.4455 51.104 59.4351 51.9617 59.4351 53.119C59.4351 54.2763 59.4455 55.1547 59.4661 55.754C59.5488 58.358 60.7578 59.66 63.0931 59.66C64.0438 59.66 64.8188 59.4533 65.4181 59.04C66.0381 58.6267 66.4825 57.924 66.7511 56.932C66.8338 56.622 66.9475 56.4153 67.0921 56.312C67.2368 56.188 67.4538 56.126 67.7431 56.126H72.1451C72.3311 56.126 72.4861 56.188 72.6101 56.312C72.7548 56.436 72.8271 56.591 72.8271 56.777C72.7858 58.327 72.3415 59.6703 71.4941 60.807C70.6468 61.9437 69.4895 62.8117 68.0221 63.411C66.5755 64.0103 64.9325 64.31 63.0931 64.31ZM76.4558 64C76.2285 64 76.0321 63.9277 75.8668 63.783C75.7221 63.6383 75.6498 63.4523 75.6498 63.225V42.765C75.6498 42.5377 75.7221 42.3517 75.8668 42.207C76.0321 42.0623 76.2285 41.99 76.4558 41.99H80.6408C80.8681 41.99 81.0541 42.0623 81.1988 42.207C81.3641 42.3517 81.4468 42.5377 81.4468 42.765V49.678C82.6455 48.2727 84.2678 47.57 86.3138 47.57C87.4918 47.57 88.5561 47.8387 89.5068 48.376C90.4575 48.9133 91.2015 49.709 91.7388 50.763C92.2761 51.817 92.5448 53.088 92.5448 54.576V63.225C92.5448 63.4523 92.4621 63.6383 92.2968 63.783C92.1521 63.9277 91.9661 64 91.7388 64H87.5228C87.3161 64 87.1301 63.9277 86.9648 63.783C86.8201 63.6177 86.7478 63.4317 86.7478 63.225V54.762C86.7478 53.8527 86.5205 53.15 86.0658 52.654C85.6111 52.1373 84.9601 51.879 84.1128 51.879C83.2861 51.879 82.6351 52.1373 82.1598 52.654C81.6845 53.15 81.4468 53.8527 81.4468 54.762V63.225C81.4468 63.4523 81.3641 63.6383 81.1988 63.783C81.0541 63.9277 80.8681 64 80.6408 64H76.4558ZM100.8 64.31C99.7047 64.31 98.7023 64.1033 97.793 63.69C96.9043 63.256 96.2017 62.667 95.685 61.923C95.189 61.179 94.941 60.3627 94.941 59.474C94.941 58.0687 95.5197 56.932 96.677 56.064C97.855 55.1753 99.467 54.5657 101.513 54.235L105.357 53.646V53.274C105.357 52.5093 105.202 51.9513 104.892 51.6C104.582 51.2487 104.055 51.073 103.311 51.073C102.898 51.073 102.546 51.1453 102.257 51.29C101.988 51.4347 101.678 51.6517 101.327 51.941C101.058 52.1683 100.821 52.3337 100.614 52.437C100.531 52.5817 100.428 52.654 100.304 52.654H96.708C96.5013 52.654 96.3257 52.592 96.181 52.468C96.057 52.3233 96.0053 52.158 96.026 51.972C96.0467 51.414 96.3257 50.794 96.863 50.112C97.4003 49.4093 98.2167 48.81 99.312 48.314C100.407 47.818 101.761 47.57 103.373 47.57C105.936 47.57 107.837 48.1383 109.077 49.275C110.317 50.391 110.937 51.91 110.937 53.832V63.225C110.937 63.4317 110.865 63.6177 110.72 63.783C110.575 63.9277 110.389 64 110.162 64H106.349C106.142 64 105.956 63.9277 105.791 63.783C105.646 63.6177 105.574 63.4317 105.574 63.225V62.14C105.119 62.7807 104.489 63.3077 103.683 63.721C102.877 64.1137 101.916 64.31 100.8 64.31ZM102.35 60.652C103.259 60.652 103.993 60.3523 104.551 59.753C105.13 59.1537 105.419 58.2857 105.419 57.149V56.777L102.846 57.211C101.11 57.5417 100.242 58.1617 100.242 59.071C100.242 59.5463 100.438 59.9287 100.831 60.218C101.244 60.5073 101.751 60.652 102.35 60.652ZM115.084 64C114.877 64 114.691 63.9277 114.526 63.783C114.381 63.6177 114.309 63.4317 114.309 63.225V48.655C114.309 48.4277 114.381 48.2417 114.526 48.097C114.691 47.9523 114.877 47.88 115.084 47.88H118.897C119.124 47.88 119.31 47.9523 119.455 48.097C119.6 48.2417 119.672 48.4277 119.672 48.655V49.833C120.23 49.151 120.943 48.6033 121.811 48.19C122.7 47.7767 123.712 47.57 124.849 47.57C126.027 47.57 127.071 47.8387 127.98 48.376C128.91 48.9133 129.633 49.709 130.15 50.763C130.687 51.817 130.956 53.088 130.956 54.576V63.225C130.956 63.4317 130.884 63.6177 130.739 63.783C130.594 63.9277 130.408 64 130.181 64H126.058C125.831 64 125.634 63.9277 125.469 63.783C125.324 63.6383 125.252 63.4523 125.252 63.225V54.762C125.252 53.832 125.025 53.119 124.57 52.623C124.136 52.127 123.495 51.879 122.648 51.879C121.821 51.879 121.17 52.1373 120.695 52.654C120.22 53.15 119.982 53.8527 119.982 54.762V63.225C119.982 63.4317 119.91 63.6177 119.765 63.783C119.62 63.9277 119.434 64 119.207 64H115.084ZM142.41 70.82C140.426 70.82 138.814 70.4997 137.574 69.859C136.334 69.2183 135.445 68.4743 134.908 67.627C134.371 66.8003 134.102 66.108 134.102 65.55C134.102 65.3433 134.185 65.1677 134.35 65.023C134.515 64.8783 134.701 64.806 134.908 64.806H139.062C139.269 64.806 139.434 64.8473 139.558 64.93C139.682 65.0333 139.796 65.1987 139.899 65.426C140.106 65.8807 140.374 66.232 140.705 66.48C141.036 66.7487 141.552 66.883 142.255 66.883C143.144 66.883 143.805 66.6557 144.239 66.201C144.673 65.767 144.89 65.0333 144.89 64V61.923C143.795 63.0597 142.296 63.628 140.395 63.628C138.308 63.628 136.706 63.0287 135.59 61.83C134.495 60.6107 133.895 58.823 133.792 56.467L133.761 55.63C133.761 53.1087 134.319 51.135 135.435 49.709C136.572 48.283 138.225 47.57 140.395 47.57C141.449 47.57 142.379 47.7767 143.185 48.19C143.991 48.5827 144.663 49.12 145.2 49.802V48.686C145.2 48.4587 145.272 48.2727 145.417 48.128C145.562 47.9627 145.748 47.88 145.975 47.88H149.757C149.984 47.88 150.17 47.9627 150.315 48.128C150.48 48.2727 150.563 48.4587 150.563 48.686V63.535C150.563 65.9117 149.85 67.72 148.424 68.96C146.998 70.2 144.993 70.82 142.41 70.82ZM142.162 59.443C143.051 59.443 143.712 59.1743 144.146 58.637C144.58 58.0997 144.828 57.4177 144.89 56.591C144.911 56.4463 144.921 56.1363 144.921 55.661C144.921 55.165 144.911 54.855 144.89 54.731C144.828 53.8837 144.58 53.2017 144.146 52.685C143.712 52.1477 143.051 51.879 142.162 51.879C141.253 51.879 140.591 52.158 140.178 52.716C139.765 53.2533 139.537 54.0077 139.496 54.979L139.465 55.661C139.465 56.839 139.661 57.769 140.054 58.451C140.447 59.1123 141.149 59.443 142.162 59.443ZM161.683 64.31C159.161 64.31 157.177 63.6383 155.731 62.295C154.284 60.931 153.54 58.9573 153.499 56.374V55.413C153.581 52.9537 154.346 51.0317 155.793 49.647C157.239 48.2623 159.192 47.57 161.652 47.57C163.429 47.57 164.927 47.9317 166.147 48.655C167.387 49.3577 168.306 50.3393 168.906 51.6C169.526 52.84 169.836 54.2557 169.836 55.847V56.622C169.836 56.8493 169.753 57.0457 169.588 57.211C169.443 57.3557 169.257 57.428 169.03 57.428H159.203V57.614C159.223 58.544 159.44 59.2983 159.854 59.877C160.267 60.435 160.856 60.714 161.621 60.714C162.117 60.714 162.509 60.621 162.799 60.435C163.109 60.2283 163.398 59.97 163.667 59.66C163.853 59.4533 163.997 59.3293 164.101 59.288C164.225 59.226 164.411 59.195 164.659 59.195H168.72C168.906 59.195 169.061 59.257 169.185 59.381C169.329 59.4843 169.402 59.6187 169.402 59.784C169.402 60.3213 169.092 60.9517 168.472 61.675C167.872 62.3983 166.984 63.0183 165.806 63.535C164.648 64.0517 163.274 64.31 161.683 64.31ZM164.132 54.266V54.204C164.132 53.212 163.915 52.4473 163.481 51.91C163.047 51.352 162.437 51.073 161.652 51.073C160.866 51.073 160.257 51.352 159.823 51.91C159.409 52.4473 159.203 53.212 159.203 54.204V54.266H164.132ZM173.391 64C173.184 64 172.998 63.9277 172.833 63.783C172.688 63.6177 172.616 63.4317 172.616 63.225V48.686C172.616 48.4587 172.688 48.2727 172.833 48.128C172.977 47.9627 173.163 47.88 173.391 47.88H177.173C177.4 47.88 177.586 47.9627 177.731 48.128C177.896 48.2727 177.979 48.4587 177.979 48.686V49.864C178.557 49.2233 179.229 48.7377 179.994 48.407C180.779 48.0557 181.647 47.88 182.598 47.88H183.993C184.22 47.88 184.406 47.9523 184.551 48.097C184.695 48.2417 184.768 48.4277 184.768 48.655V52.034C184.768 52.2407 184.695 52.4267 184.551 52.592C184.406 52.7367 184.22 52.809 183.993 52.809H180.862C180.035 52.809 179.394 53.0363 178.94 53.491C178.506 53.9457 178.289 54.5863 178.289 55.413V63.225C178.289 63.4523 178.206 63.6383 178.041 63.783C177.896 63.9277 177.71 64 177.483 64H173.391Z" fill="#F1B300"/>
</svg>
